<svg id="Layer_1" data-name="Layer 1" xmlns="http://www.w3.org/2000/svg" viewBox="0 0 512 256"><defs><style>.cls-1{fill:#ffc6ab}.cls-2{fill:#e90037}.cls-3{fill:#c70f00}.cls-4{fill:#951b00}</style></defs><path class="cls-1" d="M0 0-1 256H513L512.5.0H0z"/><path class="cls-2" d="M31.47 118.17c42.12 7.62 76.07-44.39 111.39-36.59 32 7.06 27.59 14.79 59.94 24.06 11 3.15 67.83 19.42 120.88-4 12.42-5.49 25.44-13.5 41-23.06 33.66-20.72 39.84-29.11 54.95-29.07 11.17.0 16 4.65 44 20 20.64 11.38 37.82 19.8 48.95 25.06.0 53.8 1.5 107.59 1.5 161.39H1c0-57.81.5-79 .5-136.83"/><path class="cls-2" d="M77.81 102h1.51v13.66H77.81z"/><path class="cls-2" d="M78.42 89.1 80.3 96.6 82.17 104.1H78.42 74.68L76.55 96.6 78.42 89.1z"/><path class="cls-2" d="M139.75 83.96h1.51v13.66H139.75z"/><path class="cls-2" d="M140.36 71.05 142.23 78.56 144.1 86.06H140.36 136.62L138.49 78.56 140.36 71.05z"/><path class="cls-2" d="M144.75 87.97h1.51v13.66H144.75z"/><path class="cls-2" d="M145.36 75.06 147.23 82.57 149.1 90.07H145.36 141.62L143.49 82.57 145.36 75.06z"/><path class="cls-2" d="M174.63 87.91h1.73v15.72H174.63z"/><path class="cls-2" d="M175.33 73.06 177.48 81.69 179.64 90.33H175.33 171.02L173.18 81.69 175.33 73.06z"/><path class="cls-2" d="M213.64 101.98h1.61v14.58H213.64z"/><path class="cls-2" d="M214.29 88.2 216.29 96.21 218.29 104.22h-4-4L212.29 96.21 214.29 88.2z"/><path class="cls-2" d="M305.55 99.97h1.61v14.58H305.55z"/><path class="cls-2" d="M306.2 86.19 308.2 94.2 310.2 102.22h-4-4L304.2 94.2 306.2 86.19z"/><path class="cls-2" d="M368.49 68.9h1.61v14.58H368.49z"/><path class="cls-2" d="M369.14 55.12 371.14 63.13 373.13 71.14H369.14h-4L367.14 63.13 369.14 55.12z"/><path class="cls-2" d="M464.39 70.9H466v14.58H464.39z"/><path class="cls-2" d="M465.05 57.12 467.04 65.13 469.04 73.15H465.05h-4L463.05 65.13 465.05 57.12z"/><path class="cls-2" d="M469.39 72.91H471v14.58H469.39z"/><path class="cls-2" d="M470.04 59.13 472.04 67.14 474.04 75.15h-4-4L468.04 67.14 470.04 59.13z"/><ellipse class="cls-2" cx="102.78" cy="92.49" rx="5.38" ry="5.4"/><ellipse class="cls-2" cx="106.01" cy="88.71" rx="5.38" ry="5.4"/><ellipse class="cls-2" cx="270.85" cy="112.77" rx="5.38" ry="5.4"/><ellipse class="cls-2" cx="277.84" cy="115.78" rx="5.38" ry="5.4"/><ellipse class="cls-2" cx="351.77" cy="84.7" rx="5.38" ry="5.4"/><ellipse class="cls-2" cx="437.69" cy="57.64" rx="5.38" ry="5.4"/><ellipse class="cls-2" cx="433.69" cy="54.63" rx="5.38" ry="5.4"/><ellipse class="cls-2" cx="359.76" cy="83.7" rx="5.38" ry="5.4"/><ellipse class="cls-2" cx="346.78" cy="89.71" rx="5.38" ry="5.4"/><ellipse class="cls-2" cx="113" cy="89.79" rx="5.38" ry="5.4"/><path class="cls-3" d="M-1 113a113.12 113.12.0 0 1 31.88-2c4.12.37 22.77 2.36 47.82 18 19.14 12 19.41 17.78 31.87 26 22.41 14.79 49.11 12.73 101.6 8 43.92-3.95 49.43-9.34 71.72-5 30.3 5.89 30.61 17.88 51.8 19 34.85 1.84 47.86-29.86 90.65-46 18.44-7 46.25-12.47 85.66-4V256L1 255C1.33 207.67-1.33 160.33-1 113z"/><path class="cls-3" d="M224.09 146.5 229.06 160.36 234.03 169H224.09 214.15L219.12 160.36 224.09 146.5z"/><path class="cls-3" d="M213.61 147.67 219.16 160.07 224.13 168.71H214.19 204.25L209.22 160.07 213.61 147.67z"/><path class="cls-3" d="M450.74 112.5 459.24 136.21 467.75 151H450.74 433.73L442.23 136.21 450.74 112.5z"/><path class="cls-3" d="M437.79 115 447.29 136.21 455.79 151H438.78 421.77L430.28 136.21 437.79 115z"/><path class="cls-3" d="M145.45 160.65h2.41v21.85H145.45z"/><path class="cls-3" d="M146.43 140 149.42 152.01 152.41 164.01H146.43 140.44l3-12L146.43 140z"/><path class="cls-3" d="M367.58 158.65h2.41v21.85H367.58z"/><path class="cls-3" d="M368.56 138 371.55 150.01 374.54 162.01H368.56 362.57L365.56 150.01 368.56 138z"/><path class="cls-3" d="M379.54 151.65h2.41v21.85H379.54z"/><path class="cls-3" d="M380.51 131 383.5 143.01l3 12H380.51 374.53L377.52 143.01 380.51 131z"/><ellipse class="cls-3" cx="14.44" cy="112.5" rx="8.47" ry="8.5"/><ellipse class="cls-3" cx="20.42" cy="105.5" rx="8.47" ry="8.5"/><ellipse class="cls-3" cx="29.38" cy="111.5" rx="8.47" ry="8.5"/><ellipse class="cls-3" cx="81.68" cy="138" rx="8.96" ry="9"/><ellipse class="cls-3" cx="177.31" cy="168" rx="8.96" ry="9"/><ellipse class="cls-3" cx="188.26" cy="166" rx="8.96" ry="9"/><ellipse class="cls-3" cx="309.79" cy="166" rx="8.96" ry="9"/><ellipse class="cls-3" cx="318.75" cy="175" rx="8.96" ry="9"/><path class="cls-4" d="M0 150c1.45 5.24 3.73 14.53 7 23.68 5.69 15.91 8.53 23.87 13 29.11 11.24 13.18 33.52 11.26 49 10 8.27-.65 114.28-8.77 167-1a212.05 212.05.0 0 1 37 9c16.85 5.92 22.44 10.51 33 15.06 26.21 11.29 50.84 8.42 80 5 30.58-3.56 45.88-5.35 59-17.07 13.83-12.35 12.43-23.45 28-42.16a117.11 117.11.0 0 1 39-30.12V256H-1C-1 221.2.0 184.8.0 150z"/><path class="cls-4" d="M104 190.24h5.5v43.67H104z"/><path class="cls-4" d="M245.46 190.24h5.04v45.68H245.46z"/><path class="cls-4" d="M341.51 218.35h3.98v32.63H341.51z"/><path class="cls-4" d="M46 192.17 54.54 207.02 63.08 221.87H46 28.93L37.46 207.02 46 192.17z"/><path class="cls-4" d="M71 188.74 79.54 207.02 88.08 221.87H71 53.92L62.46 207.02 71 188.74z"/><path class="cls-4" d="M210 186.73 218.54 210.53 227.07 225.38H210 192.93L201.46 210.53 210 186.73z"/><path class="cls-4" d="M192 188.74 201.54 210.03 210.07 224.88H193 175.93L184.46 210.03 192 188.74z"/><path class="cls-4" d="M278 205.8 286.54 227.1 295.07 241.94H278 260.93L269.46 227.1 278 205.8z"/><path class="cls-4" d="M387 224.3 395.54 239.15 404.07 253.99H387 369.93L378.46 239.15 387 224.3z"/><path class="cls-4" d="M440 217.27 448.54 232.12 457.07 246.96H440 422.93L431.46 232.12 440 217.27z"/><path class="cls-4" d="M106.5 129 113.91 162.63 121.32 196.26H106.5 91.68L99.09 162.63 106.5 129z"/><path class="cls-4" d="M247.5 147.07 253.75 172.17 260.01 197.27H247.5 234.99L241.25 172.17 247.5 147.07z"/><path class="cls-4" d="M343.5 177.13 348.85 201.76 354.19 226.38H343.5 332.81L338.15 201.76 343.5 177.13z"/><ellipse class="cls-4" cx="147" cy="208.81" rx="9.5" ry="9.54"/><ellipse class="cls-4" cx="137" cy="213.83" rx="9.5" ry="9.54"/><ellipse class="cls-4" cx="159" cy="213.83" rx="9.5" ry="9.54"/><ellipse class="cls-4" cx="305" cy="235.92" rx="9.5" ry="9.54"/><ellipse class="cls-4" cx="312" cy="240.94" rx="9.5" ry="9.54"/><ellipse class="cls-4" cx="320" cy="241.94" rx="9.5" ry="9.54"/><ellipse class="cls-4" cx="415" cy="241.94" rx="9.5" ry="9.54"/></svg>