<svg id="Layer_1" data-name="Layer 1" xmlns="http://www.w3.org/2000/svg" viewBox="0 0 256 256"><defs><style>.cls-1{fill:#a10000;}.cls-2{font-size:9.57px;font-family:PoorRichard-Regular, Poor Richard;}.cls-3{stroke:#a10000;stroke-miterlimit:10;stroke-width:2px;}</style></defs><rect class="cls-1" width="256" height="256"/><path d="M74.79,109.93a7.27,7.27,0,0,0-2.15-5.59,6.26,6.26,0,0,0-4.15-2q-6,0-6-3.75c0-2.9,1.44-4.36,4.32-4.36a30.17,30.17,0,0,1,4.66.7,28.73,28.73,0,0,0,5.27.7,21.75,21.75,0,0,0,5-.6,18.91,18.91,0,0,1,3.46-.6c1.81,0,3,.45,3.62,1.35s1,4.56,1.3,11,.4,13.83.4,22.3l-.2,17.4c0,3.07.19,5,.55,5.75a5.85,5.85,0,0,0,2.4,2.25,10.94,10.94,0,0,0,4.35,1.4,10.4,10.4,0,0,1,3.66,1c.76.45,1.15,1.37,1.15,2.79q0,3.56-5.12,3.56a38.89,38.89,0,0,1-7.52-.75,38.89,38.89,0,0,0-7.52-.75,44.79,44.79,0,0,0-7.37.75,42.53,42.53,0,0,1-6.57.75c-3.74,0-5.61-1.09-5.61-3.25,0-1.62.35-2.69,1.05-3.19a8.8,8.8,0,0,1,3.85-1.11,9.93,9.93,0,0,0,4.55-1.6,5.29,5.29,0,0,0,2.2-3.25,46.33,46.33,0,0,0,.45-8.18Zm45.51-.19a4.64,4.64,0,0,0-2-3.75,6.63,6.63,0,0,0-4.23-1.54q-5,0-11.76,5.63c-2.65,2.31-4.58,3.47-5.77,3.47-1.73,0-2.6-.77-2.6-2.3q0-5.1,9.36-11.86t16.85-6.75a15.79,15.79,0,0,1,11.2,4.55A14.36,14.36,0,0,1,136.2,108l-.2,40.4a7.09,7.09,0,0,0,7.1,7.2c3.4,0,5.1,1.36,5.1,4.06,0,2.36-1.77,3.55-5.31,3.55q-.6,0-6-.65a75.27,75.27,0,0,0-9-.65,57.69,57.69,0,0,0-10.13.75,39.57,39.57,0,0,1-5.31.75,4.67,4.67,0,0,1-3.16-1.17,3.78,3.78,0,0,1-1.35-3c0-1.9,1.16-2.85,3.5-2.85a10,10,0,0,0,6-2,7.13,7.13,0,0,0,2.8-6.14Zm45.71,0a4.64,4.64,0,0,0-1.95-3.75,6.63,6.63,0,0,0-4.23-1.54q-4,0-9.82,4.55t-7.72,4.55a3.34,3.34,0,0,1-2.14-.75,2.21,2.21,0,0,1-1-1.75q0-4.5,8.8-11.35t17.91-6.86q10.59,0,14.5,8.91,1.4,2.7,1.4,29.6l-.2,17a6.24,6.24,0,0,0,1.7,4.8,10.4,10.4,0,0,0,5.2,2.3c2.33.47,3.75,1,4.25,1.67a3.59,3.59,0,0,1,.75,2.28c0,2.5-1.64,3.76-4.91,3.76q-.71,0-6-.65a74.76,74.76,0,0,0-9-.65,47.7,47.7,0,0,0-8.07.75,44.45,44.45,0,0,1-7.27.75,4.67,4.67,0,0,1-3.16-1.17,3.75,3.75,0,0,1-1.36-3c0-2.1,1.55-3.29,4.66-3.59s5.15-1.12,6.15-2.45a8.06,8.06,0,0,0,1.5-5Z"/><text class="cls-2" transform="translate(12.24 19.73)">Lorem ipsum dolor sit amet, consectetur adipiscing elit.<tspan x="0" y="11.48">Praesent quam lectus, sodales vel varius posuere, viverra in sapien.</tspan><tspan x="0" y="22.97">Nullam quis massa vulputate, condimentum nunc non, ultrices ex.</tspan></text><text class="cls-2" transform="translate(12.24 206.41)">Lorem ipsum dolor sit amet. Thank you for contuniung, i thought<tspan x="0" y="11.48">you would leave reading when you see lorem ipsum part but you</tspan><tspan x="0" y="22.97" xml:space="preserve">did not do that.  I cannot explain how grateful i am. Thank you. </tspan></text><rect x="1.64" y="71.81" width="112.38" height="4.77"/><rect x="1.64" y="78.96" width="98.43" height="8.17"/><rect x="1.64" y="89.51" width="50.55" height="3.33"/><path d="M173.34,78.36c-.7-.71,5.08-13.56,17.49-16.72,6.78-1.73,18.48-1.32,23.87,7.66,4.62,7.68,2.8,18.6-5,25.53a21.3,21.3,0,0,1-.38-8.94c.78-4.31,2.44-5.22,2-7.91-.6-4.16-5.22-6.67-8.68-8.55-3.26-1.78-6.57-3.58-9.32-2.3-2.51,1.17-1.77,3.63-4.72,5.61-2.57,1.73-4.08.51-8.43,1.92C175.61,76.16,173.68,78.71,173.34,78.36Z"/><path d="M243.21,64.15c-.63-1-6.06-.28-8.68,3.23-3.7,5,1.9,10.68-1.53,17-2.29,4.25-5.44,2.88-9.53,8-4.55,5.71-1.68,8.69-5.45,14.13-5.24,7.58-13,4.89-17.36,12.6-.32.56-3.57,6.44-1.36,11.57,2.06,4.78,6.93,4.47,9.87,8.51,2.15,3,3.4,8.46-1.19,19.58,3.9-.9,5.58-2.74,6.3-3.75,1.09-1.52,1.09-2.72,1.53-11.06.34-6.51.39-6.9,0-7.83-1.89-4.48-6.62-3.7-8-7.49s1.44-9,5.1-11.06c2.94-1.7,4.4-.17,6.81-1.88,2.71-1.9,2-4.58,4.6-11.4,1.9-4.94,3.08-8,6-9.36,3.52-1.66,6.09.91,8.17-.85.83-.71,1.48-2,.51-11.92-.7-7.16-1.2-8.07-.51-10.38C239.88,67,243.81,65.07,243.21,64.15Z"/><path class="cls-3" d="M193.85,88.83c-.78,0-2.87,6.91-1,14.64.82,3.43,2.22,9.24,6.81,11.57,4.05,2.06,6.3-.79,12.93,1.19,2.27.68,6.84,2,8,5.45,1.07,3.1-1.75,4.79-1.36,8.68.41,4.1,4,6.81,7.15,9.19a33,33,0,0,0,16.68,6.3,12.14,12.14,0,0,0-3.74-6c-2.54-2.09-4.26-1.43-7-3.23-3-2-6-6.11-5.45-9.87.62-4.12,5-4.39,5.62-8.68a8.4,8.4,0,0,0-3.92-8c-3-1.67-4.63.72-9.36.17-6-.71-6.31-4.9-14-6.81-4.08-1-4.84,0-6.81-1.36C193.14,98.56,194.77,88.86,193.85,88.83Z"/><path class="cls-3" d="M11.61,132.14a16.27,16.27,0,0,1,10.18,1.41c4.87,2.64,5.9,7.28,8.44,12.3,5.88,11.63,11.91,9.61,23.2,24.79,5,6.68,9.67,13,7.38,17.22-2.05,3.81-9.37,5.18-12.13,2.64-2.54-2.35.62-6.36-1.4-13.18-1.37-4.62-4.2-7.5-7.38-10.73-7.15-7.25-9.91-4.89-14.06-10.37-4.94-6.52-3.18-12.7-8.44-15.11-2.31-1.06-4.51-.72-5.79-2.64S10.94,134,11.61,132.14Z"/></svg>