<svg id="Layer_1" data-name="Layer 1" xmlns="http://www.w3.org/2000/svg" xmlns:xlink="http://www.w3.org/1999/xlink" viewBox="0 0 400 400"><defs><style>.cls-1{fill:url(#linear-gradient);}.cls-2{fill:url(#linear-gradient-2);}.cls-3{fill:url(#linear-gradient-3);}.cls-4{fill:url(#linear-gradient-4);}.cls-5{fill:url(#linear-gradient-5);}.cls-6{fill:url(#linear-gradient-6);}.cls-7{fill:url(#linear-gradient-7);}.cls-8{fill:url(#linear-gradient-8);}.cls-9{fill:url(#linear-gradient-9);}.cls-10{fill:url(#linear-gradient-10);}.cls-11{fill:url(#linear-gradient-11);}.cls-12{fill:url(#linear-gradient-12);}.cls-13{fill:url(#linear-gradient-13);}.cls-14{fill:url(#linear-gradient-14);}.cls-15{fill:url(#linear-gradient-15);}.cls-16{fill:url(#linear-gradient-16);}</style><linearGradient id="linear-gradient" x1="313.68" y1="209.94" x2="531" y2="431.21" gradientUnits="userSpaceOnUse"><stop offset="0" stop-color="#808a00"/><stop offset="1"/></linearGradient><linearGradient id="linear-gradient-2" x1="37.05" y1="-44.03" x2="358.4" y2="283.18" gradientUnits="userSpaceOnUse"><stop offset="0" stop-color="#1d0c35"/><stop offset="1"/></linearGradient><linearGradient id="linear-gradient-3" x1="-50.44" y1="231.38" x2="166.88" y2="452.65" xlink:href="#linear-gradient"/><linearGradient id="linear-gradient-4" x1="128.48" y1="291.64" x2="345.79" y2="512.91" xlink:href="#linear-gradient"/><linearGradient id="linear-gradient-5" x1="-41.23" y1="222.34" x2="176.08" y2="443.61" xlink:href="#linear-gradient"/><linearGradient id="linear-gradient-6" x1="268.68" y1="295.58" x2="486" y2="516.85" xlink:href="#linear-gradient"/><linearGradient id="linear-gradient-7" x1="150.82" y1="269.7" x2="368.14" y2="490.97" xlink:href="#linear-gradient"/><linearGradient id="linear-gradient-8" x1="221.63" y1="341.79" x2="438.94" y2="563.07" xlink:href="#linear-gradient"/><linearGradient id="linear-gradient-9" x1="316.95" y1="262.87" x2="436.78" y2="384.88" xlink:href="#linear-gradient-2"/><linearGradient id="linear-gradient-10" x1="309.65" y1="255.35" x2="526.96" y2="476.63" xlink:href="#linear-gradient"/><linearGradient id="linear-gradient-11" x1="288.92" y1="234.25" x2="506.24" y2="455.53" xlink:href="#linear-gradient"/><linearGradient id="linear-gradient-12" x1="336.62" y1="49.75" x2="424.58" y2="139.31" xlink:href="#linear-gradient-2"/><linearGradient id="linear-gradient-13" x1="334.74" y1="47.8" x2="552.05" y2="269.07" xlink:href="#linear-gradient"/><linearGradient id="linear-gradient-14" x1="368.71" y1="160.49" x2="423.28" y2="216.06" xlink:href="#linear-gradient-2"/><linearGradient id="linear-gradient-15" x1="366.54" y1="158.03" x2="583.85" y2="379.3" xlink:href="#linear-gradient"/><linearGradient id="linear-gradient-16" x1="295.82" y1="86.02" x2="513.13" y2="307.29" xlink:href="#linear-gradient"/></defs><title>Artboard 1</title><path class="cls-1" d="M350.94,178.54a138.59,138.59,0,0,0-42.83,95.06A139.44,139.44,0,0,1,400,265.2V230.3A139.6,139.6,0,0,1,350.94,178.54Z"/><path class="cls-2" d="M133.56,311.26a139.31,139.31,0,0,1,116.12,12.63,139.54,139.54,0,0,1,58.43-50.29,138.59,138.59,0,0,1,42.83-95.06A139,139,0,0,1,390.68,0H0V234.3c3-.19,6-.3,9-.3A139,139,0,0,1,133.56,311.26Z"/><path class="cls-3" d="M45.79,400a139.32,139.32,0,0,1,87.77-88.74A139,139,0,0,0,9,234c-3,0-6,.11-9,.3V400Z"/><path class="cls-4" d="M178,304a138.7,138.7,0,0,0-44.44,7.26A138.38,138.38,0,0,1,148,373a139.67,139.67,0,0,1-2.63,27H227a138.4,138.4,0,0,1,22.68-76.11A138.38,138.38,0,0,0,178,304Z"/><path class="cls-5" d="M133.56,311.26A139.32,139.32,0,0,0,45.79,400h99.58A139.67,139.67,0,0,0,148,373,138.38,138.38,0,0,0,133.56,311.26Z"/><path class="cls-6" d="M308,279c0-1.81.05-3.61.11-5.4a139.54,139.54,0,0,0-58.43,50.29A139.36,139.36,0,0,1,310.21,400h68.35A139,139,0,0,1,308,279Z"/><path class="cls-7" d="M249.68,323.89A138.4,138.4,0,0,0,227,400h83.21A139.36,139.36,0,0,0,249.68,323.89Z"/><path class="cls-8" d="M249.68,323.89A138.4,138.4,0,0,0,227,400h83.21A139.36,139.36,0,0,0,249.68,323.89Z"/><path class="cls-9" d="M378.69,399.5A138.86,138.86,0,0,1,308.5,279c0-1.55,0-3.17.1-5.08A137.45,137.45,0,0,1,366,261.5a139.15,139.15,0,0,1,33.5,4.09V399.5Z"/><path d="M366,262a138.61,138.61,0,0,1,33,4V399H378.82A137.94,137.94,0,0,1,309,279c0-1.44,0-3,.09-4.75A136.85,136.85,0,0,1,366,262m0-1a138.42,138.42,0,0,0-57.89,12.6c-.06,1.79-.11,3.59-.11,5.4a139,139,0,0,0,70.56,121H400V265.2a139.07,139.07,0,0,0-34-4.2Z"/><path class="cls-10" d="M308.11,273.6c-.06,1.79-.11,3.59-.11,5.4a139,139,0,0,0,70.56,121H400V265.2a139.44,139.44,0,0,0-91.89,8.4Z"/><path class="cls-11" d="M308.11,273.6c-.06,1.79-.11,3.59-.11,5.4a139,139,0,0,0,70.56,121H400V265.2a139.44,139.44,0,0,0-91.89,8.4Z"/><path class="cls-12" d="M351.06,177.73A138.78,138.78,0,0,1,334.5,112a137,137,0,0,1,15.39-63.51A139.77,139.77,0,0,1,390.84.5h8.66V147.8A138.75,138.75,0,0,0,351.06,177.73Z"/><path d="M399,1V147.45a139,139,0,0,0-47.8,29.47A138.22,138.22,0,0,1,335,112a136.4,136.4,0,0,1,15.34-63.28A139.17,139.17,0,0,1,391,1h8m1-1h-9.32a139,139,0,0,0-39.74,178.54A139.08,139.08,0,0,1,400,148.16V0Z"/><path class="cls-13" d="M334,112a138.31,138.31,0,0,0,16.94,66.54A139.08,139.08,0,0,1,400,148.16V0h-9.32A138.81,138.81,0,0,0,334,112Z"/><path class="cls-14" d="M399.5,229.4a139.35,139.35,0,0,1-47.94-50.76,137.45,137.45,0,0,1,47.94-29.77Z"/><path d="M399,149.58v78.91a138.75,138.75,0,0,1-46.82-49.76A137.14,137.14,0,0,1,399,149.58m1-1.42a139.08,139.08,0,0,0-49.06,30.38A139.6,139.6,0,0,0,400,230.3V148.16Z"/><path class="cls-15" d="M350.94,178.54A139.6,139.6,0,0,0,400,230.3V148.16A139.08,139.08,0,0,0,350.94,178.54Z"/><path class="cls-16" d="M350.94,178.54A139.6,139.6,0,0,0,400,230.3V148.16A139.08,139.08,0,0,0,350.94,178.54Z"/></svg>