<svg id="Layer_1" data-name="Layer 1" xmlns="http://www.w3.org/2000/svg" xmlns:xlink="http://www.w3.org/1999/xlink" viewBox="0 0 800 400"><defs><style>.cls-1{fill:url(#linear-gradient);}.cls-2{fill:url(#linear-gradient-2);}.cls-3{fill:url(#linear-gradient-3);}.cls-4{fill:url(#linear-gradient-4);}.cls-5{fill:url(#linear-gradient-5);}.cls-6{fill:url(#linear-gradient-6);}.cls-7{fill:url(#linear-gradient-7);}.cls-8{fill:url(#linear-gradient-8);}.cls-9{fill:url(#linear-gradient-9);}.cls-10{fill:url(#linear-gradient-10);}.cls-11{fill:url(#linear-gradient-11);}.cls-12{fill:url(#linear-gradient-12);}.cls-13{fill:url(#linear-gradient-13);}.cls-14{fill:url(#linear-gradient-14);}.cls-15{fill:url(#linear-gradient-15);}.cls-16{fill:url(#linear-gradient-16);}.cls-17{fill:url(#linear-gradient-17);}.cls-18{fill:url(#linear-gradient-18);}.cls-19{fill:url(#linear-gradient-19);}.cls-20{fill:url(#linear-gradient-20);}.cls-21{fill:url(#linear-gradient-21);}.cls-22{fill:url(#linear-gradient-22);}.cls-23{fill:url(#linear-gradient-23);}</style><linearGradient id="linear-gradient" y1="200" x2="800" y2="200" gradientUnits="userSpaceOnUse"><stop offset="0" stop-color="#1d0c35"/><stop offset="1"/></linearGradient><linearGradient id="linear-gradient-2" y1="45.69" x2="107.42" y2="45.69" gradientTransform="scale(1 0.96)" xlink:href="#linear-gradient"/><linearGradient id="linear-gradient-3" x1="62.53" y1="94.93" x2="-3.36" y2="-264.08" gradientTransform="scale(1 0.96)" gradientUnits="userSpaceOnUse"><stop offset="0" stop-color="#00aa51"/><stop offset="1"/></linearGradient><linearGradient id="linear-gradient-4" x1="107.42" y1="22.97" x2="287.59" y2="22.97" gradientTransform="scale(1 0.96)" xlink:href="#linear-gradient"/><linearGradient id="linear-gradient-5" x1="206.85" y1="67.54" x2="140.95" y2="-291.47" xlink:href="#linear-gradient-3"/><linearGradient id="linear-gradient-6" x1="104.88" y1="1.18" x2="108.6" y2="1.18" gradientTransform="scale(1 0.96)" xlink:href="#linear-gradient"/><linearGradient id="linear-gradient-7" x1="122.16" y1="83.99" x2="56.26" y2="-275.02" xlink:href="#linear-gradient-3"/><linearGradient id="linear-gradient-8" x1="121.99" y1="83.11" x2="56.1" y2="-275.9" xlink:href="#linear-gradient-3"/><linearGradient id="linear-gradient-9" x1="693.71" y1="39.64" y2="39.64" gradientTransform="scale(1 0.96)" xlink:href="#linear-gradient"/><linearGradient id="linear-gradient-10" x1="768.18" y1="116.31" x2="702.28" y2="-242.7" xlink:href="#linear-gradient-3"/><linearGradient id="linear-gradient-11" x1="694.06" y1="366.06" y2="366.06" gradientTransform="scale(1 0.96)" xlink:href="#linear-gradient"/><linearGradient id="linear-gradient-12" x1="801.64" y1="663.55" x2="735.74" y2="304.54" xlink:href="#linear-gradient-3"/><linearGradient id="linear-gradient-13" x1="824.84" y1="389.43" x2="758.94" y2="30.42" xlink:href="#linear-gradient-3"/><linearGradient id="linear-gradient-14" x1="803.26" y1="109.87" x2="737.36" y2="-249.14" xlink:href="#linear-gradient-3"/><linearGradient id="linear-gradient-15" x1="287.59" y1="18.8" x2="438.62" y2="18.8" gradientTransform="scale(1 0.96)" xlink:href="#linear-gradient"/><linearGradient id="linear-gradient-16" x1="369.59" y1="50.77" x2="303.69" y2="-308.24" xlink:href="#linear-gradient-3"/><linearGradient id="linear-gradient-17" x1="290.82" y1="52.12" x2="224.92" y2="-306.89" xlink:href="#linear-gradient-3"/><linearGradient id="linear-gradient-18" x1="293.15" y1="64.8" x2="227.25" y2="-294.21" xlink:href="#linear-gradient-3"/><linearGradient id="linear-gradient-19" x1="440.01" y1="29.76" x2="693.71" y2="29.76" gradientTransform="scale(1 0.96)" xlink:href="#linear-gradient"/><linearGradient id="linear-gradient-20" x1="580.74" y1="75.78" x2="514.84" y2="-283.23" xlink:href="#linear-gradient-3"/><linearGradient id="linear-gradient-21" x1="693.52" y1="0.16" x2="693.99" y2="0.16" gradientTransform="scale(1 0.96)" xlink:href="#linear-gradient"/><linearGradient id="linear-gradient-22" x1="716.84" y1="125.73" x2="650.94" y2="-233.28" xlink:href="#linear-gradient-3"/><linearGradient id="linear-gradient-23" x1="703.53" y1="53.24" x2="637.63" y2="-305.77" xlink:href="#linear-gradient-3"/></defs><title>Artboard 1</title><path class="cls-1" d="M800,301.11v-11.4a170,170,0,0,1-6.18-213.79A170.42,170.42,0,0,1,693.71.32,169.56,169.56,0,0,1,567,57,169.53,169.53,0,0,1,440,0h-1.39A169.29,169.29,0,0,1,334,36a170,170,0,0,1-46.41-6.42A169.27,169.27,0,0,1,219,44,169.34,169.34,0,0,1,107.42,2.25,170.39,170.39,0,0,1,0,87.51V400H694.06A170.49,170.49,0,0,1,800,301.11Z"/><path class="cls-2" d="M107.42,2.25c-.85-.74-1.7-1.49-2.54-2.25H0V87.51A170.39,170.39,0,0,0,107.42,2.25Z"/><path class="cls-3" d="M107.42,2.25c-.85-.74-1.7-1.49-2.54-2.25H0V87.51A170.39,170.39,0,0,0,107.42,2.25Z"/><path class="cls-4" d="M108.6,0c-.39.76-.78,1.5-1.18,2.25A169.34,169.34,0,0,0,219,44a169.27,169.27,0,0,0,68.59-14.42A169.2,169.2,0,0,1,229.38,0Z"/><path class="cls-5" d="M108.6,0c-.39.76-.78,1.5-1.18,2.25A169.34,169.34,0,0,0,219,44a169.27,169.27,0,0,0,68.59-14.42A169.2,169.2,0,0,1,229.38,0Z"/><path class="cls-6" d="M104.88,0c.84.76,1.69,1.51,2.54,2.25.4-.75.79-1.49,1.18-2.25Z"/><path class="cls-7" d="M104.88,0c.84.76,1.69,1.51,2.54,2.25.4-.75.79-1.49,1.18-2.25Z"/><path class="cls-8" d="M104.88,0c.84.76,1.69,1.51,2.54,2.25.4-.75.79-1.49,1.18-2.25Z"/><path class="cls-9" d="M800,0H694l-.28.32a170.42,170.42,0,0,0,100.11,75.6q3-3.9,6.18-7.63Z"/><path class="cls-10" d="M800,0H694l-.28.32a170.42,170.42,0,0,0,100.11,75.6q3-3.9,6.18-7.63Z"/><path class="cls-11" d="M800,301.11A170.49,170.49,0,0,0,694.06,400H800Z"/><path class="cls-12" d="M800,301.11A170.49,170.49,0,0,0,694.06,400H800Z"/><path class="cls-13" d="M759,179a169.32,169.32,0,0,0,41,110.71V77.5c-2.08-.49-4.13-1-6.18-1.58A169.25,169.25,0,0,0,759,179Z"/><path class="cls-14" d="M793.82,75.92c2,.56,4.1,1.09,6.18,1.58V68.29Q796.81,72,793.82,75.92Z"/><path class="cls-15" d="M287.59,29.58A170,170,0,0,0,334,36,169.29,169.29,0,0,0,438.62,0H333.12A170,170,0,0,1,287.59,29.58Z"/><path class="cls-16" d="M287.59,29.58A170,170,0,0,0,334,36,169.29,169.29,0,0,0,438.62,0H333.12A170,170,0,0,1,287.59,29.58Z"/><path class="cls-17" d="M229.38,0a169.2,169.2,0,0,0,58.21,29.58A170,170,0,0,0,333.12,0Z"/><path class="cls-18" d="M229.38,0a169.2,169.2,0,0,0,58.21,29.58A170,170,0,0,0,333.12,0Z"/><path class="cls-19" d="M440,0A169.53,169.53,0,0,0,567,57,169.56,169.56,0,0,0,693.71.32L693.52,0Z"/><path class="cls-20" d="M440,0A169.53,169.53,0,0,0,567,57,169.56,169.56,0,0,0,693.71.32L693.52,0Z"/><path class="cls-21" d="M693.52,0l.19.32L694,0Z"/><path class="cls-22" d="M693.52,0l.19.32L694,0Z"/><path class="cls-23" d="M693.52,0l.19.32L694,0Z"/></svg>