<svg fill="white" height="512pt" viewBox="0 0 512 512" width="512pt" xmlns="http://www.w3.org/2000/svg"><path d="m467 0h-422c-24.8125 0-45 20.1875-45 45v75h512v-75c0-24.8125-20.1875-45-45-45zm-392.027344 90c-8.285156 0-15-6.714844-15-15s6.714844-15 15-15 15 6.714844 15 15-6.714844 15-15 15zm61 0c-8.285156 0-15-6.714844-15-15s6.714844-15 15-15 15 6.714844 15 15-6.714844 15-15 15zm61 0c-8.285156 0-15-6.714844-15-15s6.714844-15 15-15 15 6.714844 15 15-6.714844 15-15 15zm240.027344 0h-150c-8.289062 0-15-6.710938-15-15s6.710938-15 15-15h150c8.289062 0 15 6.710938 15 15s-6.710938 15-15 15zm0 0"/><path d="m332.777344 321.746094c-1.539063-4.570313-.761719-9.609375 2.050781-13.519532 2.824219-3.914062 7.351563-6.226562 12.171875-6.226562h26.277344c12.277344-24.054688 18.722656-50.828125 18.722656-77.972656v-7.707032c-70.53125 22.265626-120 88.375-120 163.652344v7.734375c25.984375-8.144531 49.453125-22.265625 68.921875-41.515625zm0 0"/><path d="m0 467c0 24.8125 20.1875 45 45 45h422c24.8125 0 45-20.1875 45-45v-317h-512zm75-45h167v-42.027344c0-95.753906 68.160156-178.898437 162.054688-197.679687 4.484374-.835938 8.996093.265625 12.453124 3.105469 3.472657 2.855468 5.492188 7.105468 5.492188 11.601562v27.027344c0 35.257812-9.273438 69.988281-26.792969 100.457031-2.679687 4.644531-7.644531 7.515625-13.007812 7.515625h-14.382813l4.421875 13.300781c1.730469 5.171875.515625 10.855469-3.164062 14.867188-26.246094 28.691406-59.75 48.25-97.074219 58.128906v18.703125c0 8.289062-6.710938 15-15 15h-182c-8.289062 0-15-6.710938-15-15s6.710938-15 15-15zm0 0"/></svg>