<svg height="512pt" viewBox="0 -10 512 511" width="512pt" xmlns="http://www.w3.org/2000/svg"><path d="m452 .5h-392c-33.085938 0-60 26.914062-60 60v332c0 44.113281 35.886719 80 80 80h226c11.046875 0 20-8.953125 20-20s-8.953125-20-20-20h-226c-22.054688 0-40-17.945312-40-40v-271h432v184c0 11.046875 8.953125 20 20 20s20-8.953125 20-20v-245c0-33.085938-26.914062-60-60-60zm-81 40c11.027344 0 20 8.972656 20 20s-8.972656 20-20 20-20-8.972656-20-20 8.972656-20 20-20zm100 20c0 11.027344-8.972656 20-20 20s-20-8.972656-20-20 8.972656-20 20-20 20 8.972656 20 20zm-431 0c0-11.027344 8.972656-20 20-20h254.441406c-2.222656 6.261719-3.441406 12.988281-3.441406 20 0 7.386719 1.347656 14.460938 3.800781 21h-274.800781zm344.882812 219.785156c-2.328124-2.332031-5.195312-4.054687-8.347656-5.011718l-78.722656-23.910157c-6.980469-2.121093-14.558594-.273437-19.78125 4.820313-5.21875 5.09375-7.253906 12.625-5.304688 19.65625l22.359376 80.722656c.921874 3.324219 2.683593 6.351562 5.121093 8.789062l109.367188 109.574219c11.695312 11.695313 27.0625 17.546875 42.425781 17.546875s30.726562-5.851562 42.425781-17.546875c23.394531-23.394531 23.394531-61.457031.015625-84.835937zm-63.902343 19.917969 39.128906 11.886719 73.925781 74.089844-28.289062 28.289062-73.515625-73.652344zm145.160156 146.4375c-7.796875 7.800781-20.484375 7.800781-28.269531.015625l-3.867188-3.875 28.285156-28.285156 3.855469 3.863281c7.796875 7.796875 7.796875 20.484375-.003906 28.28125zm0 0"/></svg>