<svg width="36" height="36" viewBox="0 0 36 36" fill="none" xmlns="http://www.w3.org/2000/svg">
<path d="M0 18C0 13.0312 1.75781 8.78905 5.27347 5.27343C8.78905 1.75781 13.0312 0 18 0C22.9687 0 27.2109 1.75781 30.7266 5.27343C34.2422 8.78905 36 13.0312 36 18C36 22.9687 34.2422 27.2109 30.7266 30.7265C27.2109 34.2422 22.9688 36 18 36C13.0312 36 8.78905 34.2422 5.27347 30.7265C1.75781 27.2109 0 22.9687 0 18ZM1.96875 18C1.96875 22.4063 3.53906 26.1797 6.67968 29.3203C9.8203 32.4609 13.5937 34.0312 18 34.0312C22.4063 34.0312 26.1797 32.4609 29.3203 29.3203C32.4609 26.1797 34.0312 22.4063 34.0312 18C34.0312 13.5937 32.461 9.8203 29.3203 6.67968C26.1797 3.53906 22.4062 1.96875 18 1.96875C13.5937 1.96875 9.82034 3.53906 6.67968 6.67968C3.53906 9.8203 1.96875 13.5937 1.96875 18ZM7.03128 21.8672C6.93753 21.7734 6.93753 21.6797 7.03128 21.5859C7.21874 21.3984 7.45315 21.3281 7.73437 21.375C8.01562 21.4219 8.17968 21.4687 8.22655 21.5156C8.55468 21.6562 8.91798 21.9726 9.31638 22.4648C9.71478 22.957 10.0312 23.2969 10.2656 23.4844C11.3906 24.4219 12.539 24.4922 13.7109 23.6953C13.8046 23.3672 13.957 23.0859 14.1679 22.8515C14.3788 22.6171 14.5781 22.4531 14.7656 22.3593C14.9531 22.2656 15.2812 22.1249 15.75 21.9374C14.2031 21.7968 12.9492 21.5273 11.9883 21.1288C11.0273 20.7304 10.2656 20.2265 9.70308 19.6171C8.95308 18.7734 8.49603 17.6718 8.33197 16.3124C8.16787 14.9531 8.27336 13.7109 8.64839 12.5859C8.92964 11.8828 9.32808 11.25 9.84367 10.6875C9.46867 9.51558 9.53898 8.17964 10.0546 6.67964C11.5546 6.77339 12.914 7.28902 14.1327 8.22652C16.4765 7.61714 18.914 7.59371 21.4452 8.15621C21.7733 7.92183 22.2772 7.62888 22.9569 7.27728C23.6366 6.92572 24.4921 6.72648 25.5233 6.67961C25.7108 7.19523 25.8397 7.80461 25.91 8.50773C25.9804 9.21086 25.9452 9.86711 25.8046 10.4765C26.8827 11.6015 27.4452 13.1015 27.4921 14.9765C27.4921 16.4765 27.2343 17.7187 26.7187 18.703C26.203 19.6874 25.289 20.5077 23.9765 21.1639C23.0858 21.5858 21.914 21.8436 20.4608 21.9374C21.1171 22.2655 21.5976 22.6054 21.9023 22.9569C22.207 23.3085 22.4062 23.8592 22.5 24.6092V26.8241L22.5703 28.9686C22.7109 29.2031 22.875 29.4023 23.0625 29.5664C23.25 29.7304 23.414 29.8476 23.5547 29.9179C23.6953 29.9882 23.7422 30.0937 23.6953 30.2343C23.6484 30.375 23.4609 30.4453 23.1328 30.4453C22.3359 30.4453 21.7031 30.164 21.2344 29.6015C21.0937 29.3671 21.0234 29.0859 21.0234 28.7577V25.3827C21.0234 25.0077 20.9297 24.7382 20.7422 24.5741C20.5547 24.41 20.3672 24.3046 20.1797 24.2577V28.6874C20.1797 29.4843 20.2734 29.9999 20.4609 30.2343C20.6484 30.4686 20.7656 30.7031 20.8125 30.9374C20.8594 30.9843 20.8242 31.0194 20.707 31.0428C20.5899 31.0662 20.3906 31.0311 20.1094 30.9374C19.5 30.7968 19.0781 30.4803 18.8437 29.9882C18.6094 29.496 18.4922 28.9686 18.4922 28.4061V24.0469H17.5781V28.4062C17.5781 28.9687 17.4609 29.5078 17.2265 30.0234C16.8984 30.6797 16.289 31.0312 15.3984 31.0781C15.2578 31.0312 15.1875 30.9843 15.1875 30.9375C15.2344 30.8906 15.375 30.6563 15.6094 30.2344C15.6562 30.1406 15.7148 29.9531 15.7852 29.6719C15.8555 29.3906 15.8906 29.0625 15.8906 28.6875V24.2578C15.7031 24.3047 15.5273 24.4101 15.3633 24.5742C15.1992 24.7383 15.1172 25.0078 15.1172 25.3828V28.7578C15.1172 29.0859 15.0469 29.3672 14.9062 29.6016C14.4844 30.1641 13.8515 30.4454 13.0078 30.4454C12.6797 30.4454 12.4922 30.375 12.4453 30.2344C12.3984 30.1407 12.4102 30.0586 12.4805 29.9883C12.5509 29.918 12.6563 29.8359 12.7969 29.7422C12.9376 29.6484 13.0313 29.5781 13.0782 29.5313C13.2657 29.3906 13.4063 29.2031 13.5001 28.9688C13.6407 28.7813 13.6758 28.2891 13.6055 27.4922C13.5352 26.6953 13.5235 26.1797 13.5703 25.9453C12.3515 26.3672 11.1094 26.1562 9.84374 25.3125C9.46874 24.9375 9.09374 24.3984 8.71874 23.6953C8.43749 23.1797 7.87499 22.5703 7.03128 21.8672Z" fill="black"/>
</svg>
