<svg width="36" height="40" viewBox="0 0 36 40" fill="none" xmlns="http://www.w3.org/2000/svg">
<path d="M35.1585 9.92359C34.0351 7.98918 20.2445 0 17.9986 0C15.7533 0 1.9573 7.96916 0.840249 9.92359C-0.276974 11.878 -0.283187 27.8169 0.840249 29.7715C1.9636 31.7251 15.7549 39.6942 17.9986 39.6942C20.2422 39.6942 34.0352 31.7151 35.1578 29.7707C36.2802 27.8263 36.281 11.8579 35.1585 9.92359ZM22.6478 32.1135C22.3407 32.1135 19.4761 29.3403 19.7017 29.1138C19.7691 29.0465 20.1871 28.9992 21.0624 28.972C21.0624 26.9386 21.1081 23.6545 21.1352 22.2797C21.1385 22.1232 21.1011 22.0139 21.1011 21.8262H14.9043C14.9043 22.3766 14.8687 24.6327 15.0106 27.4765C15.0283 27.8284 14.8881 27.9384 14.5655 27.9369C13.7801 27.9347 12.9941 27.9283 12.2079 27.9308C11.8901 27.9315 11.7528 27.8122 11.7629 27.4572C11.8342 24.8647 11.9925 20.9432 11.7514 10.9694V10.7235C11.0017 10.6964 10.4814 10.6491 10.4131 10.581C10.1867 10.3545 13.091 7.58145 13.3972 7.58145C13.7042 7.58145 16.5891 10.3553 16.3642 10.581C16.2967 10.6484 15.7517 10.6964 15.064 10.7235V10.9686C14.8764 12.9649 14.9067 17.139 14.8602 19.1392H21.0825C21.0825 18.7864 21.1128 16.4459 20.9895 12.6548C20.9817 12.3919 21.0631 12.2539 21.3158 12.2517C22.174 12.2454 23.033 12.2416 23.892 12.2469C24.1602 12.2486 24.2463 12.3803 24.2409 12.664C23.9579 27.4943 24.1897 26.4593 24.1897 28.9711C24.8774 28.9983 25.4937 29.0456 25.5613 29.1139C25.7846 29.3396 22.9548 32.1135 22.6478 32.1135Z" fill="#2EC866"/>
</svg>
