<svg width="27" height="36" viewBox="0 0 27 36" fill="none" xmlns="http://www.w3.org/2000/svg">
<path d="M8.51432 27.8409C8.51432 27.8409 7.14453 28.6409 9.4892 28.9116C12.3298 29.237 13.7815 29.1904 16.9118 28.5953C16.9118 28.5953 17.7348 29.1136 18.8841 29.5625C11.8669 32.5828 3.00256 29.3875 8.51432 27.8409ZM7.65682 23.8994C7.65682 23.8994 6.12045 25.0416 8.46689 25.2853C11.5012 25.5997 13.8975 25.6254 18.044 24.8235C18.044 24.8235 18.6176 25.4075 19.5194 25.7268C11.035 28.2184 1.58502 25.9233 7.65682 23.8994Z" fill="#5382A1"/>
<path d="M14.886 17.2135C16.6151 19.2127 14.4317 21.0118 14.4317 21.0118C14.4317 21.0118 18.822 18.7356 16.8057 15.8853C14.9226 13.2274 13.4784 11.9065 21.2964 7.353C21.2964 7.353 9.02476 10.4311 14.886 17.2135Z" fill="#E76F00"/>
<path d="M24.1667 30.7562C24.1667 30.7562 25.1804 31.5949 23.0503 32.2439C18.9999 33.4762 6.1918 33.8483 2.63374 32.293C1.35477 31.7343 3.7533 30.9588 4.50774 30.796C5.29456 30.6246 5.74427 30.6566 5.74427 30.6566C4.32185 29.6502 -3.44958 32.6326 1.7968 33.4865C16.1043 35.8168 27.8779 32.4373 24.1667 30.7562ZM9.17311 19.8157C9.17311 19.8157 2.65824 21.3698 6.86611 21.934C8.64275 22.1729 12.1845 22.1189 15.4836 21.8412C18.1798 21.613 20.8871 21.1272 20.8871 21.1272C20.8871 21.1272 19.9364 21.5361 19.2486 22.0078C12.6328 23.7553 -0.147877 22.9424 3.53151 21.1549C6.64318 19.6443 9.17311 19.8157 9.17311 19.8157ZM20.8603 26.3763C27.5857 22.8666 24.4761 19.4938 22.3057 19.9483C21.7737 20.0594 21.5365 20.1557 21.5365 20.1557C21.5365 20.1557 21.734 19.8451 22.1112 19.7106C26.4049 18.1946 29.7071 24.1819 20.7251 26.5532C20.7251 26.5533 20.8292 26.4599 20.8603 26.3763Z" fill="#5382A1"/>
<path d="M16.8055 0.000104231C16.8055 0.000104231 20.5301 3.74206 13.2729 9.49581C7.45338 14.1114 11.9458 16.7431 13.2705 19.7499C9.8735 16.6719 7.38052 13.9623 9.05306 11.4405C11.5077 7.73845 18.3082 5.94377 16.8055 0.000104231Z" fill="#E76F00"/>
<path d="M9.83422 35.8868C16.2897 36.3019 26.2028 35.6566 26.4376 32.5889C26.4376 32.5889 25.9863 33.7519 21.1025 34.6754C15.5926 35.7167 8.79696 35.5952 4.76636 34.9278C4.76646 34.9278 5.59137 35.6136 9.83422 35.8868Z" fill="#5382A1"/>
</svg>
