<svg width="36" height="36" viewBox="0 0 36 36" fill="none" xmlns="http://www.w3.org/2000/svg">
<path d="M0 0H36V36H0V0Z" fill="#F0DB4F"/>
<path d="M33.0535 27.4141C32.7901 25.7715 31.7189 24.3924 28.5467 23.1057C27.4448 22.5992 26.2163 22.2365 25.8501 21.4015C25.7201 20.9156 25.703 20.6418 25.7851 20.3475C26.0212 19.3928 27.1608 19.0951 28.0642 19.3688C28.6459 19.5639 29.1969 20.0122 29.5288 20.7274C31.0824 19.7213 31.079 19.7281 32.1638 19.0369C31.7669 18.4209 31.5547 18.1369 31.2946 17.8734C30.3604 16.8297 29.0874 16.2924 27.0513 16.3335C26.6988 16.378 26.3429 16.4259 25.9904 16.4704C24.9741 16.727 24.0056 17.2609 23.4376 17.9761C21.7334 19.9095 22.2193 23.2939 24.2931 24.6867C26.3361 26.2198 29.3372 26.5689 29.7205 28.0027C30.0935 29.7582 28.4304 30.3262 26.7775 30.1244C25.5593 29.8711 24.8817 29.2517 24.1494 28.1259C22.8011 28.9061 22.8011 28.9061 21.4152 29.7035C21.7437 30.4221 22.0893 30.7472 22.6403 31.37C25.2479 34.0152 31.7737 33.8852 32.9441 29.8814C32.992 29.7445 33.3068 28.8274 33.0535 27.4141ZM19.5707 16.5456H16.2034C16.2034 19.4544 16.1897 22.3426 16.1897 25.2513C16.1897 27.1027 16.2855 28.8 15.9844 29.3201C15.4916 30.3433 14.2152 30.2167 13.6334 30.0182C13.0414 29.7273 12.7403 29.3133 12.3912 28.7281C12.2954 28.5605 12.2235 28.4304 12.1996 28.4201C11.2859 28.9779 10.3756 29.5391 9.46191 30.097C9.91708 31.0312 10.5878 31.8422 11.4467 32.3692C12.73 33.1391 14.4547 33.3752 16.2581 32.9612C17.4319 32.619 18.4448 31.9106 18.9752 30.8327C19.7418 29.4194 19.5775 27.7084 19.5707 25.816C19.5878 22.7293 19.5707 19.6426 19.5707 16.5456Z" fill="#323330"/>
</svg>
