<svg width="36" height="36" viewBox="0 0 36 36" fill="none" xmlns="http://www.w3.org/2000/svg">
<path d="M11.4941 34.4972C10.6561 34.4972 9.86469 34.1248 9.32927 33.4497L1.18237 23.324C0.646947 22.649 0.437514 21.7878 0.646947 20.9497L3.5566 8.3101C3.74278 7.47208 4.30146 6.79699 5.06971 6.42463L16.848 0.791359C17.2205 0.605321 17.6395 0.512161 18.0585 0.512161C18.4775 0.512161 18.8964 0.60518 19.2689 0.7915L31.0473 6.40138C31.8154 6.77374 32.3741 7.44883 32.5603 8.28684L35.47 20.9264C35.6563 21.7644 35.47 22.6257 34.9347 23.3008L26.7875 33.4264C26.2521 34.0781 25.4607 34.4739 24.6227 34.4739L11.4944 34.4972H11.4941Z" fill="#326DE6"/>
<path d="M18.0348 1.0941C18.3608 1.0941 18.6867 1.16386 18.9893 1.30353L30.7677 6.91341C31.3729 7.21601 31.8384 7.77468 31.9781 8.42652L34.8878 21.0661C35.0507 21.7412 34.8878 22.4395 34.4455 22.9748L26.2984 33.1006C25.8794 33.6359 25.2276 33.9385 24.5527 33.9385H11.4939C10.8188 33.9385 10.1671 33.6359 9.74814 33.1006L1.6011 22.9748C1.18209 22.4395 1.01903 21.7412 1.15884 21.0661L4.0685 8.42652C4.23142 7.75143 4.67368 7.19275 5.27887 6.91341L17.0574 1.28042C17.36 1.164 17.7091 1.09424 18.035 1.09424L18.0348 1.0941ZM18.0348 0C17.5461 0 17.0573 0.116414 16.5916 0.325848L4.81335 5.95912C3.88218 6.40139 3.23048 7.21601 2.99765 8.21695L0.0879941 20.8567C-0.144694 21.8576 0.0879942 22.8818 0.739831 23.6965L8.88687 33.8222C9.51545 34.6136 10.4697 35.0558 11.4707 35.0558H24.5293C25.5302 35.0558 26.4846 34.6136 27.1131 33.8222L35.2602 23.6964C35.9119 22.905 36.1448 21.8576 35.9119 20.8565L33.0023 8.21695C32.7696 7.21601 32.1178 6.40139 31.1867 5.95912L19.4548 0.325707C19.0125 0.116414 18.5238 0 18.0348 0Z" fill="white"/>
<path d="M29.8366 20.0651C29.8133 20.0651 29.8133 20.0651 29.8366 20.0651H29.8133C29.7901 20.0651 29.7668 20.0651 29.7668 20.0419C29.7203 20.0419 29.6738 20.0186 29.6271 20.0186C29.4642 19.9954 29.3246 19.9721 29.1849 19.9721C29.115 19.9721 29.0452 19.9721 28.9521 19.9487H28.9288C28.44 19.9022 28.0443 19.8557 27.6718 19.7393C27.5089 19.6694 27.4623 19.5764 27.4157 19.4832C27.4157 19.46 27.3924 19.46 27.3924 19.4367L27.0898 19.3437C27.2328 18.2487 27.1776 17.1369 26.9269 16.0614C26.6728 14.977 26.2317 13.9451 25.6234 13.0121L25.8562 12.8026V12.7561C25.8562 12.6397 25.8795 12.5233 25.9725 12.4069C26.2518 12.1508 26.6011 11.9414 27.0201 11.6853C27.0898 11.6388 27.1596 11.6155 27.2295 11.5689C27.3692 11.4991 27.4856 11.4293 27.6253 11.3362C27.6485 11.3129 27.695 11.2897 27.7417 11.2432C27.7649 11.2198 27.7882 11.2198 27.7882 11.1965C28.114 10.9172 28.1839 10.4516 27.9511 10.1489C27.8347 9.98599 27.6253 9.89297 27.4157 9.89297C27.2297 9.89297 27.0666 9.96274 26.9037 10.0792L26.8572 10.1257C26.8106 10.1489 26.7873 10.1956 26.7407 10.2188C26.6243 10.3352 26.5312 10.4283 26.4382 10.5447C26.3916 10.5912 26.3451 10.6611 26.2752 10.7076C25.9492 11.0568 25.6466 11.3362 25.3441 11.5456C25.2743 11.5921 25.2045 11.6155 25.1346 11.6155C25.0881 11.6155 25.0415 11.6155 24.995 11.5921H24.9484L24.669 11.7784C24.3664 11.4526 24.0405 11.1732 23.7147 10.8939C22.3116 9.79715 20.6229 9.12652 18.8496 8.9618L18.8264 8.6592L18.7799 8.61269C18.71 8.54279 18.617 8.47303 18.5936 8.3101C18.5703 7.9376 18.617 7.5186 18.6635 7.05308V7.02982C18.6635 6.95992 18.6867 6.8669 18.71 6.79699C18.7332 6.65747 18.7565 6.51766 18.7799 6.35473V6.1453C18.7799 5.72629 18.4539 5.37719 18.0583 5.37719C17.872 5.37719 17.6858 5.47021 17.5461 5.60988C17.4066 5.74955 17.3367 5.93573 17.3367 6.1453V6.33148C17.3367 6.4944 17.3599 6.63407 17.4064 6.77374C17.4297 6.84365 17.4297 6.91341 17.453 7.00657V7.02982C17.4995 7.49534 17.5694 7.91435 17.5229 8.28685C17.4996 8.44977 17.4064 8.51953 17.3367 8.58944L17.2902 8.63595L17.2668 8.93854C16.8478 8.98505 16.4288 9.03156 16.0098 9.12472C14.2175 9.52047 12.6346 10.4284 11.401 11.7318L11.1681 11.5689H11.1216C11.0751 11.5689 11.0285 11.5921 10.9819 11.5921C10.912 11.5921 10.8423 11.5689 10.7724 11.5224C10.4698 11.3129 10.1672 11.0102 9.84134 10.6611C9.79483 10.6146 9.74832 10.5447 9.67842 10.4982C9.58526 10.3817 9.4921 10.2886 9.37568 10.1723C9.35243 10.1489 9.30592 10.1258 9.25941 10.0792C9.23615 10.0559 9.2129 10.0559 9.2129 10.0326C9.06868 9.91349 8.8878 9.84769 8.70073 9.84632C8.49116 9.84632 8.28172 9.93948 8.16531 10.1024C7.93248 10.405 8.00239 10.8705 8.32823 11.1499C8.35149 11.1499 8.35149 11.1732 8.37474 11.1732C8.42125 11.1965 8.44465 11.243 8.49116 11.2663C8.63083 11.3593 8.74724 11.4292 8.88691 11.4991C8.95682 11.5224 9.02658 11.5689 9.09648 11.6155C9.51535 11.8715 9.86459 12.081 10.1439 12.3371C10.2603 12.4534 10.2603 12.5698 10.2603 12.6862V12.7327L10.493 12.9423C10.4465 13.0121 10.4 13.0587 10.3766 13.1285C9.21276 14.9674 8.7705 17.1322 9.07309 19.2738L8.7705 19.3668C8.7705 19.3902 8.74724 19.3902 8.74724 19.4133C8.70073 19.5065 8.63083 19.5996 8.49116 19.6694C8.14205 19.7858 7.72305 19.8325 7.23428 19.879H7.21088C7.14112 19.879 7.04796 19.879 6.97819 19.9022C6.83852 19.9022 6.69885 19.9255 6.53593 19.9487C6.48942 19.9487 6.44291 19.9721 6.39626 19.9721C6.37301 19.9721 6.34975 19.9721 6.32636 19.9954C5.90735 20.0884 5.65126 20.4842 5.72117 20.8565C5.79107 21.1825 6.09367 21.3921 6.46602 21.3921C6.53593 21.3921 6.58244 21.3921 6.65234 21.3687C6.6756 21.3687 6.69885 21.3687 6.69885 21.3454C6.74536 21.3454 6.79187 21.3222 6.83838 21.3222C7.00145 21.2757 7.11786 21.2291 7.25753 21.1592C7.32729 21.136 7.39706 21.0893 7.46696 21.0662H7.49022C7.93248 20.9032 8.32823 20.7635 8.70073 20.717H8.74724C8.88691 20.717 8.98007 20.7867 9.04983 20.8334C9.07309 20.8334 9.07309 20.8566 9.09634 20.8566L9.42233 20.8101C9.98101 22.5325 11.0517 24.0689 12.4717 25.1863C12.7975 25.4422 13.1234 25.6518 13.4726 25.8613L13.3329 26.1638C13.3329 26.1872 13.3562 26.1872 13.3562 26.2103C13.4027 26.3035 13.4492 26.4199 13.4027 26.5828C13.2632 26.932 13.0536 27.2812 12.7975 27.6769V27.7002C12.751 27.7701 12.7045 27.8166 12.658 27.8863C12.5648 28.0028 12.4949 28.1192 12.4018 28.2588C12.3785 28.2821 12.3552 28.3286 12.332 28.3752C12.332 28.3985 12.3087 28.4218 12.3087 28.4218C12.1226 28.8175 12.2622 29.2598 12.6113 29.4227C12.7043 29.4692 12.7975 29.4926 12.8907 29.4926C13.17 29.4926 13.4493 29.3063 13.589 29.0502C13.589 29.0269 13.6123 29.0037 13.6123 29.0037C13.6355 28.9572 13.6588 28.9107 13.682 28.8873C13.7519 28.7244 13.7752 28.6079 13.8217 28.4683L13.8916 28.2588C14.0545 27.7933 14.1709 27.4208 14.3804 27.095C14.4734 26.9553 14.59 26.9321 14.683 26.8854C14.7062 26.8854 14.7062 26.8854 14.7295 26.8621L14.8925 26.5595C15.9167 26.9553 17.0341 27.1647 18.1513 27.1647C18.8264 27.1647 19.5247 27.095 20.1766 26.932C20.5868 26.8403 20.991 26.7237 21.387 26.5828L21.5265 26.8389C21.5499 26.8389 21.5499 26.8389 21.5731 26.8621C21.6895 26.8854 21.7826 26.932 21.8757 27.0717C22.0619 27.3976 22.2016 27.7933 22.3645 28.2356V28.2588L22.4344 28.4683C22.4809 28.6079 22.5042 28.7476 22.5739 28.8873C22.5973 28.9338 22.6206 28.9572 22.6438 29.0037C22.6438 29.0269 22.6672 29.0502 22.6672 29.0502C22.8068 29.3295 23.0861 29.4926 23.3654 29.4926C23.4586 29.4926 23.5518 29.4692 23.6448 29.4227C23.8077 29.3297 23.9474 29.1899 23.994 29.0037C24.0405 28.8175 24.0405 28.6079 23.9475 28.4218C23.9475 28.3985 23.9241 28.3985 23.9241 28.3752C23.9009 28.3287 23.8776 28.2822 23.8543 28.2588C23.7844 28.1192 23.6914 28.0028 23.5983 27.8863C23.5518 27.8166 23.5052 27.7701 23.4587 27.7003V27.6769C23.2025 27.2812 22.9697 26.932 22.8534 26.5828C22.8069 26.4199 22.8534 26.3269 22.8767 26.2104C22.8767 26.1872 22.8999 26.1872 22.8999 26.1639L22.7835 25.8846C24.0173 25.163 25.0647 24.1387 25.8562 22.8818C26.2752 22.2299 26.6011 21.5083 26.8338 20.7867L27.1131 20.8333C27.1365 20.8333 27.1365 20.81 27.1596 20.81C27.2528 20.7635 27.3227 20.6937 27.4623 20.6937H27.5089C27.8814 20.7402 28.277 20.8798 28.7194 21.0428H28.7426C28.8124 21.0661 28.8822 21.1126 28.9521 21.1358C29.0917 21.2058 29.2081 21.2523 29.3711 21.2989C29.4176 21.2989 29.4641 21.3222 29.5107 21.3222C29.534 21.3222 29.5572 21.3222 29.5805 21.3454C29.6504 21.3687 29.6969 21.3687 29.7668 21.3687C30.1159 21.3687 30.4185 21.136 30.5117 20.8334C30.5117 20.5541 30.2556 20.1814 29.8366 20.0651ZM19.0591 18.9245L18.0349 19.4134L17.0107 18.9245L16.7548 17.8306L17.453 16.9461H18.5936L19.2919 17.8306L19.0591 18.9245ZM25.1346 16.5038C25.3152 17.2735 25.3702 18.0674 25.2975 18.8546L21.7361 17.8306C21.4102 17.7376 21.224 17.4116 21.2938 17.0857C21.317 16.9926 21.3637 16.8994 21.4335 16.8296L24.2501 14.2923C24.6457 14.9442 24.9483 15.6892 25.1346 16.5038ZM23.1327 12.8958L20.0834 15.0606C19.8273 15.2235 19.4781 15.1769 19.2687 14.9209C19.1989 14.851 19.1756 14.7579 19.1522 14.6648L18.9428 10.8705C20.5281 11.0531 22.0049 11.7669 23.1327 12.8958ZM16.3823 10.9868C16.6383 10.9403 16.871 10.8938 17.1271 10.8473L16.9177 14.5715C16.8944 14.8974 16.6383 15.1767 16.2891 15.1767C16.1961 15.1767 16.0797 15.1535 16.0098 15.107L12.9139 12.8958C13.8684 11.9414 15.0555 11.2894 16.3823 10.9868ZM11.7966 14.2922L14.5666 16.7596C14.8226 16.9692 14.8459 17.3648 14.6365 17.6209C14.5666 17.7139 14.4735 17.7838 14.3571 17.8072L10.7491 18.8546C10.6094 17.2718 10.9586 15.6656 11.7966 14.2922ZM11.168 20.6004L14.8693 19.9718C15.1719 19.9486 15.4512 20.1582 15.521 20.4608C15.5442 20.6003 15.5442 20.7168 15.4977 20.8333L14.0778 24.2549C12.7743 23.4169 11.7267 22.1366 11.168 20.6004ZM19.6644 25.2326C19.129 25.349 18.5936 25.4188 18.0349 25.4188C17.2203 25.4188 16.4288 25.2793 15.6841 25.0464L17.5229 21.7178C17.709 21.5082 18.0116 21.4152 18.2677 21.5549C18.3764 21.6214 18.4712 21.7083 18.5471 21.8108L20.3394 25.0464C20.1299 25.1162 19.8972 25.1629 19.6644 25.2326ZM24.2034 21.9971C23.6215 22.9282 22.8533 23.673 21.9689 24.2549L20.5024 20.74C20.4325 20.4608 20.5489 20.1582 20.8283 20.0184C20.9213 19.9718 21.0377 19.9486 21.1541 19.9486L24.8785 20.5772C24.7389 21.0892 24.506 21.5549 24.2034 21.9971Z" fill="white"/>
</svg>
