<svg width="24" height="24" viewBox="0 0 24 24" fill="none" xmlns="http://www.w3.org/2000/svg">
<mask id="mask0_821_142" style="mask-type:alpha" maskUnits="userSpaceOnUse" x="0" y="0" width="24" height="24">
<rect width="24" height="24" fill="#D9D9D9"/>
</mask>
<g mask="url(#mask0_821_142)">
<path d="M12 21C9.5 21 7.375 20.125 5.625 18.375C3.875 16.625 3 14.5 3 12C3 9.5 3.875 7.375 5.625 5.625C7.375 3.875 9.5 3 12 3C12.2333 3 12.4627 3.00833 12.688 3.025C12.9127 3.04167 13.1333 3.06667 13.35 3.1C12.6667 3.58333 12.121 4.21233 11.713 4.987C11.3043 5.76233 11.1 6.6 11.1 7.5C11.1 9 11.625 10.275 12.675 11.325C13.725 12.375 15 12.9 16.5 12.9C17.4167 12.9 18.2583 12.6957 19.025 12.287C19.7917 11.879 20.4167 11.3333 20.9 10.65C20.9333 10.8667 20.9583 11.0873 20.975 11.312C20.9917 11.5373 21 11.7667 21 12C21 14.5 20.125 16.625 18.375 18.375C16.625 20.125 14.5 21 12 21Z" fill="#1C1B1F"/>
</g>
</svg>
