<?xml version="1.0" encoding="iso-8859-1"?>
<!-- Generator: Adobe Illustrator 19.0.0, SVG Export Plug-In . SVG Version: 6.00 Build 0)  -->
<svg fill="white" version="1.1" id="Capa_1" xmlns="http://www.w3.org/2000/svg" xmlns:xlink="http://www.w3.org/1999/xlink" x="0px" y="0px"
	 viewBox="0 0 512 512" style="enable-background:new 0 0 512 512;" xml:space="preserve">
<g>
	<g>
		<path d="M376.511,38.033h94.998c4.228,4.913,10.483,8.033,17.458,8.033c12.7,0,23.033-10.332,23.033-23.033
			C512,10.333,501.667,0,488.967,0c-6.975,0-13.23,3.12-17.458,8.033H277.311C274.801,3.26,269.801,0,264.033,0h-16.066
			c-5.768,0-10.768,3.26-13.278,8.033H40.491C36.264,3.12,30.008,0,23.033,0C15.677,0,9.12,3.471,4.901,8.856
			C1.835,12.768,0,17.688,0,23.033c0,12.701,10.333,23.033,23.033,23.033c6.975,0,13.23-3.12,17.458-8.033h94.998
			C113.495,49.798,93.116,64.878,74.98,83.015C26.629,131.365,0,195.652,0,264.033c0,8.285,6.716,15,15,15s15-6.715,15-15
			c0-117.621,90.324-214.526,205.251-225.038c2.649,4.241,7.347,7.071,12.716,7.071h16.066c5.369,0,10.066-2.83,12.716-7.071
			C391.676,49.507,482,146.412,482,264.033c0,8.285,6.716,15,15,15s15-6.715,15-15c0-68.381-26.629-132.668-74.98-181.019
			C418.884,64.878,398.505,49.798,376.511,38.033z"/>
	</g>
</g>
<g>
	<g>
		<path d="M412.745,318.211L271,122.604V375.11c4.913,4.227,8.033,10.482,8.033,17.457c0,12.701-10.333,23.033-23.033,23.033
			s-23.033-10.332-23.033-23.033c0-6.975,3.12-13.23,8.033-17.457V122.604L99.253,318.211c-2.813,3.883-3.602,8.877-2.119,13.438
			l55.232,169.986c2.008,6.182,7.768,10.365,14.266,10.365h178.735c6.499,0,12.258-4.184,14.266-10.365l55.232-169.986
			C416.347,327.088,415.56,322.094,412.745,318.211z"/>
	</g>
</g>
<g>
</g>
<g>
</g>
<g>
</g>
<g>
</g>
<g>
</g>
<g>
</g>
<g>
</g>
<g>
</g>
<g>
</g>
<g>
</g>
<g>
</g>
<g>
</g>
<g>
</g>
<g>
</g>
<g>
</g>
</svg>
