<svg fill="white" id="Layer_1" enable-background="new 0 0 496.016 496.016" height="512" viewBox="0 0 496.016 496.016" width="512" xmlns="http://www.w3.org/2000/svg"><path d="m173.028 366h-98c-14.011 0-21.531 17.086-11.31 27.31l98 98c10.08 10.077 27.31 2.887 27.31-11.31v-98c0-8.84-7.16-16-16-16zm216-366h-282c-26.51 0-48 21.49-48 48v288.47c0 8.86 7.2 16.03 16.07 16 14.72-.06 44.83.03 108.1.03 10.68 0 19.33 8.65 19.33 19.33 0 63.28.09 93.38.03 108.1-.03 8.87 7.14 16.07 16 16.07h170.47c26.51 0 48-21.49 48-48v-400c0-26.51-21.49-48-48-48zm-141.66 50.37c29.7 0 53.86 24.16 53.86 53.86 0 29.69-24.16 53.85-53.86 53.85-29.69 0-53.85-24.16-53.85-53.85 0-29.7 24.16-53.86 53.85-53.86zm-81.01 164.14c0-13.83 8.16-26.42 20.79-32.06 27.895-12.453 27.474-12.72 31.9-12.72h56.28c4.503 0 4.318.402 31.9 12.72 12.64 5.64 20.8 18.23 20.8 32.06v21.94c0 8.84-7.16 16-16 16h-129.67c-8.84 0-16-7.16-16-16zm171.67 206.49h-93c-8.84 0-16-7.16-16-16s7.16-16 16-16h93c8.84 0 16 7.16 16 16s-7.16 16-16 16zm0-92h-181c-8.84 0-16-7.16-16-16s7.16-16 16-16h181c8.84 0 16 7.16 16 16s-7.16 16-16 16z"/></svg>