<?xml version="1.0" encoding="utf-8"?>

<!-- Uploaded to: SVG Repo, www.svgrepo.com, Generator: SVG Repo Mixer Tools -->
<svg width="800px" height="800px" viewBox="0 0 32 32" xmlns="http://www.w3.org/2000/svg" xmlns:xlink="http://www.w3.org/1999/xlink">
  <defs>
    <clipPath id="clip-beer">
      <rect width="32" height="32"/>
    </clipPath>
  </defs>
  <g id="beer" clip-path="url(#clip-beer)">
    <g id="Group_2751" data-name="Group 2751" transform="translate(-156 -208)">
      <g id="Group_2697" data-name="Group 2697">
        <g id="Group_2696" data-name="Group 2696">
          <g id="Group_2695" data-name="Group 2695">
            <g id="Group_2694" data-name="Group 2694">
              <g id="Group_2693" data-name="Group 2693">
                <g id="Group_2692" data-name="Group 2692">
                  <g id="Group_2691" data-name="Group 2691">
                    <g id="Group_2690" data-name="Group 2690">
                      <path id="Path_3907" data-name="Path 3907" d="M178,212.154a5.6,5.6,0,0,0-5.357-4.06,5.543,5.543,0,0,0-5.318,3.882,5.03,5.03,0,0,0-4.167,1.658,3.414,3.414,0,0,0-2.7,3.349,3.456,3.456,0,0,0,2.977,3.408,4.845,4.845,0,0,0,2.338,1.28,4.9,4.9,0,0,0,5.469-2.579,5.521,5.521,0,0,0,4.025-.48A3.611,3.611,0,1,0,178,212.154Zm-.576,5.213a1.631,1.631,0,0,1-1.273-.613,1.006,1.006,0,0,0-1.352-.17,3.583,3.583,0,0,1-3.711.364,1,1,0,0,0-.839,0,.974.974,0,0,0-.535.649,2.98,2.98,0,0,1-3.508,2.161,2.936,2.936,0,0,1-1.574-.957.981.981,0,0,0-.74-.342,1.476,1.476,0,0,1-1.47-1.474,1.46,1.46,0,0,1,1.348-1.457.982.982,0,0,0,.707-.4,2.963,2.963,0,0,1,2.379-1.211c.091,0,.183,0,.275.013l.085.136a1.011,1.011,0,0,0,1.088.424.975.975,0,0,0,.725-.918,3.609,3.609,0,0,1,7.2-.287.988.988,0,0,0,.687.829,1.007,1.007,0,0,0,.666-.032,1.653,1.653,0,0,1,1.49,1.542,1.645,1.645,0,0,1-1.533,1.739Z" fill="#344952"/>
                    </g>
                  </g>
                </g>
              </g>
            </g>
          </g>
        </g>
      </g>
      <g id="Group_2737" data-name="Group 2737">
        <g id="Group_2710" data-name="Group 2710">
          <g id="Group_2709" data-name="Group 2709">
            <g id="Group_2708" data-name="Group 2708">
              <g id="Group_2707" data-name="Group 2707">
                <g id="Group_2706" data-name="Group 2706">
                  <g id="Group_2705" data-name="Group 2705">
                    <g id="Group_2704" data-name="Group 2704">
                      <g id="Group_2703" data-name="Group 2703">
                        <g id="Group_2702" data-name="Group 2702">
                          <g id="Group_2701" data-name="Group 2701">
                            <g id="Group_2700" data-name="Group 2700">
                              <g id="Group_2699" data-name="Group 2699">
                                <g id="Group_2698" data-name="Group 2698">
                                  <path id="Path_3908" data-name="Path 3908" d="M171.2,236.385a.492.492,0,0,1-.492-.492V221.582a.492.492,0,0,1,.983,0v14.311A.491.491,0,0,1,171.2,236.385Z" fill="#344952"/>
                                </g>
                              </g>
                            </g>
                          </g>
                        </g>
                      </g>
                    </g>
                  </g>
                </g>
              </g>
            </g>
          </g>
        </g>
        <g id="Group_2723" data-name="Group 2723">
          <g id="Group_2722" data-name="Group 2722">
            <g id="Group_2721" data-name="Group 2721">
              <g id="Group_2720" data-name="Group 2720">
                <g id="Group_2719" data-name="Group 2719">
                  <g id="Group_2718" data-name="Group 2718">
                    <g id="Group_2717" data-name="Group 2717">
                      <g id="Group_2716" data-name="Group 2716">
                        <g id="Group_2715" data-name="Group 2715">
                          <g id="Group_2714" data-name="Group 2714">
                            <g id="Group_2713" data-name="Group 2713">
                              <g id="Group_2712" data-name="Group 2712">
                                <g id="Group_2711" data-name="Group 2711">
                                  <path id="Path_3909" data-name="Path 3909" d="M174.9,234.6a.492.492,0,0,1-.492-.492V223.364a.492.492,0,0,1,.983,0v10.748A.491.491,0,0,1,174.9,234.6Z" fill="#344952"/>
                                </g>
                              </g>
                            </g>
                          </g>
                        </g>
                      </g>
                    </g>
                  </g>
                </g>
              </g>
            </g>
          </g>
        </g>
        <g id="Group_2736" data-name="Group 2736">
          <g id="Group_2735" data-name="Group 2735">
            <g id="Group_2734" data-name="Group 2734">
              <g id="Group_2733" data-name="Group 2733">
                <g id="Group_2732" data-name="Group 2732">
                  <g id="Group_2731" data-name="Group 2731">
                    <g id="Group_2730" data-name="Group 2730">
                      <g id="Group_2729" data-name="Group 2729">
                        <g id="Group_2728" data-name="Group 2728">
                          <g id="Group_2727" data-name="Group 2727">
                            <g id="Group_2726" data-name="Group 2726">
                              <g id="Group_2725" data-name="Group 2725">
                                <g id="Group_2724" data-name="Group 2724">
                                  <path id="Path_3910" data-name="Path 3910" d="M167.494,234.6a.492.492,0,0,1-.492-.492V223.364a.492.492,0,0,1,.983,0v10.748A.491.491,0,0,1,167.494,234.6Z" fill="#344952"/>
                                </g>
                              </g>
                            </g>
                          </g>
                        </g>
                      </g>
                    </g>
                  </g>
                </g>
              </g>
            </g>
          </g>
        </g>
      </g>
      <g id="Group_2750" data-name="Group 2750">
        <g id="Group_2749" data-name="Group 2749">
          <g id="Group_2748" data-name="Group 2748">
            <g id="Group_2747" data-name="Group 2747">
              <g id="Group_2746" data-name="Group 2746">
                <g id="Group_2745" data-name="Group 2745">
                  <g id="Group_2744" data-name="Group 2744">
                    <g id="Group_2743" data-name="Group 2743">
                      <g id="Group_2742" data-name="Group 2742">
                        <g id="Group_2741" data-name="Group 2741">
                          <g id="Group_2740" data-name="Group 2740">
                            <g id="Group_2739" data-name="Group 2739">
                              <g id="Group_2738" data-name="Group 2738">
                                <path id="Path_3911" data-name="Path 3911" d="M179.629,220.631v-2.722a3.081,3.081,0,0,1-1.966.917v13.083a35,35,0,0,0,.42,6.031H164.315a35.132,35.132,0,0,0,.419-6.031V220.753a4.476,4.476,0,0,1-1.076-.831,2.888,2.888,0,0,1-.889-.227v12.214c0,4.874-.614,6.66-.618,6.668a.985.985,0,0,0,.921,1.329h16.273a.982.982,0,0,0,.982-.983.964.964,0,0,0-.119-.469,19.009,19.009,0,0,1-.494-3.658c1.932-.424,3.832-1.639,3.832-3.921v-6.3C183.546,222.249,181.6,221.037,179.629,220.631Zm0,3.415a1.183,1.183,0,0,1,.739.981v5.354a1.185,1.185,0,0,1-.739.982Zm2.935,6.829c0,1.916-1.8,2.653-2.9,2.924-.015-.421-.025-.876-.03-1.362a2.332,2.332,0,0,0,1.714-2.056v-5.354a2.334,2.334,0,0,0-1.721-2.057v-1.333c1.112.266,2.935,1,2.935,2.935Z" fill="#344952"/>
                              </g>
                            </g>
                          </g>
                        </g>
                      </g>
                    </g>
                  </g>
                </g>
              </g>
            </g>
          </g>
        </g>
      </g>
    </g>
  </g>
</svg>