<svg width="25" height="25" viewBox="0 0 25 25" fill="none" xmlns="http://www.w3.org/2000/svg">
   <path
      d="M13.3177 0V6.57002L14.9622 5.86841V0.232959C14.4364 0.11582 13.8877 0.0378418 13.3177 0Z"
      fill="#344952" />
   <path
      d="M17.0338 11.3997C16.6388 11.3997 16.3175 11.7209 16.3175 12.1159C16.3175 12.5108 16.6388 12.8321 17.0338 12.8321C17.4288 12.8321 17.7501 12.5108 17.7501 12.1159C17.7501 11.721 17.4287 11.3997 17.0338 11.3997Z"
      fill="#344952" />
   <path
      d="M20.0206 3.41809C19.9624 3.34182 19.903 3.26697 19.8428 3.19309V7.46555H19.8427H18.2073V1.65515C17.7092 1.29949 17.1718 0.998462 16.5976 0.754028V6.94875L13.3176 8.34802V18.6578H14.9719V20.2933H13.3176V25C14.4111 24.8694 15.4627 24.4772 16.4417 23.8427L17.4668 16.6727L21.647 15.8123C22.0609 14.2625 22.2821 12.6373 22.2821 11.0342C22.2821 7.99167 21.5 5.35813 20.0206 3.41809ZM17.0338 14.4676C15.7371 14.4676 14.6821 13.4126 14.6821 12.1159C14.6821 10.8192 15.7371 9.76423 17.0338 9.76423C18.3305 9.76423 19.3855 10.8192 19.3855 12.1159C19.3855 13.4126 18.3305 14.4676 17.0338 14.4676Z"
      fill="#344952" />
   <path
      d="M18.9231 18.0427L18.3256 22.2219C18.8046 21.6943 19.2553 21.0973 19.672 20.4332C20.2177 19.5635 20.6863 18.6086 21.0702 17.6008L18.9231 18.0427Z"
      fill="#344952" />
   <path
      d="M10.0378 0.232959V5.86846L11.6823 6.57007V0C11.1123 0.0378418 10.5636 0.11582 10.0378 0.232959Z"
      fill="#344952" />
   <path
      d="M7.96617 11.3997C7.5712 11.3997 7.24991 11.7209 7.24991 12.1159C7.24991 12.5108 7.5712 12.8321 7.96617 12.8321C8.36114 12.8321 8.68243 12.5108 8.68243 12.1159C8.68243 11.721 8.36114 11.3997 7.96617 11.3997Z"
      fill="#344952" />
   <path
      d="M11.6823 18.6579V8.34807L8.40235 6.9488V0.754028C7.82813 0.998413 7.29068 1.29949 6.79268 1.65515V7.4655H5.15723V3.19309C5.09703 3.26697 5.03765 3.34177 4.9794 3.41809C3.49991 5.35813 2.71793 7.99167 2.71793 11.0342C2.71793 12.6373 2.93907 14.2626 3.35298 15.8123L7.53321 16.6727L8.55826 23.8427C9.53726 24.4773 10.5889 24.8694 11.6824 25V20.2933H10.0281V18.6578H11.6823V18.6579ZM7.96617 14.4675C6.66944 14.4675 5.61446 13.4126 5.61446 12.1158C5.61446 10.8191 6.66944 9.76418 7.96617 9.76418C9.2629 9.76418 10.3179 10.8192 10.3179 12.1158C10.3179 13.4125 9.2629 14.4675 7.96617 14.4675Z"
      fill="#344952" />
   <path
      d="M6.07687 18.0427L3.92975 17.6008C4.31364 18.6086 4.78224 19.5635 5.32799 20.4332C5.74464 21.0973 6.19532 21.6943 6.67438 22.2219L6.07687 18.0427Z"
      fill="#344952" />
</svg>