<svg width="25" height="25" viewBox="0 0 25 25" fill="none" xmlns="http://www.w3.org/2000/svg">
<mask id="mask0_1304_502" style="mask-type:luminance" maskUnits="userSpaceOnUse" x="0" y="0" width="25" height="25">
<path d="M25 0H0V25H25V0Z" fill="white"/>
</mask>
<g mask="url(#mask0_1304_502)">
<path d="M17.1875 3.24531C16.9271 2.33492 16.3784 1.53356 15.6237 0.961619C14.8691 0.389676 13.9492 0.0780098 13.0023 0.0734264C12.0766 0.0684673 11.1736 0.360306 10.4259 0.906127C9.67818 1.45195 9.12504 2.22303 8.84765 3.10624C8.24179 3.05561 7.63246 3.14624 7.06757 3.37101C6.50267 3.59577 5.99764 3.94854 5.59219 4.40156C4.99381 4.52953 4.45762 4.85935 4.07357 5.33573C3.68951 5.8121 3.48092 6.40606 3.4828 7.01796C3.48555 7.66725 3.72219 8.29379 4.14935 8.78279C4.5765 9.27178 5.16556 9.59048 5.80859 9.68047C6.31197 10.178 6.94477 10.5245 7.63515 10.6805C8.47007 10.8709 9.34474 10.7759 10.1193 10.4107C10.8939 10.0454 11.5236 9.43097 11.9078 8.66561C12.9656 8.94384 14.0896 8.8098 15.0523 8.29062C15.3951 8.54676 15.7916 8.72158 16.2119 8.80186C16.6321 8.88214 17.0652 8.86577 17.4782 8.75398C17.8912 8.6422 18.2734 8.43792 18.5958 8.15663C18.9182 7.87533 19.1724 7.52439 19.3392 7.13034C19.5059 6.7363 19.5809 6.30948 19.5583 5.8822C19.5358 5.45492 19.4163 5.03836 19.209 4.66406C19.0017 4.28975 18.712 3.96752 18.3618 3.72172C18.0115 3.47592 17.61 3.31301 17.1875 3.24531ZM16.7375 7.31797C16.5464 7.31781 16.3578 7.27469 16.1857 7.19179C16.0135 7.1089 15.8622 6.98834 15.743 6.83905C15.6157 6.68844 15.4364 6.59119 15.2407 6.56659C15.0451 6.54199 14.8473 6.59183 14.6867 6.70624C14.2761 7.01518 13.7884 7.20512 13.277 7.25529C12.7656 7.30545 12.2503 7.21388 11.7875 6.99062C11.6848 6.94314 11.5729 6.91855 11.4598 6.91855C11.3466 6.91855 11.2348 6.94314 11.132 6.99062C11.0289 7.03853 10.9378 7.10895 10.8655 7.19669C10.7932 7.28444 10.7414 7.38728 10.7141 7.49765C10.5626 8.07785 10.1931 8.57722 9.68252 8.89173C9.17197 9.20624 8.55975 9.31162 7.97343 9.18593C7.49394 9.07508 7.06282 8.81295 6.74375 8.43827C6.67217 8.35489 6.5835 8.28789 6.48375 8.24179C6.384 8.19569 6.2755 8.17157 6.16562 8.17109C5.86087 8.16985 5.56901 8.04803 5.35381 7.83225C5.13862 7.61647 5.01759 7.32427 5.01718 7.01952C5.01692 6.73198 5.12528 6.45495 5.32056 6.24389C5.51583 6.03283 5.78362 5.9033 6.07031 5.88124C6.17934 5.87157 6.28503 5.83868 6.3803 5.78478C6.47557 5.73088 6.55821 5.65723 6.62265 5.56875C6.83683 5.27663 7.11657 5.03885 7.43937 4.87453C7.76217 4.71021 8.11903 4.62394 8.48125 4.62266C8.55234 4.62266 8.62421 4.62264 8.69609 4.6328L8.7625 4.73905C8.85252 4.8754 8.9826 4.98048 9.13484 5.0398C9.28707 5.09913 9.45395 5.10979 9.61249 5.07031C9.77177 5.02811 9.91307 4.93541 10.0152 4.80609C10.1173 4.67678 10.1748 4.51785 10.1789 4.35312C10.1922 3.63392 10.4799 2.947 10.9831 2.43296C11.4863 1.91892 12.1669 1.61664 12.8856 1.58799C13.6044 1.55934 14.3069 1.80649 14.8494 2.27885C15.3919 2.7512 15.7334 3.41304 15.8039 4.1289C15.8211 4.2772 15.881 4.41731 15.9763 4.53226C16.0716 4.64721 16.1981 4.73207 16.3406 4.77655C16.5119 4.82755 16.6954 4.81873 16.8609 4.75156C17.1665 4.78123 17.4515 4.91878 17.6648 5.13955C17.8781 5.36031 18.0058 5.64985 18.025 5.95624C18.0451 6.29493 17.9305 6.62785 17.7061 6.88236C17.4818 7.13688 17.1659 7.29234 16.8273 7.31484L16.7375 7.31797Z" fill="#344952"/>
<path d="M11.875 22.1758C11.773 22.1758 11.6753 22.1353 11.6032 22.0632C11.5311 21.9911 11.4906 21.8934 11.4906 21.7914V10.6109C11.4951 10.5121 11.5375 10.4188 11.609 10.3504C11.6805 10.282 11.7756 10.2439 11.8746 10.2439C11.9735 10.2439 12.0687 10.282 12.1402 10.3504C12.2117 10.4188 12.2541 10.5121 12.2586 10.6109V21.7914C12.2587 21.8419 12.2488 21.8918 12.2296 21.9384C12.2104 21.9851 12.1821 22.0275 12.1465 22.0632C12.1109 22.0989 12.0685 22.1272 12.022 22.1465C11.9754 22.1658 11.9254 22.1758 11.875 22.1758Z" fill="#344952"/>
<path d="M14.7656 20.7813C14.6636 20.7813 14.5659 20.7408 14.4938 20.6687C14.4217 20.5966 14.3812 20.4988 14.3812 20.3969V12.0032C14.3857 11.9043 14.4281 11.811 14.4996 11.7426C14.5711 11.6743 14.6663 11.6361 14.7652 11.6361C14.8642 11.6361 14.9593 11.6743 15.0308 11.7426C15.1023 11.811 15.1447 11.9043 15.1492 12.0032V20.4C15.1486 20.5014 15.1079 20.5983 15.036 20.6698C14.9641 20.7412 14.8669 20.7813 14.7656 20.7813Z" fill="#344952"/>
<path d="M8.97967 20.7813C8.87773 20.7813 8.77996 20.7408 8.70787 20.6687C8.63579 20.5966 8.59529 20.4988 8.59529 20.3969V12.0032C8.59975 11.9043 8.64216 11.811 8.71368 11.7426C8.7852 11.6743 8.88033 11.6361 8.97928 11.6361C9.07822 11.6361 9.17335 11.6743 9.24487 11.7426C9.3164 11.811 9.3588 11.9043 9.36326 12.0032V20.4C9.36264 20.5014 9.32195 20.5983 9.25008 20.6698C9.17821 20.7412 9.081 20.7813 8.97967 20.7813Z" fill="#344952"/>
<path d="M18.4601 9.86796V7.74139C18.0519 8.1585 17.5061 8.4131 16.9242 8.45781V18.6789C16.8975 20.256 17.0073 21.8324 17.2523 23.3906H6.49608C6.74037 21.8324 6.84989 20.256 6.82341 18.6789V9.96328C6.51178 9.79094 6.22831 9.572 5.9828 9.31405C5.74332 9.29232 5.50884 9.23246 5.28826 9.13671V18.6789C5.28826 22.4867 4.80858 23.882 4.80545 23.8883C4.76212 24.0045 4.74754 24.1296 4.76296 24.2527C4.77839 24.3758 4.82336 24.4934 4.89404 24.5953C4.96471 24.6973 5.059 24.7807 5.16886 24.8384C5.27872 24.896 5.40091 24.9263 5.52499 24.9266H18.2383C18.3391 24.9266 18.4389 24.9067 18.532 24.8681C18.6252 24.8295 18.7098 24.7729 18.781 24.7016C18.8523 24.6303 18.9088 24.5456 18.9473 24.4524C18.9858 24.3592 19.0056 24.2594 19.0054 24.1586C19.0061 24.0305 18.9741 23.9044 18.9125 23.7922C18.6914 22.8543 18.5622 21.8972 18.5265 20.9344C20.0359 20.6031 21.5203 19.6539 21.5203 17.8711V12.9492C21.5203 11.132 20 10.1851 18.4601 9.86796ZM18.4601 12.5359C18.6173 12.5986 18.7543 12.7032 18.8561 12.8383C18.9579 12.9735 19.0206 13.134 19.0375 13.3023V17.4851C19.0206 17.6536 18.9578 17.8142 18.856 17.9494C18.7543 18.0847 18.6173 18.1895 18.4601 18.2523V12.5359ZM20.7531 17.8711C20.7531 19.368 19.3469 19.9437 18.4875 20.1555C18.4758 19.8265 18.468 19.4711 18.464 19.0914C18.8252 18.9936 19.1474 18.7869 19.387 18.4995C19.6266 18.2122 19.7719 17.858 19.8031 17.4851V13.3023C19.7714 12.9287 19.6253 12.574 19.3847 12.2864C19.1441 11.9988 18.8207 11.7924 18.4586 11.6953V10.6539C19.3273 10.8617 20.7515 11.4352 20.7515 12.9469L20.7531 17.8711Z" fill="#344952"/>
</g>
</svg>
