<svg width="25" height="25" viewBox="0 0 25 25" fill="none" xmlns="http://www.w3.org/2000/svg">
<path d="M9.72723 16.6568C13.0152 16.4741 15.625 13.7503 15.625 10.4167C15.625 6.96491 12.8268 4.16669 9.375 4.16669C5.92322 4.16669 3.125 6.96491 3.125 10.4167C3.125 11.6466 3.48015 12.7935 4.09364 13.7604L3.65194 15.0854L3.65123 15.0874C3.48206 15.5949 3.39744 15.8489 3.45769 16.0178C3.5102 16.165 3.62676 16.2812 3.77401 16.3337C3.94242 16.3937 4.19453 16.3097 4.69864 16.1416L4.70581 16.1395L6.03129 15.6977C6.99823 16.3113 8.14516 16.6665 9.37506 16.6665C9.49325 16.6665 9.61067 16.6632 9.72723 16.6568ZM9.72723 16.6568C9.72715 16.6565 9.72731 16.657 9.72723 16.6568ZM9.72723 16.6568C10.5824 19.0895 12.9001 20.8336 15.6251 20.8336C16.855 20.8336 18.0018 20.4779 18.9686 19.8644L20.2937 20.3062L20.2964 20.3067C20.8039 20.4757 21.0581 20.5605 21.2271 20.5003C21.3744 20.4478 21.4895 20.3317 21.542 20.1845C21.6023 20.0152 21.5179 19.7611 21.3482 19.2522L20.9066 17.9271L21.0545 17.6819C21.5769 16.7687 21.8745 15.7107 21.8745 14.5834C21.8745 11.1316 19.0768 8.33335 15.625 8.33335L15.391 8.33767L15.273 8.34343" stroke="#344952" stroke-linecap="round" stroke-linejoin="round"/>
</svg>
