<svg width="25" height="25" viewBox="0 0 25 25" fill="none" xmlns="http://www.w3.org/2000/svg">
   <g clip-path="url(#clip0_1317_80)">
      <path fill-rule="evenodd" clip-rule="evenodd"
         d="M21.875 7.29165C21.875 5.53394 20.4772 4.22306 18.8584 3.41368C17.1773 2.57314 14.9278 2.08331 12.5 2.08331C10.0722 2.08331 7.82268 2.57314 6.14159 3.41368C4.52282 4.22306 3.125 5.53394 3.125 7.29165V17.7083C3.125 19.466 4.52282 20.7769 6.14159 21.5863C7.82268 22.4269 10.0722 22.9166 12.5 22.9166C14.9278 22.9166 17.1773 22.4269 18.8584 21.5863C20.4772 20.7769 21.875 19.466 21.875 17.7083V7.29165ZM5.34367 14.7426C5.62723 14.2421 6.2629 14.0661 6.76345 14.3497C8.09726 15.1053 10.1437 15.625 12.5001 15.625C14.8564 15.625 16.9028 15.1053 18.2367 14.3497C18.7372 14.0661 19.3729 14.2421 19.6565 14.7426C19.94 15.2431 19.7642 15.8787 19.2635 16.1624C17.5434 17.1369 15.1217 17.7083 12.5001 17.7083C9.87842 17.7083 7.45668 17.1369 5.73655 16.1624C5.236 15.8787 5.06009 15.2431 5.34367 14.7426ZM6.76336 9.14134C6.26281 8.85778 5.62716 9.03368 5.34358 9.53424C5.06002 10.0348 5.23592 10.6705 5.73648 10.954C7.45659 11.9285 9.87834 12.5 12.5 12.5C15.1217 12.5 17.5433 11.9285 19.2634 10.954C19.7641 10.6705 19.9399 10.0348 19.6564 9.53424C19.3728 9.03368 18.7372 8.85778 18.2366 9.14134C16.9028 9.89697 14.8562 10.4166 12.5 10.4166C10.1437 10.4166 8.09718 9.89697 6.76336 9.14134Z"
         fill="#344952" />
   </g>
   <defs>
      <clipPath id="clip0_1317_80">
         <rect width="25" height="25" fill="white" />
      </clipPath>
   </defs>
</svg>