<svg width="40" height="40" viewBox="0 0 40 40" fill="none" xmlns="http://www.w3.org/2000/svg">
<g clip-path="url(#clip0_1303_137)">
<path d="M19.9227 0.5C8.92109 0.5 0 9.4397 0 20.4677C0 29.2901 5.70844 36.7748 13.6244 39.4151C14.62 39.5999 14.9856 38.982 14.9856 38.4545C14.9856 37.9785 14.967 36.4054 14.9586 34.7369C9.41594 35.9448 8.24641 32.381 8.24641 32.381C7.34016 30.073 6.03437 29.4594 6.03437 29.4594C4.22687 28.22 6.17063 28.2454 6.17063 28.2454C8.17125 28.3864 9.22469 30.3032 9.22469 30.3032C11.0016 33.3559 13.8853 32.4732 15.0222 31.9632C15.2009 30.6725 15.7173 29.7917 16.287 29.2931C11.862 28.788 7.21016 27.0759 7.21016 19.4249C7.21016 17.245 7.98844 15.4636 9.26297 14.0653C9.05609 13.5623 8.37422 11.5315 9.45594 8.78103C9.45594 8.78103 11.1289 8.24435 14.9361 10.8278C16.5252 10.3853 18.2295 10.1635 19.9227 10.156C21.6158 10.1635 23.3214 10.3853 24.9136 10.8278C28.7163 8.24435 30.3869 8.78103 30.3869 8.78103C31.4712 11.5315 30.7891 13.5623 30.5822 14.0653C31.8595 15.4636 32.6325 17.2448 32.6325 19.4249C32.6325 27.0941 27.9719 28.7829 23.5356 29.2771C24.2502 29.8968 24.8869 31.112 24.8869 32.9748C24.8869 35.6465 24.8638 37.7968 24.8638 38.4545C24.8638 38.9859 25.2223 39.6086 26.2323 39.4125C34.1439 36.7692 39.8452 29.2871 39.8452 20.4677C39.8452 9.4397 30.9253 0.5 19.9227 0.5Z" fill="#161614"/>
<path d="M7.46172 28.9444C7.41797 29.0436 7.26203 29.0733 7.12031 29.0054C6.97578 28.9402 6.89453 28.8049 6.94141 28.7053C6.98437 28.6032 7.14031 28.5747 7.28453 28.6433C7.42937 28.7083 7.51187 28.8448 7.46172 28.9444ZM8.44172 29.8208C8.34672 29.9091 8.16094 29.8681 8.03484 29.7285C7.90453 29.5893 7.88016 29.4033 7.97656 29.3135C8.07453 29.2254 8.25469 29.2666 8.38531 29.4059C8.51562 29.5467 8.54094 29.7317 8.44156 29.8209M9.11406 30.9421C8.99187 31.0271 8.79219 30.9474 8.66891 30.7698C8.54687 30.5924 8.54687 30.3794 8.67156 30.294C8.79531 30.2087 8.99187 30.2854 9.11687 30.4616C9.23875 30.6422 9.23875 30.8552 9.11391 30.9422M10.2509 32.2408C10.1417 32.3614 9.90922 32.3291 9.73891 32.1644C9.56484 32.0034 9.51625 31.7749 9.62578 31.6541C9.73625 31.5332 9.97016 31.5672 10.1417 31.7306C10.3147 31.8912 10.3673 32.1214 10.2509 32.2408ZM11.7203 32.6793C11.6723 32.8356 11.4483 32.9067 11.2227 32.8403C10.9973 32.7718 10.8498 32.5886 10.8953 32.4306C10.9422 32.2732 11.1672 32.1991 11.3945 32.2702C11.6195 32.3383 11.7672 32.5202 11.7203 32.6793ZM13.3928 32.8652C13.3984 33.0299 13.207 33.1665 12.9702 33.1694C12.7319 33.1746 12.5392 33.0413 12.5367 32.8794C12.5367 32.7131 12.7237 32.5778 12.9619 32.5739C13.1987 32.5692 13.3928 32.7015 13.3928 32.8652ZM15.0356 32.802C15.0641 32.9627 14.8994 33.1278 14.6642 33.1716C14.433 33.2139 14.2189 33.1148 14.1894 32.9555C14.1606 32.7908 14.3284 32.6259 14.5592 32.5831C14.7948 32.5421 15.0056 32.6387 15.0356 32.802Z" fill="#161614"/>
</g>
<defs>
<clipPath id="clip0_1303_137">
<rect width="40" height="39" fill="white" transform="translate(0 0.5)"/>
</clipPath>
</defs>
</svg>
