<svg width="40" height="39" viewBox="0 0 40 39" fill="none" xmlns="http://www.w3.org/2000/svg">
<path d="M19.9227 0C8.92109 0 0 8.9397 0 19.9677C0 28.7901 5.70844 36.2748 13.6244 38.9151C14.62 39.0999 14.9856 38.482 14.9856 37.9545C14.9856 37.4785 14.967 35.9054 14.9586 34.2369C9.41594 35.4448 8.24641 31.881 8.24641 31.881C7.34016 29.573 6.03437 28.9594 6.03437 28.9594C4.22687 27.72 6.17063 27.7454 6.17063 27.7454C8.17125 27.8864 9.22469 29.8032 9.22469 29.8032C11.0016 32.8559 13.8853 31.9732 15.0222 31.4632C15.2009 30.1725 15.7173 29.2917 16.287 28.7931C11.862 28.288 7.21016 26.5759 7.21016 18.9249C7.21016 16.745 7.98844 14.9636 9.26297 13.5653C9.05609 13.0623 8.37422 11.0315 9.45594 8.28103C9.45594 8.28103 11.1289 7.74435 14.9361 10.3278C16.5252 9.88527 18.2295 9.66352 19.9227 9.65601C21.6158 9.66352 23.3214 9.88527 24.9136 10.3278C28.7163 7.74435 30.3869 8.28103 30.3869 8.28103C31.4712 11.0315 30.7891 13.0623 30.5822 13.5653C31.8595 14.9636 32.6325 16.7448 32.6325 18.9249C32.6325 26.5941 27.9719 28.2829 23.5356 28.7771C24.2502 29.3968 24.8869 30.612 24.8869 32.4748C24.8869 35.1465 24.8638 37.2968 24.8638 37.9545C24.8638 38.4859 25.2223 39.1086 26.2323 38.9125C34.1439 36.2692 39.8452 28.7871 39.8452 19.9677C39.8452 8.9397 30.9253 0 19.9227 0Z" fill="#E2DCD1"/>
</svg>
