<svg width="40" height="40" viewBox="0 0 40 40" fill="none" xmlns="http://www.w3.org/2000/svg">
<g clip-path="url(#clip0_1303_154)">
<path d="M37.1351 10C35.9805 8.05073 21.8068 0 19.4985 0C17.1909 0 3.01167 8.03056 1.86359 10C0.715332 11.9695 0.708946 28.0313 1.86359 30.0009C3.01814 31.9695 17.1925 40 19.4985 40C21.8044 40 35.9806 31.9594 37.1344 30C38.288 28.0406 38.2888 11.9493 37.1351 10ZM24.2769 32.3609C23.9613 32.3609 21.0171 29.5664 21.249 29.3381C21.3182 29.2703 21.7479 29.2227 22.6474 29.1952C22.6474 27.1461 22.6944 23.8367 22.7223 22.4514C22.7256 22.2937 22.6872 22.1835 22.6872 21.9944H16.3183C16.3183 22.5491 16.2818 24.8225 16.4276 27.6882C16.4458 28.0428 16.3016 28.1537 15.9701 28.1521C15.1629 28.15 14.355 28.1435 13.547 28.146C13.2204 28.1467 13.0793 28.0265 13.0897 27.6687C13.1629 25.0563 13.3256 21.1045 13.0778 11.0539V10.8061C12.3073 10.7788 11.7726 10.7312 11.7024 10.6625C11.4697 10.4343 14.4546 7.63986 14.7694 7.63986C15.0849 7.63986 18.0499 10.4351 17.8188 10.6625C17.7494 10.7304 17.1892 10.7788 16.4825 10.8061V11.0531C16.2897 13.0648 16.3208 17.271 16.273 19.2867H22.6681C22.6681 18.9311 22.6992 16.5726 22.5726 12.7523C22.5645 12.4874 22.6482 12.3483 22.9079 12.3461C23.7899 12.3398 24.6728 12.3359 25.5557 12.3413C25.8314 12.3429 25.9198 12.4757 25.9143 12.7616C25.6234 27.7061 25.8616 26.6632 25.8616 29.1943C26.5685 29.2217 27.2019 29.2694 27.2713 29.3382C27.5008 29.5656 24.5925 32.3609 24.2769 32.3609Z" fill="#2EC866"/>
</g>
<defs>
<clipPath id="clip0_1303_154">
<rect width="40" height="40" fill="white"/>
</clipPath>
</defs>
</svg>
