<svg width="25" height="25" viewBox="0 0 25 25" fill="none" xmlns="http://www.w3.org/2000/svg">
<path d="M8.93818 19.3339C8.93818 19.3339 7.98282 19.8895 9.61807 20.0775C11.5991 20.3035 12.6116 20.2711 14.7948 19.8579C14.7948 19.8579 15.3687 20.2178 16.1703 20.5295C11.2763 22.627 5.09418 20.408 8.93818 19.3339ZM8.34016 16.5968C8.34016 16.5968 7.26863 17.39 8.90509 17.5592C11.0213 17.7776 12.6926 17.7954 15.5844 17.2386C15.5844 17.2386 15.9845 17.6441 16.6134 17.8658C10.6962 19.5961 4.10554 18.0023 8.34016 16.5968Z" fill="#344952"/>
<path d="M13.3817 11.9538C14.5876 13.3422 13.0649 14.5916 13.0649 14.5916C13.0649 14.5916 16.1267 13.0109 14.7206 11.0315C13.4072 9.18556 12.4 8.26848 17.8525 5.10626C17.8525 5.10619 9.29396 7.24372 13.3817 11.9538Z" fill="#344952"/>
<path d="M19.8544 21.3584C19.8544 21.3584 20.5614 21.941 19.0758 22.3916C16.2509 23.2473 7.31829 23.5057 4.83685 22.4257C3.94483 22.0376 5.61761 21.4991 6.14381 21.3861C6.69257 21.2671 7.00617 21.2893 7.00617 21.2893C6.01416 20.5904 0.594207 22.6614 4.25311 23.2545C14.2315 24.8727 22.4428 22.5259 19.8544 21.3584ZM9.3976 13.7608C9.3976 13.7608 4.85389 14.84 7.78856 15.2319C9.02767 15.3978 11.4978 15.3603 13.7986 15.1675C15.679 15.0089 17.5672 14.6717 17.5672 14.6717C17.5672 14.6717 16.9041 14.9557 16.4244 15.2831C11.8104 16.4967 2.89689 15.9321 5.46297 14.6908C7.63311 13.6418 9.3976 13.7608 9.3976 13.7608ZM17.5485 18.3169C22.2389 15.8795 20.0703 13.5372 18.5565 13.8529C18.1855 13.9301 18.0201 13.997 18.0201 13.997C18.0201 13.997 18.1579 13.7812 18.4208 13.6878C21.4154 12.635 23.7184 16.7929 17.4541 18.4398C17.4541 18.4398 17.5268 18.3749 17.5485 18.3169Z" fill="#344952"/>
<path d="M14.7206 0C14.7206 0 17.3182 2.59842 12.2569 6.59424C8.19819 9.79945 11.3314 11.627 12.2552 13.7151C9.88613 11.5776 8.14752 9.69595 9.31392 7.94466C11.0259 5.37393 15.7687 4.12755 14.7206 0Z" fill="#344952"/>
<path d="M9.85848 24.9214C14.3607 25.2096 21.2743 24.7615 21.438 22.6313C21.438 22.6313 21.1233 23.4388 17.7172 24.0802C13.8745 24.8033 9.13499 24.7189 6.32397 24.2555C6.32411 24.2554 6.89949 24.7317 9.85848 24.9214Z" fill="#344952"/>
</svg>
