<svg width="19" height="25" viewBox="0 0 19 25" fill="none" xmlns="http://www.w3.org/2000/svg">
<path d="M6.21919 19.3339C6.21919 19.3339 5.26383 19.8895 6.89908 20.0775C8.88014 20.3035 9.89264 20.2711 12.0758 19.8579C12.0758 19.8579 12.6497 20.2178 13.4513 20.5295C8.55731 22.627 2.37519 20.408 6.21919 19.3339ZM5.62116 16.5968C5.62116 16.5968 4.54964 17.39 6.1861 17.5592C8.30233 17.7776 9.97357 17.7954 12.8654 17.2386C12.8654 17.2386 13.2655 17.6441 13.8944 17.8658C7.97721 19.5961 1.38654 18.0023 5.62116 16.5968Z" fill="#344952"/>
<path d="M10.6627 11.9538C11.8686 13.3422 10.3459 14.5916 10.3459 14.5916C10.3459 14.5916 13.4077 13.0109 12.0016 11.0315C10.6882 9.18556 9.68105 8.26848 15.1335 5.10626C15.1336 5.10619 6.57497 7.24372 10.6627 11.9538Z" fill="#344952"/>
<path d="M17.1354 21.3584C17.1354 21.3584 17.8424 21.941 16.3568 22.3916C13.5319 23.2473 4.5993 23.5057 2.11785 22.4257C1.22583 22.0376 2.89862 21.4991 3.42481 21.3861C3.97358 21.2671 4.28718 21.2893 4.28718 21.2893C3.29517 20.5904 -2.12479 22.6614 1.53411 23.2545C11.5125 24.8727 19.7238 22.5259 17.1354 21.3584ZM6.6786 13.7608C6.6786 13.7608 2.1349 14.84 5.06957 15.2319C6.30867 15.3978 8.7788 15.3603 11.0796 15.1675C12.96 15.0089 14.8482 14.6717 14.8482 14.6717C14.8482 14.6717 14.1851 14.9557 13.7054 15.2831C9.09139 16.4967 0.177893 15.9321 2.74397 14.6908C4.91411 13.6418 6.6786 13.7608 6.6786 13.7608ZM14.8295 18.3169C19.5199 15.8795 17.3513 13.5372 15.8375 13.8529C15.4665 13.9301 15.3011 13.997 15.3011 13.997C15.3011 13.997 15.4389 13.7812 15.7018 13.6878C18.6964 12.635 20.9994 16.7929 14.7351 18.4398C14.7351 18.4398 14.8078 18.3749 14.8295 18.3169Z" fill="#344952"/>
<path d="M12.0016 0C12.0016 0 14.5992 2.59842 9.53788 6.59424C5.47919 9.79945 8.61237 11.627 9.53619 13.7151C7.16714 11.5776 5.42852 9.69595 6.59492 7.94466C8.30686 5.37393 13.0497 4.12755 12.0016 0Z" fill="#344952"/>
<path d="M7.13951 24.9214C11.6417 25.2096 18.5553 24.7615 18.719 22.6313C18.719 22.6313 18.4043 23.4388 14.9982 24.0802C11.1555 24.8033 6.41601 24.7189 3.605 24.2555C3.60513 24.2554 4.18051 24.7317 7.13951 24.9214Z" fill="#344952"/>
</svg>
