<svg width="40" height="40" viewBox="0 0 40 40" fill="none" xmlns="http://www.w3.org/2000/svg">
<path d="M20 6.10352e-05C8.95421 6.10352e-05 0 8.95428 0 20C0 31.0458 8.95421 40 20 40C31.0457 40 40 31.0458 40 20C39.9999 8.95428 31.0455 6.10352e-05 20 6.10352e-05ZM14.6639 29.6691H10.2727V15.4824H14.6639V29.6691ZM12.4474 13.6245C11.0133 13.6245 9.85069 12.4525 9.85069 11.0068C9.85069 9.56108 11.0135 8.38908 12.4474 8.38908C13.8814 8.38908 15.044 9.56108 15.044 11.0068C15.0441 12.4525 13.8814 13.6245 12.4474 13.6245ZM31.1199 29.6691H26.75V22.2222C26.75 20.1798 25.9742 19.0397 24.3592 19.0397C22.6015 19.0397 21.6833 20.2271 21.6833 22.2222V29.6691H17.4716V15.4824H21.6833V17.3931C21.6833 17.3931 22.9501 15.0497 25.9583 15.0497C28.9665 15.0497 31.12 16.8865 31.12 20.6863L31.1199 29.6691Z" fill="#E2DCD1"/>
</svg>
