<svg width="34" height="40" viewBox="0 0 34 40" fill="none" xmlns="http://www.w3.org/2000/svg">
<g clip-path="url(#clip0_1303_236)">
<path d="M28.1168 35.6751V25.9457H32.4433V39.9989H0V25.9457H4.32644V35.6751H28.1168Z" fill="#BCBBBB"/>
<path d="M24.8735 28.1076L25.7384 24.8638L8.32654 21.298L7.56976 24.8638L24.8735 28.1076ZM9.9502 16.4323L26.1708 23.9998L27.6844 20.756L11.4638 13.1904L9.9502 16.4323ZM14.4909 8.43272L28.1168 19.892L30.3892 17.1902L16.6551 5.73088L14.3828 8.43272H14.4909ZM23.2518 0.0012207L20.3309 2.16309L31.0378 16.5402L33.9568 14.3784L23.2518 0.0012207ZM7.56976 32.4313H24.8735V29.1895H7.56976V32.4313Z" fill="#F48024"/>
</g>
<defs>
<clipPath id="clip0_1303_236">
<rect width="33.9568" height="40" fill="white"/>
</clipPath>
</defs>
</svg>
