<svg width="25" height="25" viewBox="0 0 25 25" fill="none" xmlns="http://www.w3.org/2000/svg">
<path d="M17.5324 16.2919C18.2303 15.8336 19.147 16.3336 19.147 17.1669V18.5106C19.147 19.8336 18.1157 21.2502 16.8761 21.6669L13.5532 22.7711C12.9699 22.969 12.022 22.969 11.4491 22.7711L8.12613 21.6669C6.87613 21.2502 5.8553 19.8336 5.8553 18.5106V17.1565C5.8553 16.3336 6.77197 15.8336 7.45947 16.2815L9.6053 17.6773C10.4282 18.2294 11.4699 18.5002 12.5116 18.5002C13.5532 18.5002 14.5949 18.2294 15.4178 17.6773L17.5324 16.2919Z" fill="#344952"/>
<path d="M20.812 6.72772L14.5724 2.63397C13.4474 1.89439 11.5932 1.89439 10.4682 2.63397L4.19743 6.72772C2.18702 8.02981 2.18702 10.9777 4.19743 12.2902L5.8641 13.3736L10.4682 16.3736C11.5932 17.1131 13.4474 17.1131 14.5724 16.3736L19.1453 13.3736L20.5724 12.4361V15.6236C20.5724 16.0506 20.9266 16.4048 21.3537 16.4048C21.7807 16.4048 22.1349 16.0506 22.1349 15.6236V10.4986C22.5516 9.15481 22.1245 7.59231 20.812 6.72772Z" fill="#344952"/>
</svg>
