<svg width="252" height="236" viewBox="0 0 252 236" fill="none" xmlns="http://www.w3.org/2000/svg">
<path d="M106.327 26.998C117.658 26.998 126.843 36.183 126.843 47.514C126.843 58.845 117.658 68.03 106.327 68.03C94.9962 68.03 85.8102 58.845 85.8102 47.514C85.8102 36.183 94.9962 26.998 106.327 26.998ZM31.0692 151.324L30.8802 151.135C30.0292 150.568 29.2732 150.095 28.6112 149.339L30.8802 175.339L2.32715 215.804C-1.73785 221.666 -0.319848 229.608 5.35215 233.673C11.2142 237.738 19.1562 236.32 23.2212 230.648L54.0432 186.212C55.6502 183.943 56.6902 180.917 56.3122 177.892L55.2722 165.318L31.0692 151.324ZM115.876 235.942H238.217L215.337 164.561C215.337 164.561 202.384 167.776 176.763 195.004C176.196 195.571 175.534 196.233 174.967 196.8L113.135 161.062C114.175 159.077 114.364 156.807 113.986 154.349L92.0502 73.041C90.2542 65.099 83.1632 59.048 74.8432 59.048H33.9052C30.8802 59.048 27.8542 60.655 26.1522 63.303L5.73115 98.757C3.08415 103.012 4.69115 108.495 8.94615 110.953L31.8262 124.095L28.8012 129.2C25.1142 135.251 27.1942 143.004 33.4342 146.407L84.7701 176V222.894C84.7701 229.985 90.4431 235.658 97.5341 235.658C104.625 235.658 110.298 229.985 110.298 222.894V169.382L167.119 202.284C155.395 208.997 141.97 210.226 132.421 215.898C120.697 222.895 115.876 235.942 115.876 235.942ZM36.1742 116.626L21.1412 107.928L39.0102 77.106H59.0542L36.1742 116.626ZM69.1712 135.724L83.3531 110.953L93.9422 149.905L69.1712 135.724ZM201.459 0C173.58 0 150.918 22.621 150.918 50.459C150.918 78.338 173.58 101 201.459 101C229.338 101 252 78.338 252 50.459C251.918 22.621 229.257 0 201.459 0ZM201.459 91.014C179.082 91.014 160.904 72.836 160.904 50.459C160.904 28.082 179.082 9.904 201.459 9.904C223.836 9.904 242.014 28.082 242.014 50.459C241.77 72.836 223.591 91.014 201.459 91.014ZM226.648 40.596C225.711 39.047 223.754 37.987 221.512 39.129L203.619 47.118V25.963C203.619 24.822 203.211 23.803 202.478 23.028L202.437 22.987C201.703 22.335 200.847 22.05 199.828 22.05C197.872 22.05 195.834 23.517 195.834 25.963V53.638C195.834 55.146 196.69 56.573 198.035 57.306C198.728 57.632 199.339 57.795 199.91 57.795C200.521 57.795 201.214 57.591 201.866 57.306L224.976 46.26C225.995 45.73 226.729 44.874 227.055 43.855C227.3 42.797 227.178 41.615 226.648 40.596Z" fill="white"/>
</svg>
