<?xml version="1.0" encoding="utf-8"?>
<!-- Generator: Adobe Illustrator 24.2.3, SVG Export Plug-In . SVG Version: 6.00 Build 0)  -->
<svg version="1.1" id="Layer_1" xmlns="http://www.w3.org/2000/svg" xmlns:xlink="http://www.w3.org/1999/xlink" x="0px" y="0px"
	 viewBox="0 0 512 512" style="enable-background:new 0 0 512 512;" xml:space="preserve">
<style type="text/css">
	.st0{fill:#EB00BD;}
	.st1{fill:#FFFFFF;}
	.st2{fill:#7F003D;}
	.st3{fill:#FFBFDC;}
	.st4{opacity:0.67;fill:#FF1578;enable-background:new    ;}
	.st5{opacity:0.74;fill:#94007D;enable-background:new    ;}
	.st6{fill:#A31361;}
	.st7{fill:#EC368D;}
	.st8{fill:#150001;}
	.st9{opacity:0.3;fill:#FFFFFF;stroke:#F5EF99;stroke-width:0.39;stroke-miterlimit:37.8;enable-background:new    ;}
	.st10{fill:#DB1381;}
	.st11{fill:#E90055;}
	.st12{fill:#BF1361;}
	.st13{fill:#E980FC;}
	.st14{fill:#DF5F95;}
	.st15{fill:#FFAAF1;}
	.st16{fill:#FFD2FC;}
	.st17{fill:#FF6AA9;}
	.st18{fill:#FFC3EF;}
	.st19{fill:#B96AC9;}
	.st20{fill:#FF8AE6;}
	.st21{fill:#FF8AB1;}
	.st22{fill:#FF5FFC;}
	.st23{fill:#FF8ACB;}
	.st24{fill:#FF6AE7;}
	.st25{fill:#EC36C9;}
	.st26{fill:#FF3FA6;}
	.st27{fill:#88008A;}
	.st28{fill:#FF6AC6;}
</style>
<rect class="st0" width="512" height="512"/>
<rect x="31" y="31" class="st1" width="450" height="450"/>
<polygon class="st2" points="202.8,346.9 232.5,360.2 265.5,341.8 319.3,287.8 323.3,261.4 288.1,253 243.8,274.2 202.8,339.5 "/>
<path class="st3" d="M407.7,269c-13.8-42.7-3.9-90.6-22-126.6s-170.7-51.6-211.5,16c0,0-4.7,52.6-37,113.3
	c-19.1,36,26.2,57.9,71.6,78l80.6-75.2c2.6,0.2,24.9-14.9,24.9-14.9L224,356.4c25.6,11.4,48.9,22.7,57.4,36.2
	C306.5,432.2,421.5,311.7,407.7,269z"/>
<path id="path317" class="st4" d="M152.9,340.2c43.4-37.5,91.3-64.6,138.2-45s55.1-19.1,60.1-56.2s116.8,62.5,34.7,98
	s-103,18-105.5-4.2S152.9,340.2,152.9,340.2z"/>
<path id="path315" class="st5" d="M168.7,208.8c0,0,14-71.8,81.4-61.7s103.9,46.9,39.6,83.6S191.2,261.9,168.7,208.8L168.7,208.8z"
	/>
<g id="legs">
	<path id="path323" class="st6" d="M227.4,293.2c0,0,3.3,22.2,1.6,27.2s-4.4,14.7-4.4,14.7c1.3-1.5,2.7-2.9,4.2-4.2
		c0.7-0.7,1.4-1.3,2.2-1.8c0.6,0,1.3-0.1,1.7,0.3c1,1,1.8,2.1,2.6,3.3c0.9,1.3,1.5,2.7,1.7,4.3v0c0.1,1.2-0.1,2.5-0.8,3.6
		c0,0,3.3,1.2,3-6.4c0.3,0.4,0.5,0.8,0.8,1.2c0.4,0.7,0.4,2,0.6,2.8c0-0.1,0.5-0.8,0.5-0.8s0.1-0.3,0.1-0.4s0.1-0.5,0.2-0.8
		c0.1-0.6,0.2-1.1,0.3-1.7c0.1-0.5,0.1-1,0.1-1.5c0-0.8-0.3-0.8,0.6-0.1c0.7,0.8,1.2,1.9,1.2,3c0.3-1.4,0.4-2.8,0.2-4.3
		c-0.6-3.4-1.8-6.6-3.4-9.6c-3.4-6.4-5.1-13.5-4.8-20.8c0.1-3,0.4-6,1.1-9C236.7,292.1,227.8,293.6,227.4,293.2z"/>
	<path id="path325" class="st6" d="M248.2,289.9c0,0,1.6,15.1,1.6,16s-4.1,7.9-4.3,9.4c0,0,5.7-2.2,6.6-1.2s5.8,3.5,2.4,10.8
		c0,0,5.7-1.5,5.7-3.4c0,0.7-0.1,1.4-0.3,2.1c0,0,4.2-2.6,3.2-4.9c0.5,0.5,0.9,1.2,1,1.9c1.8-2.1,1.8-5.2,0-7.2
		c-3.2-3.9-3.2-2-5.5-5.3s-2.3-20.4-2.3-20.4S248.8,289.9,248.2,289.9L248.2,289.9z"/>
</g>
<path id="path328" class="st7" d="M403.6,151.5c-10.6,7.7-19.9,17.1-27.5,27.8c-20.6,29.4-36.3,63.6-66.7,84.5
	c-14.2,9.8-30.2,16.9-46.6,22.1c-17.2,5.4-35.5,9.1-53.6,7.1c-8.8-1-17.5-2.5-26.1-4.4L43.9,363.5l8.6-7.1l-18.3,8.4l132.9-104.4
	l16.6-18c0,0,76.2-75.3,99.6-76.7s31.8-15.6,31.8-15.6c1.3-1.4,2.8-2.6,4.4-3.7l0,0c0.2-0.1,3.7-0.9,8.6-1.8c0,0,36.1,10.7,50,6.5
	l0,0C394,154.6,403.6,151.5,403.6,151.5z"/>
<circle id="circle330" class="st8" cx="348.9" cy="161" r="6"/>
<ellipse id="ellipse332" class="st9" cx="351" cy="161.3" rx="2" ry="1.8"/>
<ellipse id="ellipse334" class="st9" cx="351.2" cy="157.4" rx="0.8" ry="0.6"/>
<path id="path387" d="M375.7,161.3c0,0,26-9.4,27.9-9.8C394.6,155.6,385.3,158.8,375.7,161.3z"/>
<path id="path389" class="st10" d="M336.3,216.6c0,0-50.6,61.4-128.2,64.8C208.2,281.3,286,283.8,336.3,216.6L336.3,216.6z"/>
<path id="path391" class="st11" d="M359.9,144.8c-8.6-3.4-22.7-1.8-31.7-0.2c-5,0.9-8.4,1.8-8.6,1.8c6.3-4.3,19.2-9.9,38-2.8
	L359.9,144.8z"/>
<path id="path385" class="st12" d="M332.2,206.3c0,0-35,50-79.2,55.9C252.9,262.2,302.9,255.8,332.2,206.3L332.2,206.3z"/>
<path id="path393" class="st12" d="M362.9,199.7c0,0-85.7,98.6-149.5,93.6C213.4,293.3,305.2,307.7,362.9,199.7z"/>
<path id="path395" class="st12" d="M162.6,281.9l-63.1,42.3C99.4,324.2,160.7,284.8,162.6,281.9z"/>
<path id="path397" class="st12" d="M322,164.1l20-1.5c0,0-5.9,2.2-7,3.3s8.3,0.2,8.3,0.2l-3.8,3c0,0,8,0.1,11.6-1s13.3-3.9,13.3-3.9
	l-7.6,3.8l10.8-0.7l-10.8,4.6h6.9c-6.5,3.5-13.9,5.1-21.3,4.6c-12.1-0.9-14.3-5.2-19.1-5.2c0,0,6-1.2,6.9-1.5
	c-1.7-1.3-3.9-1.9-6-1.8c-4,0-6.5-3.4-6.5-3.4L322,164.1z"/>
<path id="path399" class="st12" d="M378.2,151.1c-0.8,0.2-1.5,0.4-2.3,0.5c-0.9,0.1-1.8,0.3-2.6,0.3s-1.9,0.1-2.9,0.1
	s-2.1,0-3.1-0.1s-2.2-0.1-3.3-0.2s-2.3-0.2-3.4-0.3s-2.3-0.3-3.5-0.5l-3.5-0.5c-1.2-0.2-2.3-0.4-3.4-0.6s-2.2-0.4-3.4-0.7
	s-2.2-0.4-3.2-0.7l-3-0.7l-2.8-0.7c-0.9-0.2-1.7-0.4-2.5-0.6s-1.5-0.4-2.2-0.6l-1.9-0.5l-2.2-0.6c-0.1,0-0.3,0-0.4-0.1
	c-0.2-0.1,0-0.2,0.1-0.2c0.2-0.1,0.4-0.1,0.5-0.1l1-0.2l2-0.3c1.4-0.2,2.8-0.4,4.3-0.6s3-0.3,4.5-0.4s3.1-0.2,4.6-0.2s3,0,4.5,0.1
	s2.9,0.2,4.3,0.4c1.3,0.2,2.6,0.5,3.9,0.9c0.6,0.2,1.2,0.4,1.7,0.6s1.1,0.5,1.7,0.8C367,147.9,372.5,149.8,378.2,151.1L378.2,151.1z
	"/>
<polygon id="polygon401" class="st12" points="34.1,364.8 159,266.9 52.5,356.4 "/>
<polygon id="polygon403" class="st12" points="128.3,315.3 183.1,288.6 43.9,363.5 "/>
<path id="path336" class="st13" d="M294,205.9c-4.1,2.9-8.6,5.3-13.2,7.3c-9.4,3.8-15.4,2.8-19.3,0.1c-6.2-4.3-6.8-12.9-6.8-12.9
	c5.5,1.1,14.7,2.3,22.7,0.3c0.2,0.2,5.4,6.3,15.1,3.1C293,204.6,293.5,205.2,294,205.9L294,205.9z"/>
<path id="path338" class="st14" d="M253.5,224.9c-3.4,3.2-6.7,4.3-9.7,4.1c-1.6-0.1-3.2-0.5-4.6-1.1c-5.9-2.7-9.8-9-9.8-9
	c2.9-0.8,5.5-2.4,7.5-4.6c2.4,1,4.9,1.7,7.5,1.9C246.7,219.8,249.8,222.8,253.5,224.9z"/>
<path id="path340" class="st15" d="M239.2,227.9c-4.6,3.3-9.7,6-15.1,7.8c-3.9,1.4-8.1,1.8-12.2,1.3l0,0c-5.7-0.9-10.6-4.5-13.2-9.6
	c3.5-0.9,7.9-3.9,13.3-10.7c2.3-0.1,4.5-0.5,6.6-1.3c0.2,0.2,4.6,4.9,10.8,3.5C229.4,218.9,233.3,225.2,239.2,227.9L239.2,227.9z"/>
<path id="path342" class="st16" d="M236.9,214.2c-2,2.2-4.6,3.9-7.5,4.6c-6.2,1.4-10.6-3.3-10.8-3.5c3.8-1.6,7.4-3.8,10.5-6.5
	C231.3,211.1,234,212.9,236.9,214.2L236.9,214.2z"/>
<path id="path344" class="st17" d="M248.6,238.4c-21.4,7.1-24.4-2.6-24.4-2.6c5.4-1.9,10.4-4.5,15.1-7.8c1.5,0.7,3,1,4.6,1.1
	C243.9,232.7,245.7,236.1,248.6,238.4z"/>
<path id="path346" class="st18" d="M307.5,170.4c-30,11.1-41.2-2.9-41.5-3.2l2.3-0.5c8.9-1.8,19.4-4.4,28.3-1.4
	C300.4,166.7,304.1,168.3,307.5,170.4L307.5,170.4z"/>
<path id="path348" class="st19" d="M224.9,257.1c-9.2,1.8-18.5,2.9-27.9,3.4c-4.8,0.1-9.5-1-13.8-3.2l0,0c-2.1-1.1-4-2.4-5.7-4.1
	c5.2,0.6,11.8-0.5,18.8-6.4c1.6,1.9,3.9,3.1,6.3,3.5C202.7,250.5,202.4,257.3,224.9,257.1L224.9,257.1z"/>
<path id="path350" class="st20" d="M150.2,268c3.1-4.6,6.3-9.4,10.3-13.2c0.3-0.2,6.5,2.2,7.1,2.3c4.8,1.1,9.8,1.3,14.6,0.4
	c0.4-0.1,0.8-0.1,1.2-0.1c0.4,0.1,0.8,0.2,1.1,0.4c3.9,1.8,8.2,2.6,12.4,2.5"/>
<path id="path352" class="st21" d="M183.2,257.3c-9.9,3.3-22.7-2.4-22.7-2.4c2-1.9,3.8-4.1,5.5-6.3c3.4,2.6,7.3,4.2,11.5,4.6l0,0
	C179.2,254.8,181.1,256.2,183.2,257.3z"/>
<path id="path354" class="st19" d="M204,233.6c-19.6,15.1-28.2,1.6-28.2,1.6c3.1-4.2,6.9-9.1,11.5-14.6c0,0,3.5,8.8,11.4,6.8
	C200,229.8,201.8,232,204,233.6z"/>
<path id="path356" class="st16" d="M212,216.6c-5.4,6.8-9.8,9.8-13.3,10.7c-8,2-11.4-6.8-11.4-6.8c3.2-3.8,6.8-7.9,10.8-12.3
	C198.1,208.3,202.5,216.7,212,216.6L212,216.6z"/>
<path id="path358" class="st19" d="M275.9,238.5c-3,1.7-6.1,3.3-9.1,4.8c-5.4,2.6-11,4.9-16.7,6.9l-1.6,0.6h-0.1
	c-17.4,5.3-26.8,0.4-31.6-5c-2.3-2.5-4-5.5-4.9-8.7c4.1,0.6,8.3,0.1,12.2-1.3c0,0,3,9.8,24.4,2.6l0,0
	C252.8,241.5,260.8,243.2,275.9,238.5L275.9,238.5z"/>
<path id="path360" class="st16" d="M248.4,250.7c-7.7,2.7-15.6,4.8-23.5,6.3l0,0c-22.5,0.3-22.3-6.5-22.2-6.7
	c-2.5-0.4-4.7-1.6-6.4-3.5c-7,5.8-13.6,7-18.8,6.4l0,0c-4.2-0.5-8.2-2.1-11.5-4.7c2.7-3.5,5.7-7.9,9.8-13.3c0,0,8.6,13.5,28.2-1.6
	c2.3,1.8,5.1,2.9,8,3.4l0,0c0.9,3.3,2.6,6.3,4.9,8.8C221.7,251.1,231,256,248.4,250.7L248.4,250.7z"/>
<path id="path362" class="st22" d="M292.6,227.5c-5.3,4.1-10.9,7.7-16.7,11l0,0c-15.1,4.7-23.1,3-27.3-0.1l0,0
	c-2.9-2.2-4.7-5.7-4.8-9.4c3,0.1,6.3-1,9.7-4.1c5.2,3,12.6,4.7,22.4,0.9C278.9,228.9,284.1,230.8,292.6,227.5z"/>
<path id="path364" class="st23" d="M307.5,213.6c-4.5,5.1-9.5,9.8-14.9,13.9c-8.5,3.2-13.7,1.4-16.7-1.8c-9.7,3.9-17.2,2.1-22.4-0.9
	c-3.7-2.1-6.8-5.2-9.1-8.8c4.7,0.4,10.4-0.2,17.1-2.8c3.9,2.7,9.9,3.7,19.3-0.1C281,213.4,290.9,226.3,307.5,213.6z"/>
<path id="path366" class="st24" d="M238.5,198.5c-6.1,2.6-10.9,3.2-14.6,2.8c-8.6-1-11.4-7.6-11.4-7.6c2.6-2.3,5.3-4.4,8.1-6.5l0,0
	l0,0l0,0l0.1,0.1l0.1,0.1l0.2,0.2l0.1,0.1l0.5,0.5l0.2,0.2l0.5,0.5c0.1,0.1,0.2,0.2,0.2,0.2c0.6,0.5,1.3,1.2,2.2,1.8l0.3,0.2
	l0.6,0.5l0.3,0.2l0.3,0.2l0.3,0.2l0.3,0.2c1.2,0.8,2.5,1.7,3.9,2.5l0.7,0.4l1.3,0.7c0.2,0.1,0.4,0.2,0.7,0.3l0.4,0.2l0.5,0.2
	l0.6,0.3l0.6,0.3l0.5,0.2l0.4,0.2l0.5,0.2l0.5,0.2l0.6,0.2L238.5,198.5z"/>
<path id="path368" class="st16" d="M261.6,213.3c-6.8,2.6-12.4,3.3-17.1,2.8c-2.6-0.2-5.1-0.9-7.5-1.9c-2.9-1.3-5.6-3.1-7.8-5.4
	c-2.2-2.2-3.9-4.7-5.2-7.5c3.7,0.4,8.5-0.2,14.6-2.8h0.1l0.7,0.2l0.5,0.1l0.6,0.1c0.2,0,0.3,0.1,0.4,0.1l0.6,0.1l0.5,0.1l0.6,0.1
	l0.9,0.1h0.3h0.4h0.3c0.4,0,0.8,0,1.2,0h0.5c0.5,0,1.1,0,1.6-0.1s1.1-0.1,1.6-0.2l0.6-0.1c0,0,1.9,0.6,4.9,1.1c0,0,0.6,8.6,6.8,12.9
	L261.6,213.3z"/>
<path id="path370" class="st19" d="M229.1,208.8c-3.1,2.7-6.7,4.9-10.5,6.5c-2.1,0.8-4.3,1.3-6.6,1.3c-9.5,0.1-13.9-8.4-13.9-8.4
	c2.5-2.7,5.1-5.5,8-8.4c1.3-1.3,2.6-2.6,3.9-3.8c0.9-0.8,1.7-1.6,2.6-2.3c0,0,2.8,6.6,11.4,7.6C225.2,204.1,227,206.7,229.1,208.8z"
	/>
<path id="path372" class="st25" d="M265.8,187.9c-5,7.1-10.5,10.4-15.9,11.4c-0.2,0-0.4,0.1-0.6,0.1c-0.5,0.1-1.1,0.2-1.6,0.2
	c-0.5,0-1.1,0.1-1.6,0.1h-0.5c-0.4,0-0.8,0-1.2,0h-0.3h-0.4h-0.3l-0.9-0.1l-0.6-0.1l-0.5-0.1l-0.6-0.1c-0.1,0-0.3-0.1-0.4-0.1
	l-0.6-0.1l-0.5-0.1l-0.7-0.2h-0.1l-0.4-0.1l-0.6-0.2l-0.5-0.2l-0.5-0.2l-0.5-0.2l-0.5-0.2l-0.6-0.3l-0.6-0.3l-0.5-0.2
	c-0.2-0.1-0.3-0.1-0.4-0.2s-0.4-0.2-0.7-0.3c-0.4-0.2-0.9-0.4-1.3-0.7l-0.7-0.4c-1.4-0.8-2.7-1.7-3.8-2.5l-0.3-0.2l-0.3-0.2
	l-0.3-0.2l-0.3-0.2l-0.6-0.5l-0.3-0.2c-0.9-0.7-1.6-1.3-2.2-1.8l-0.2-0.2c-0.2-0.2-0.4-0.3-0.5-0.5l-0.3-0.2
	c-0.2-0.2-0.4-0.4-0.5-0.5l-0.1-0.1l-0.2-0.2c0,0-0.1-0.1-0.1-0.1l-0.1-0.1v-0.1l0,0l0,0c3.3-2.4,6.7-4.5,10.2-6.5
	c0,0,13.1,11.4,34.9,7.1L265.8,187.9z"/>
<path id="path374" class="st7" d="M285.3,180.4c-6.1,3.5-12.7,6.1-19.6,7.5c-21.7,4.3-34.9-7.1-34.9-7.1c3-1.7,6.2-3.3,9.4-4.8
	c1.8-0.8,3.6-1.6,5.4-2.3l0,0c10.6,7.1,24,8.7,35.9,4.2C282.7,178.8,284,179.7,285.3,180.4L285.3,180.4z"/>
<path id="path376" class="st26" d="M319.3,189.5c-0.3,5-1.8,9.8-4.5,14c-11.3,10.5-18.1,5.5-20.8,2.3c-0.5-0.6-1-1.3-1.4-2
	c-9.6,3.1-14.9-2.9-15.1-3.1c-8,2-17.2,0.8-22.7-0.3c-3-0.6-4.9-1.1-4.9-1.1c5.4-1,10.9-4.4,15.9-11.4c6.9-1.4,13.5-4,19.6-7.5
	c0.7,0.4,1.5,0.8,2.5,1.2c0,0-7.4,10.3,11.1,10.9S319.3,189.5,319.3,189.5L319.3,189.5z"/>
<path id="path378" class="st27" d="M314.8,203.6c-2.2,3.6-4.6,6.9-7.3,10.1c-16.6,12.7-26.5-0.2-26.7-0.5c4.6-2,9-4.4,13.2-7.3
	C296.8,209.1,303.6,214,314.8,203.6L314.8,203.6z"/>
<path id="path380" class="st28" d="M319.3,189.5c0,0-1.9,3.4-20.4,2.9s-11.1-10.9-11.1-10.9c6,2.5,16,4.5,29.4-1.3
	c1.3,2.5,2.1,5.3,2.1,8.1V189.5z"/>
<path id="path382" class="st16" d="M317.2,180.2c-13.3,5.8-23.4,3.9-29.4,1.3c-0.9-0.4-1.7-0.8-2.5-1.2c-1.4-0.7-2.6-1.6-3.8-2.6
	c-11.9,4.5-25.3,2.9-35.9-4.2c6.6-2.7,13.5-4.8,20.4-6.4c0.2,0.3,11.4,14.3,41.5,3.2C311.5,172.8,314.9,176.2,317.2,180.2z"/>
</svg>
