<svg id="Layer_1" data-name="Layer 1" xmlns="http://www.w3.org/2000/svg" viewBox="0 0 512 512"><defs><style>.cls-1{fill:#fff;}.cls-2{fill:#ffc6ab;}.cls-3{fill:#e90037;}.cls-4{fill:#c70f00;}.cls-5{fill:#951b00;}.cls-6{fill:#b30037;}</style></defs><rect class="cls-1" x="0.33" y="-0.35" width="512" height="512"/><rect class="cls-2" x="31.33" y="30.65" width="450" height="450"/><path class="cls-3" d="M90.33,223.65c2.49-7.94,26.64-9.18,45-21,13.34-8.6,12.06-12.69,37-35,16.67-14.93,21.74-17.13,27-18,4.4-.74,11.52-1,30,7s23.74,13.51,36,20c11.22,5.93,33.14,17.53,58,14,28.56-4.06,47.48-26.17,49-28,14.05-16.89,13.25-31.39,30-40,3.5-1.8,13.13-7.56,23-4,25,9,21,16,30,28,7.64,10.18,19.2,13.24,26,16v318h-450c5-88.14,32.8-132.6,59-157,15.69-14.62,44.21-34.52,41-58C128.35,243.91,86.11,237.09,90.33,223.65Z"/><rect class="cls-3" x="142.84" y="189.64" width="1.61" height="14.58"/><polygon class="cls-3" points="143.49 175.86 145.49 183.88 147.49 191.89 143.49 191.89 139.49 191.89 141.49 183.88 143.49 175.86"/><rect class="cls-3" x="197.68" y="145.57" width="1.61" height="14.58"/><polygon class="cls-3" points="198.33 131.79 200.33 139.8 202.33 147.82 198.33 147.82 194.34 147.82 196.34 139.8 198.33 131.79"/><rect class="cls-3" x="301.68" y="193.58" width="1.61" height="11.57"/><polygon class="cls-3" points="302.33 182.65 304.33 189 306.33 195.36 302.33 195.36 298.34 195.36 300.33 189 302.33 182.65"/><rect class="cls-3" x="209.68" y="145.58" width="1.61" height="14.58"/><polygon class="cls-3" points="210.33 131.8 212.33 139.81 214.32 147.82 210.33 147.82 206.33 147.82 208.33 139.81 210.33 131.8"/><rect class="cls-3" x="412.85" y="114.67" width="1.21" height="10.93"/><polygon class="cls-3" points="413.33 104.34 414.83 110.35 416.33 116.36 413.33 116.36 410.34 116.36 411.83 110.35 413.33 104.34"/><rect class="cls-3" x="422" y="114.78" width="0.81" height="7.3"/><polygon class="cls-3" points="422.33 107.88 423.33 111.89 424.33 115.9 422.33 115.9 420.33 115.9 421.33 111.89 422.33 107.88"/><polygon class="cls-3" points="399.33 120.47 401.33 125.06 403.32 129.65 399.33 129.65 395.33 129.65 397.33 125.06 399.33 120.47"/><polygon class="cls-3" points="402.33 119.47 404.33 124.06 406.32 128.65 402.33 128.65 398.33 128.65 400.33 124.06 402.33 119.47"/><rect class="cls-3" x="296.68" y="195.04" width="1.61" height="13.12"/><polygon class="cls-3" points="297.33 182.65 299.33 189.85 301.32 197.06 297.33 197.06 293.33 197.06 295.33 189.85 297.33 182.65"/><ellipse class="cls-3" cx="225.98" cy="156.31" rx="5.38" ry="5.4"/><ellipse class="cls-3" cx="221.98" cy="153.3" rx="5.38" ry="5.4"/><ellipse class="cls-3" cx="120.63" cy="208.79" rx="7.69" ry="7.72"/><ellipse class="cls-3" cx="128.64" cy="206.09" rx="7.69" ry="7.72"/><ellipse class="cls-3" cx="349.98" cy="184.3" rx="6.35" ry="6.37"/><ellipse class="cls-3" cx="466.98" cy="153.3" rx="6.35" ry="6.37"/><ellipse class="cls-3" cx="468.98" cy="159.3" rx="6.35" ry="6.37"/><ellipse class="cls-3" cx="458.98" cy="153.3" rx="6.35" ry="6.37"/><path class="cls-4" d="M31.33,237.65c11.15-10.41,30.71-24.72,54-23,13,1,24.17,7.65,46,21,30.87,18.87,28,22.52,42,29,25.64,11.9,33.68-1.12,94,3,44.12,3,57.47,11.17,63,15,15.12,10.47,16.15,19.31,27,21,18.68,2.9,30.41-21,60-43,12.67-9.44,33.16-21.91,64-30q-.49,124.5-1,249l-449,1Z"/><rect class="cls-4" x="176.87" y="259.32" width="2.41" height="21.85"/><polygon class="cls-4" points="177.84 238.67 180.84 250.68 183.83 262.68 177.84 262.68 171.86 262.68 174.85 250.68 177.84 238.67"/><rect class="cls-4" x="188.82" y="252.32" width="2.41" height="21.85"/><polygon class="cls-4" points="189.8 231.67 192.79 243.68 195.78 255.68 189.8 255.68 183.81 255.68 186.81 243.68 189.8 231.67"/><rect class="cls-4" x="58.06" y="212.47" width="1.82" height="16.54"/><polygon class="cls-4" points="58.8 196.83 61.06 205.92 63.33 215.01 58.8 215.01 54.27 215.01 56.53 205.92 58.8 196.83"/><polygon class="cls-4" points="289.88 251.15 298.38 274.86 306.89 289.65 289.88 289.65 272.87 289.65 281.38 274.86 289.88 251.15"/><polygon class="cls-4" points="276.93 253.65 286.43 274.86 294.94 289.65 277.93 289.65 260.92 289.65 269.42 274.86 276.93 253.65"/><polygon class="cls-4" points="411.88 257.15 420.38 280.86 428.89 295.65 411.88 295.65 394.87 295.65 403.38 280.86 411.88 257.15"/><polygon class="cls-4" points="398.93 259.65 408.43 280.86 416.94 295.65 399.93 295.65 382.92 295.65 391.42 280.86 398.93 259.65"/><ellipse class="cls-4" cx="127.08" cy="232.67" rx="8.96" ry="9"/><ellipse class="cls-4" cx="135.04" cy="241.67" rx="8.96" ry="9"/><ellipse class="cls-4" cx="235.04" cy="266.67" rx="8.96" ry="9"/><ellipse class="cls-4" cx="348.73" cy="306.17" rx="8.47" ry="8.5"/><ellipse class="cls-4" cx="354.71" cy="299.17" rx="8.47" ry="8.5"/><ellipse class="cls-4" cx="363.67" cy="305.17" rx="8.47" ry="8.5"/><rect class="cls-4" x="420.87" y="249.32" width="2.41" height="21.85"/><polygon class="cls-4" points="421.85 228.67 424.84 240.68 427.83 252.68 421.85 252.68 415.86 252.68 418.85 240.68 421.85 228.67"/><rect class="cls-4" x="438.82" y="238.32" width="2.41" height="21.85"/><polygon class="cls-4" points="439.8 217.67 442.79 229.68 445.78 241.68 439.8 241.68 433.81 241.68 436.81 229.68 439.8 217.67"/><path class="cls-5" d="M30.83,282.15a192.48,192.48,0,0,0,9,32,181,181,0,0,0,11,24c3.24,5.6,18,27.44,91,34,65.59,5.89,70.83-10.21,123,0,20.77,4.06,32.16,9,61,12,30.09,3.13,46.78,4.86,65-3,17.47-7.55,20.32-17,50-45a503.48,503.48,0,0,1,40-34v178h-450Z"/><rect class="cls-5" x="86.15" y="348.04" width="2.82" height="22.39"/><polygon class="cls-5" points="87.44 316.65 91.23 333.89 95.03 351.13 87.44 351.13 79.84 351.13 83.64 333.89 87.44 316.65"/><rect class="cls-5" x="321.15" y="375.04" width="2.82" height="22.39"/><polygon class="cls-5" points="322.44 343.65 326.23 360.89 330.03 378.13 322.44 378.13 314.84 378.13 318.64 360.89 322.44 343.65"/><rect class="cls-5" x="340.44" y="379.03" width="2.19" height="17.37"/><polygon class="cls-5" points="341.44 354.68 344.38 368.05 347.33 381.43 341.44 381.43 335.54 381.43 338.49 368.05 341.44 354.68"/><rect class="cls-5" x="379.61" y="378.44" width="1.82" height="14.42"/><polygon class="cls-5" points="380.44 358.22 382.88 369.32 385.33 380.43 380.44 380.43 375.54 380.43 377.99 369.32 380.44 358.22"/><polygon class="cls-5" points="128.29 355.95 136.83 370.8 145.36 385.65 128.29 385.65 111.21 385.65 119.75 370.8 128.29 355.95"/><polygon class="cls-5" points="145.29 354.52 153.83 372.8 162.36 387.65 145.29 387.65 128.21 387.65 136.75 372.8 145.29 354.52"/><ellipse class="cls-5" cx="189.59" cy="376.93" rx="15.22" ry="15.28"/><ellipse class="cls-5" cx="203.8" cy="365.97" rx="15.22" ry="15.28"/><ellipse class="cls-5" cx="273.8" cy="374.97" rx="15.22" ry="15.28"/><ellipse class="cls-5" cx="217.62" cy="377.58" rx="15.22" ry="15.28"/><ellipse class="cls-5" cx="283.62" cy="385.58" rx="15.22" ry="15.28"/><circle class="cls-6" cx="95.33" cy="81.65" r="28"/></svg>