<?xml version="1.0" encoding="utf-8"?>
<!-- Generator: Adobe Illustrator 25.2.0, SVG Export Plug-In . SVG Version: 6.00 Build 0)  -->
<svg version="1.1" id="Layer_1" xmlns="http://www.w3.org/2000/svg" xmlns:xlink="http://www.w3.org/1999/xlink" x="0px" y="0px"
	 viewBox="0 0 480 480" style="enable-background:new 0 0 480 480;" xml:space="preserve">
<style type="text/css">
	.st0{fill:#FFE1B2;}
	.st1{fill:#FFEDE1;}
	.st2{fill:#FFDD89;stroke:#000000;stroke-width:0.25;stroke-miterlimit:10;}
	.st3{fill:#E8EDFF;stroke:#000000;stroke-width:0.25;stroke-miterlimit:10;}
	.st4{fill:#FFD7BD;stroke:#000000;stroke-width:0.25;stroke-miterlimit:10;}
	.st5{fill:#FFB29A;stroke:#000000;stroke-width:0.25;stroke-miterlimit:10;}
	.st6{fill:#E8EDFF;stroke:#000000;stroke-width:0.75;stroke-miterlimit:10;}
</style>
<rect class="st0" width="480" height="480"/>
<g>
	<path class="st1" d="M139.6,134.1c-17.6,9.2-29.4,30.5-28.3,49.9c1.2,21.2,17.1,28.6,28.3,48.5c10.2,18.2,17.2,48.3,0,99.7
		c95.3-4,87.4,51.2,132.8,65.4c56.1,17.2,96.5-40.6,96.4-97.7c-0.3-43.4-27-55.4-28.3-115.9c0.9-26.2,0.7-106.9-28.3-115.9
		c-15.3-4.4-35.3,12.4-45.1,26.3c-16.7,23.6-7.9,43.9-21.6,51.2c-10.9,5.9-19.3-5.6-52.6-12.1C171.3,129.2,155.1,126,139.6,134.1z"
		/>
</g>
<path d="M251.5,68.1c-19.5,16-13,45.6-27,49.9c-8.9,2.7-20.1-6.7-29.6-17.5c-48.4,16.7-58.7,27.1-58,33.7c1.3,10.8,32.2,9.1,58,32.3
	c16.9,15.2,24.5,34.8,28.3,49.9c41.3,10.7,76.6,3.1,86.3-16.2c6.1-12.2,1.6-28.2,0-33.7c-8-27.9-28.3-30.6-29.6-48.5
	c-1.8-24.3,34.4-37.6,29.6-49.9C305.2,57.1,270.5,52.4,251.5,68.1z"/>
<path d="M251.5,268.9c-19.5,16-13,45.6-27,49.9c-8.9,2.7-20.1-6.7-29.6-17.5c-48.4,16.7-58.7,27.1-58,33.7
	c1.3,10.8,32.2,9.1,58,32.3c16.9,15.2,24.5,34.8,28.3,49.9c41.3,10.7,76.6,3.1,86.3-16.2c6.1-12.2,1.6-28.2,0-33.7
	c-8-27.9-28.3-30.6-29.6-48.5c-1.8-24.3,34.4-37.6,29.6-49.9C305.2,257.9,270.5,253.2,251.5,268.9z"/>
<g>
	<g>
		<path class="st2" d="M50.7,178.1c-2.5,0.3-4.8,2.3-5.5,4.7c-0.8,2.6,0.8,4.1,1.2,7c0.4,2.6-0.1,6.5-4.4,11.8
			c4.7,1.4,7,3.6,8.2,5.5c2.1,3.1,1.7,5.9,4.7,8.1c0.3,0.2,2.3,1.7,4.9,1.7c4.7,0,9.1-4.5,10.8-9.1c1.9-5.2-0.8-7.8,1.7-15
			c0.6-1.7,0.9-2,1.5-4c0.8-2.7,2.7-9.2,0.2-11c-1.6-1.2-4.7-0.1-6.5,1.1c-3,2.1-2.9,4.9-4.8,5.1c-1.5,0.2-2.1-1.5-5.7-3.7
			C54.7,178.9,52.9,177.8,50.7,178.1z"/>
	</g>
	<g>
		<path d="M66.9,175.1c-3,1.1-3.5,4.8-5.4,4.7c-1.2-0.1-2.1-1.7-2.8-3.4c-6.5-0.1-8.1,0.7-8.3,1.5c-0.3,1.3,3.4,2.5,5.5,6.4
			c1.3,2.5,1.4,5.2,1.2,7.1c4.4,3.1,8.9,3.7,10.9,1.8c1.3-1.2,1.4-3.3,1.5-4c0.3-3.7-2-4.9-1.4-7c0.8-3,5.7-3,5.7-4.6
			C73.7,176.2,69.8,174.1,66.9,175.1z"/>
		<path d="M58.1,198.9c-3,1.1-3.5,4.8-5.4,4.7c-1.2-0.1-2.1-1.7-2.8-3.4c-6.5-0.1-8.1,0.7-8.3,1.5c-0.3,1.3,3.4,2.5,5.5,6.4
			c1.3,2.5,1.4,5.2,1.2,7.1c4.4,3.1,8.9,3.7,10.9,1.8c1.3-1.2,1.4-3.3,1.5-4c0.3-3.7-2-4.9-1.4-7c0.8-3,5.7-3,5.7-4.6
			C65,200,61,197.9,58.1,198.9z"/>
	</g>
</g>
<g>
	<g>
		<path class="st3" d="M417.3,336.6c-2.2,1.2-3.7,3.9-3.6,6.3c0.1,2.7,2.2,3.6,3.6,6.1c1.3,2.3,2.2,6.1,0,12.6
			c4.9-0.3,7.8,1,9.6,2.3c3,2.2,3.7,4.9,7.2,6c0.4,0.1,2.7,0.8,5.2-0.1c4.4-1.6,7-7.4,7-12.3c0-5.5-3.4-7-3.6-14.6
			c0-1.8,0.1-2.2,0-4.3c-0.2-2.8-0.7-9.5-3.6-10.4c-1.9-0.6-4.5,1.6-5.7,3.3c-2.1,3-1,5.5-2.7,6.5c-1.4,0.7-2.4-0.7-6.6-1.5
			C421.3,336,419.3,335.6,417.3,336.6z"/>
	</g>
	<g>
		<path d="M431.5,328.3c-2.5,2-1.6,5.8-3.4,6.3c-1.1,0.3-2.5-0.8-3.7-2.2c-6.1,2.1-7.4,3.4-7.3,4.3c0.2,1.4,4.1,1.1,7.3,4.1
			c2.1,1.9,3.1,4.4,3.6,6.3c5.2,1.4,9.7,0.4,10.9-2c0.8-1.5,0.2-3.6,0-4.3c-1-3.5-3.6-3.9-3.7-6.1c-0.2-3.1,4.3-4.8,3.7-6.3
			C438.2,326.9,433.9,326.3,431.5,328.3z"/>
		<path d="M431.5,353.6c-2.5,2-1.6,5.8-3.4,6.3c-1.1,0.3-2.5-0.8-3.7-2.2c-6.1,2.1-7.4,3.4-7.3,4.3c0.2,1.4,4.1,1.1,7.3,4.1
			c2.1,1.9,3.1,4.4,3.6,6.3c5.2,1.4,9.7,0.4,10.9-2c0.8-1.5,0.2-3.6,0-4.3c-1-3.5-3.6-3.9-3.7-6.1c-0.2-3.1,4.3-4.8,3.7-6.3
			C438.2,352.3,433.9,351.7,431.5,353.6z"/>
	</g>
</g>
<g>
	<g>
		<path class="st4" d="M73.9,340.3c-2.3,0.9-4.1,3.4-4.3,5.9c-0.2,2.7,1.7,3.8,2.9,6.5c1,2.4,1.5,6.3-1.4,12.5
			c4.9,0.3,7.6,1.9,9.3,3.4c2.7,2.5,3.1,5.3,6.4,6.7c0.4,0.2,2.6,1.1,5.2,0.5c4.6-1.1,7.8-6.5,8.3-11.4c0.6-5.5-2.6-7.3-1.9-15
			c0.2-1.8,0.4-2.2,0.5-4.2c0.1-2.8,0.4-9.6-2.4-10.7c-1.9-0.8-4.6,1.1-6,2.7c-2.4,2.7-1.6,5.4-3.4,6.1c-1.4,0.6-2.4-1-6.4-2.3
			C77.9,340.1,76,339.5,73.9,340.3z"/>
	</g>
	<g>
		<path d="M88.9,333.6c-2.7,1.7-2.3,5.5-4.1,5.9c-1.2,0.2-2.4-1.1-3.5-2.6c-6.3,1.4-7.8,2.6-7.8,3.4c0,1.4,3.9,1.6,6.8,4.9
			c1.9,2.2,2.6,4.7,2.8,6.7c5,1.9,9.6,1.5,11.1-0.8c0.9-1.4,0.6-3.5,0.5-4.2c-0.6-3.6-3.1-4.2-3-6.5c0.1-3.1,4.8-4.2,4.4-5.8
			C95.8,333,91.5,331.9,88.9,333.6z"/>
		<path d="M86,358.8c-2.7,1.7-2.3,5.5-4.1,5.9c-1.2,0.2-2.4-1.1-3.5-2.6c-6.3,1.4-7.8,2.6-7.8,3.4c0,1.4,3.9,1.6,6.8,4.9
			c1.9,2.2,2.6,4.7,2.8,6.7c5,1.9,9.6,1.5,11.1-0.8c0.9-1.4,0.6-3.5,0.5-4.2c-0.6-3.6-3.1-4.2-3-6.5c0.1-3.1,4.8-4.2,4.4-5.8
			C92.9,358.2,88.6,357.1,86,358.8z"/>
	</g>
</g>
<g>
	<g>
		<path class="st5" d="M415.3,168.6c-2.2,1.2-3.7,3.9-3.6,6.3c0.1,2.7,2.2,3.6,3.6,6.1c1.3,2.3,2.2,6.1,0,12.6
			c4.9-0.3,7.8,1,9.6,2.3c3,2.2,3.7,4.9,7.2,6c0.4,0.1,2.7,0.8,5.2-0.1c4.4-1.6,7-7.4,7-12.3c0-5.5-3.4-7-3.6-14.6
			c0-1.8,0.1-2.2,0-4.3c-0.2-2.8-0.7-9.5-3.6-10.4c-1.9-0.6-4.5,1.6-5.7,3.3c-2.1,3-1,5.5-2.7,6.5c-1.4,0.7-2.4-0.7-6.6-1.5
			C419.3,168,417.3,167.6,415.3,168.6z"/>
	</g>
	<g>
		<path d="M429.5,160.3c-2.5,2-1.6,5.8-3.4,6.3c-1.1,0.3-2.5-0.8-3.7-2.2c-6.1,2.1-7.4,3.4-7.3,4.3c0.2,1.4,4.1,1.1,7.3,4.1
			c2.1,1.9,3.1,4.4,3.6,6.3c5.2,1.4,9.7,0.4,10.9-2c0.8-1.5,0.2-3.6,0-4.3c-1-3.5-3.6-3.9-3.7-6.1c-0.2-3.1,4.3-4.8,3.7-6.3
			C436.2,158.9,431.9,158.3,429.5,160.3z"/>
		<path d="M429.5,185.6c-2.5,2-1.6,5.8-3.4,6.3c-1.1,0.3-2.5-0.8-3.7-2.2c-6.1,2.1-7.4,3.4-7.3,4.3c0.2,1.4,4.1,1.1,7.3,4.1
			c2.1,1.9,3.1,4.4,3.6,6.3c5.2,1.4,9.7,0.4,10.9-2c0.8-1.5,0.2-3.6,0-4.3c-1-3.5-3.6-3.9-3.7-6.1c-0.2-3.1,4.3-4.8,3.7-6.3
			C436.2,184.3,431.9,183.7,429.5,185.6z"/>
	</g>
</g>
<line class="st6" x1="27" y1="24" x2="144" y2="24"/>
<line class="st6" x1="27" y1="24" x2="27" y2="56.8"/>
<line class="st6" x1="37.2" y1="24" x2="37.2" y2="38.2"/>
<line class="st6" x1="54.3" y1="24" x2="54.3" y2="70.4"/>
<line class="st6" x1="76.5" y1="24" x2="76" y2="42"/>
<line class="st6" x1="97.2" y1="24" x2="97.2" y2="53"/>
<line class="st6" x1="63.7" y1="24" x2="63.7" y2="42"/>
<line class="st6" x1="45.3" y1="24" x2="45.3" y2="40.4"/>
<line class="st6" x1="29.8" y1="24" x2="29.8" y2="49"/>
<line class="st6" x1="85.5" y1="24" x2="85.5" y2="51.2"/>
<line class="st6" x1="107.1" y1="24" x2="107.1" y2="38.5"/>
<line class="st6" x1="116.3" y1="24" x2="116.3" y2="35"/>
<line class="st6" x1="127.6" y1="24" x2="127.6" y2="47.2"/>
<line class="st6" x1="144" y1="24" x2="144" y2="47.2"/>
<line class="st6" x1="139.8" y1="24" x2="139.8" y2="42"/>
<line class="st6" x1="121.7" y1="24" x2="121.7" y2="44.8"/>
<line class="st6" x1="103" y1="24" x2="103" y2="38.2"/>
<line class="st6" x1="91.8" y1="24" x2="91.8" y2="71"/>
<line class="st6" x1="70.6" y1="24" x2="70.6" y2="31.2"/>
<line class="st6" x1="58.7" y1="24" x2="58.7" y2="47.2"/>
<line class="st6" x1="50.4" y1="24" x2="50.4" y2="51.2"/>
<line class="st6" x1="111.3" y1="24" x2="111.3" y2="58"/>
<line class="st6" x1="81.6" y1="24" x2="81.6" y2="58"/>
</svg>
