<svg id="Layer_1" data-name="Layer 1" xmlns="http://www.w3.org/2000/svg" viewBox="0 0 546.4 307.2"><defs><style>.cls-1{fill:#fef5f9;}.cls-2,.cls-5{fill:#231f20;}.cls-3{fill:none;stroke:#231f20;stroke-miterlimit:10;stroke-width:1.17px;}.cls-4,.cls-5{isolation:isolate;}.cls-5{font-size:15px;font-family:Poppins-ThinItalic, Poppins;font-weight:200;font-style:italic;}</style></defs><rect class="cls-1" x="-0.01" y="0.49" width="546.01" height="306.51"/><path class="cls-2" d="M266.07,119.08v.43a1.06,1.06,0,0,0,.09.39.77.77,0,0,0,.95.55h.27a1.08,1.08,0,0,0,.46-.27L268,120a1.14,1.14,0,0,0,.13-.51v-.38a.9.9,0,0,0,0-.4.91.91,0,0,0-.22-.33.93.93,0,0,0-.33-.21.68.68,0,0,0-.39-.09h-.28a1.06,1.06,0,0,0-.47.27l-.15.21a.91.91,0,0,0-.14.51Z"/><path class="cls-2" d="M292.63,120.73a1,1,0,0,0,0-2.07,1.06,1.06,0,0,0-.91,1.17A1,1,0,0,0,292.63,120.73Z"/><circle class="cls-3" cx="279.97" cy="125.98" r="31.03"/><path class="cls-2" d="M278.43,157.41c-.15,28.27,0,56.56-.89,84.8-.28,8-.66,16-1.22,24a.62.62,0,0,0,1.24,0c1.93-28.08,1.85-56.34,2-84.51l.13-24.31a.63.63,0,0,0-.72-.52.65.65,0,0,0-.52.52Z"/><path class="cls-2" d="M277.59,157.08a100.43,100.43,0,0,0-23.13,54.28c0,.79,1.15.78,1.24,0A98.91,98.91,0,0,1,278.47,158C279,157.36,278.1,156.47,277.59,157.08Z"/><path class="cls-2" d="M278.55,158.07a58.71,58.71,0,0,1,24.58,49.13.62.62,0,0,0,1.24,0,60,60,0,0,0-25.19-50.12c-.66-.46-1.28.61-.63,1.08Z"/><path class="cls-2" d="M276.35,266l-17.22,39.84c-.31.73.75,1.37,1.06.63l17.23-39.84c.32-.71-.76-1.35-1.07-.61Z"/><path class="cls-2" d="M276.48,267a25.28,25.28,0,0,1,5.95,8.58c1.79,3.62,3.62,7.2,5.6,10.71,4.05,7.12,8.55,14,13,20.83.43.66,1.51,0,1.08-.62-4.63-7.06-9.26-14.13-13.39-21.48-2-3.49-3.73-7.06-5.52-10.63a24.71,24.71,0,0,0-5.86-8.26C276.76,265.61,275.87,266.48,276.48,267Z"/><polygon class="cls-2" points="287.55 139.57 275.94 138.29 275.99 137.9 287.59 139.15 287.55 139.57"/><g class="cls-4"><text class="cls-5" transform="translate(115.03 49.85)">You did not get hit by a car today</text><text class="cls-5" transform="translate(115.03 69.24)">because this guy decided to stay at home.</text></g></svg>