<svg id="Layer_1" data-name="Layer 1" xmlns="http://www.w3.org/2000/svg" viewBox="0 0 1920 1080"><defs><style>.cls-1{fill:#100520;}.cls-2{fill:none;stroke:#fff;stroke-miterlimit:10;opacity:0.13;}</style></defs><rect class="cls-1" width="1920" height="1080"/><line class="cls-2" x1="187.66" y1="962.05" x2="299.3" y2="1073.7"/><line class="cls-2" x1="249.53" y1="809.67" x2="488.93" y2="1049.07"/><line class="cls-2" x1="343.22" y1="689.11" x2="698.89" y2="1044.78"/><line class="cls-2" x1="421.35" y1="552.99" x2="835.01" y2="966.65"/><line class="cls-2" x1="557.47" y1="474.85" x2="913.15" y2="830.53"/><line class="cls-2" x1="717.63" y1="420.76" x2="967.24" y2="670.37"/><line class="cls-2" x1="785.16" y1="274.03" x2="1113.97" y2="602.84"/><line class="cls-2" x1="857.64" y1="132.26" x2="1255.74" y2="530.36"/><line class="cls-2" x1="949.32" y1="9.68" x2="1441.36" y2="501.72"/><line class="cls-2" x1="1158.94" y1="5.06" x2="1477.77" y2="323.89"/><line class="cls-2" x1="1386.57" y1="18.43" x2="1690.26" y2="322.12"/><line class="cls-2" x1="1586.7" y1="4.3" x2="1676.47" y2="94.08"/><line class="cls-2" x1="6.38" y1="253.62" x2="83.72" y2="330.95"/><line class="cls-2" x1="10.41" y1="142.59" x2="159.85" y2="292.03"/><line class="cls-2" x1="11.93" y1="29.07" x2="259.52" y2="276.66"/><line class="cls-2" x1="103.95" y1="6.05" x2="279.07" y2="181.16"/><line class="cls-2" x1="212.48" y1="-0.48" x2="393.17" y2="180.21"/><line class="cls-2" x1="330.5" y1="2.5" x2="385.76" y2="57.76"/><line class="cls-2" x1="1565.9" y1="1048.18" x2="1595.36" y2="1077.64"/><line class="cls-2" x1="1602.16" y1="969.4" x2="1703.38" y2="1070.62"/><line class="cls-2" x1="1641.08" y1="893.27" x2="1821.91" y2="1074.09"/><line class="cls-2" x1="1656.46" y1="793.6" x2="1902.93" y2="1040.07"/><line class="cls-2" x1="1751.95" y1="774.04" x2="1909.45" y2="931.55"/><line class="cls-2" x1="1752.9" y1="659.95" x2="1904.98" y2="812.02"/><line class="cls-2" x1="1875.35" y1="667.35" x2="1914.5" y2="706.5"/></svg>