<svg id="Layer_1" data-name="Layer 1" xmlns="http://www.w3.org/2000/svg" viewBox="0 0 512 512"><defs><style>.cls-1,.cls-3{fill:#fff;}.cls-1,.cls-2,.cls-3{stroke:#000;stroke-miterlimit:10;}.cls-1{stroke-width:4px;}.cls-2,.cls-3{stroke-width:3px;}</style></defs><ellipse class="cls-1" cx="480.78" cy="218.17" rx="60.62" ry="62.37"/><circle cx="510.44" cy="202.31" r="2.9"/><circle cx="491.31" cy="210.18" r="2.9"/><line class="cls-2" x1="497.17" y1="241.69" x2="511.92" y2="239.1"/><line class="cls-2" x1="324.94" y1="471.74" x2="338.21" y2="463.45"/><circle class="cls-3" cx="164.96" cy="327.68" r="41.39"/><circle cx="168.77" cy="323.64" r="2.23"/><circle cx="183.7" cy="317.57" r="2.3"/><circle class="cls-3" cx="68.2" cy="462.91" r="68.2"/><circle cx="88.44" cy="439.31" r="2.9"/><circle cx="70.31" cy="456.18" r="2.9"/><circle cx="415.94" cy="260.74" r="2.38"/><circle cx="439.03" cy="252.84" r="2.38"/><line class="cls-2" x1="432.74" y1="284.47" x2="444.73" y2="279.25"/><circle class="cls-1" cx="477.39" cy="309.02" r="74.61"/><circle cx="476.15" cy="304.06" r="2.78"/><circle cx="500.74" cy="291.35" r="2.78"/><line class="cls-2" x1="497.75" y1="327.36" x2="512.51" y2="324.77"/><circle cx="345.31" cy="442.18" r="2.9"/><circle class="cls-3" cx="163.79" cy="406.95" r="57.71"/><circle cx="169.31" cy="398.18" r="2.9"/><circle cx="193.44" cy="389.31" r="2.9"/><circle class="cls-3" cx="317.76" cy="230.22" r="41.39"/><circle cx="326.77" cy="228.64" r="2.23"/><circle cx="339.85" cy="224.64" r="2.36"/><circle class="cls-3" cx="293.2" cy="274.05" r="48.38"/><circle cx="294.44" cy="270.31" r="2.9"/><circle cx="314.31" cy="261.18" r="2.9"/><circle class="cls-3" cx="253.74" cy="349.65" r="63.35"/><line class="cls-2" x1="273.5" y1="371.19" x2="287.2" y2="368.79"/><circle cx="283.97" cy="324.4" r="2.7"/><circle cx="258.77" cy="331.71" r="2.7"/><line class="cls-2" x1="194.5" y1="417.19" x2="208.2" y2="414.79"/><circle class="cls-3" cx="155.05" cy="487.97" r="68.2"/><circle cx="168.44" cy="480.31" r="2.9"/><circle cx="190.31" cy="472.18" r="2.9"/><line class="cls-2" x1="181" y1="511" x2="191.31" y2="508.39"/><ellipse class="cls-1" cx="402.78" cy="229.17" rx="60.62" ry="62.37"/><circle cx="438.44" cy="215.31" r="2.9"/><circle cx="410.31" cy="218.18" r="2.9"/><circle class="cls-1" cx="367.97" cy="318.52" r="74.61"/><circle cx="372.56" cy="312.38" r="2.78"/><circle cx="397.15" cy="299.67" r="2.78"/><line class="cls-2" x1="394.17" y1="335.69" x2="408.92" y2="333.1"/><circle class="cls-1" cx="281.54" cy="448.92" r="90.93"/><circle cx="281.44" cy="430.31" r="2.9"/><line class="cls-2" x1="309.84" y1="457.81" x2="325.31" y2="455.39"/><circle cx="310.44" cy="413.31" r="2.9"/><circle class="cls-1" cx="435.42" cy="452.42" r="109.58"/><circle cx="429.01" cy="433.18" r="4.08"/><circle cx="470.98" cy="420.36" r="4.08"/><line class="cls-2" x1="456.41" y1="481.56" x2="475.06" y2="469.9"/></svg>