<svg xmlns="http://www.w3.org/2000/svg" viewBox="0 0 372.67 183.08"><defs><style>.cls-1,.cls-2{fill:#30343f;}.cls-2{font-size:114px;font-family:CenturyGothic, Century Gothic;}</style></defs><g id="Layer_2" data-name="Layer 2"><g id="Layer_1-2" data-name="Layer 1"><path class="cls-1" d="M0,1.56H7.79V12a30.13,30.13,0,0,1,8.36-8.46A23.75,23.75,0,0,1,28.58,0a20.72,20.72,0,0,1,8.36,1.73A17.92,17.92,0,0,1,43.4,6.32a24.75,24.75,0,0,1,4.35,8.21A28.76,28.76,0,0,1,57.47,3.7,23,23,0,0,1,70,0,19.68,19.68,0,0,1,81.1,3.17,18.94,18.94,0,0,1,88.23,12q2.34,5.69,2.34,17V62.12h-8V29.06q0-9.75-1.39-13.39A12.06,12.06,0,0,0,76.47,9.8a14.1,14.1,0,0,0-8-2.23,17.44,17.44,0,0,0-10.35,3.34,19.2,19.2,0,0,0-6.85,8.91Q49.1,25.39,49.1,38.41v64.18H41.3V31.12q0-11-1.36-14.89a12.45,12.45,0,0,0-4.76-6.29,13.73,13.73,0,0,0-8.07-2.37A17.4,17.4,0,0,0,17,10.83a19.23,19.23,0,0,0-7,8.76Q7.78,25.11,7.79,36.46V149.68H0Z"/><path class="cls-1" d="M158,42l6.57,3.45a35.81,35.81,0,0,1-7.46,10.24,29.79,29.79,0,0,1-9.53,5.93,33.33,33.33,0,0,1-12,2q-14.82,0-23.18-9.71A32.79,32.79,0,0,1,104,32a32.36,32.36,0,0,1,7.07-20.54q9-11.48,24-11.47,15.49,0,24.74,11.75,6.57,8.28,6.69,20.7h-54.5q.23,10.56,6.74,17.3A21.52,21.52,0,0,0,134.9,56.5a25.93,25.93,0,0,0,9-1.61,23.44,23.44,0,0,0,7.44-4.27A36,36,0,0,0,158,42Zm0-16.31a25.84,25.84,0,0,0-4.54-10,21.53,21.53,0,0,0-7.88-6,24.19,24.19,0,0,0-10.31-2.28,22.21,22.21,0,0,0-15.33,5.73q-4.68,4.19-7.08,12.53Z"/><path class="cls-1" d="M178.12,1.56h8v8.85a27.85,27.85,0,0,1,7.52-7.82A14.78,14.78,0,0,1,201.84,0a14.25,14.25,0,0,1,6.9,2.06l-4.06,6.57a10.81,10.81,0,0,0-4.12-1.06,11.29,11.29,0,0,0-7.52,3.2q-3.61,3.21-5.51,9.94-1.44,5.17-1.45,20.93V62.12h-8Z"/><path class="cls-1" d="M229.61,0V148.12h-7.68V137.71a33.32,33.32,0,0,1-11,9,30.7,30.7,0,0,1-35.29-6.31,31.27,31.27,0,0,1-9.1-22.69,30.67,30.67,0,0,1,9.18-22.37,29.94,29.94,0,0,1,22.1-9.3,28.66,28.66,0,0,1,13.5,3.17,30.79,30.79,0,0,1,10.6,9.52V0ZM198.47,93.51a23.52,23.52,0,0,0-20.77,12.18,24.56,24.56,0,0,0,0,24.47,24,24,0,0,0,8.81,9.09,23,23,0,0,0,11.88,3.25,24.35,24.35,0,0,0,12.12-3.23,22.61,22.61,0,0,0,8.81-8.73,24.94,24.94,0,0,0,3.08-12.39,24.06,24.06,0,0,0-6.92-17.57A22.91,22.91,0,0,0,198.47,93.51Z"/><path class="cls-1" d="M298.25,128l6.57,3.45a36,36,0,0,1-7.47,10.24,29.68,29.68,0,0,1-9.53,5.93,33.33,33.33,0,0,1-12,2q-14.82,0-23.17-9.71a32.8,32.8,0,0,1-8.36-22,32.41,32.41,0,0,1,7.07-20.54q9-11.48,24-11.47,15.48,0,24.73,11.75,6.58,8.28,6.69,20.7H252.33q.21,10.56,6.74,17.3a21.5,21.5,0,0,0,16.11,6.75,26,26,0,0,0,9-1.61,23.67,23.67,0,0,0,7.44-4.27A36.48,36.48,0,0,0,298.25,128Zm0-16.31a26,26,0,0,0-4.54-10,21.57,21.57,0,0,0-7.89-6,24.19,24.19,0,0,0-10.31-2.28,22.23,22.23,0,0,0-15.33,5.73q-4.68,4.19-7.08,12.53Z"/><path class="cls-1" d="M315.62,87.56h8.29l20.33,44.15,20.08-44.15h8.35L345,148.12H343.5Z"/><text class="cls-2" transform="translate(132.81 148.12)">.</text></g></g></svg>