<svg xmlns="http://www.w3.org/2000/svg" viewBox="0 0 249.65 249.65"><defs><style>.cls-1{fill:#231f20;}.cls-2{fill:#f1faee;}</style></defs><g id="Layer_2" data-name="Layer 2"><g id="Layer_1-2" data-name="Layer 1"><circle class="cls-1" cx="124.82" cy="124.82" r="124.82"/><path class="cls-2" d="M43,73.06h0A14.06,14.06,0,0,1,57.09,87.12v4.82Q64.43,81.5,72.17,76.68a42.76,42.76,0,0,1,22.41-6.43,37.22,37.22,0,0,1,15.07,3.12,32.33,32.33,0,0,1,11.66,8.28q4.51,5.16,7.84,14.8,7-12.84,17.52-19.52a41.46,41.46,0,0,1,22.63-6.68,35.36,35.36,0,0,1,20,5.73,34.08,34.08,0,0,1,12.87,16q4.2,10.23,4.2,30.71v59.63h0A14.36,14.36,0,0,1,192,167.92V122.65q0-17.57-2.5-24.14a21.77,21.77,0,0,0-8.56-10.59,25.57,25.57,0,0,0-14.45-4,31.43,31.43,0,0,0-18.66,6A34.61,34.61,0,0,0,135.47,106q-3.9,10-3.9,33.53v42.76h0a14.06,14.06,0,0,1-14-14.06V126.37q0-19.78-2.46-26.86a22.54,22.54,0,0,0-8.58-11.34,24.86,24.86,0,0,0-14.56-4.26,31.33,31.33,0,0,0-18.21,5.87,34.69,34.69,0,0,0-12.55,15.81Q57.1,115.52,57.09,136v32.22A14.06,14.06,0,0,1,43,182.28h0Z"/></g></g></svg>