<svg id="Layer_1" data-name="Layer 1" xmlns="http://www.w3.org/2000/svg" viewBox="0 0 512 256"><defs><style>.cls-1{fill:#ffc6ab;}.cls-2{fill:#e90037;}.cls-3{fill:#c70f00;}.cls-4{fill:#951b00;}</style></defs><polygon class="cls-1" points="0 0 -1 256 513 256 512.5 0 0 0"/><path class="cls-2" d="M31.47,118.17c42.12,7.62,76.07-44.39,111.39-36.59,32,7.06,27.59,14.79,59.94,24.06,11,3.15,67.83,19.42,120.88-4,12.42-5.49,25.44-13.5,41-23.06,33.66-20.72,39.84-29.11,54.95-29.07,11.17,0,16,4.65,44,20,20.64,11.38,37.82,19.8,48.95,25.06,0,53.8,1.5,107.59,1.5,161.39H1c0-57.81.5-79,.5-136.83"/><rect class="cls-2" x="77.81" y="102" width="1.51" height="13.66"/><polygon class="cls-2" points="78.42 89.1 80.3 96.6 82.17 104.1 78.42 104.1 74.68 104.1 76.55 96.6 78.42 89.1"/><rect class="cls-2" x="139.75" y="83.96" width="1.51" height="13.66"/><polygon class="cls-2" points="140.36 71.05 142.23 78.56 144.1 86.06 140.36 86.06 136.62 86.06 138.49 78.56 140.36 71.05"/><rect class="cls-2" x="144.75" y="87.97" width="1.51" height="13.66"/><polygon class="cls-2" points="145.36 75.06 147.23 82.57 149.1 90.07 145.36 90.07 141.62 90.07 143.49 82.57 145.36 75.06"/><rect class="cls-2" x="174.63" y="87.91" width="1.73" height="15.72"/><polygon class="cls-2" points="175.33 73.06 177.48 81.69 179.64 90.33 175.33 90.33 171.02 90.33 173.18 81.69 175.33 73.06"/><rect class="cls-2" x="213.64" y="101.98" width="1.61" height="14.58"/><polygon class="cls-2" points="214.29 88.2 216.29 96.21 218.29 104.22 214.29 104.22 210.29 104.22 212.29 96.21 214.29 88.2"/><rect class="cls-2" x="305.55" y="99.97" width="1.61" height="14.58"/><polygon class="cls-2" points="306.2 86.19 308.2 94.2 310.2 102.22 306.2 102.22 302.2 102.22 304.2 94.2 306.2 86.19"/><rect class="cls-2" x="368.49" y="68.9" width="1.61" height="14.58"/><polygon class="cls-2" points="369.14 55.12 371.14 63.13 373.13 71.14 369.14 71.14 365.14 71.14 367.14 63.13 369.14 55.12"/><rect class="cls-2" x="464.39" y="70.9" width="1.61" height="14.58"/><polygon class="cls-2" points="465.05 57.12 467.04 65.13 469.04 73.15 465.05 73.15 461.05 73.15 463.05 65.13 465.05 57.12"/><rect class="cls-2" x="469.39" y="72.91" width="1.61" height="14.58"/><polygon class="cls-2" points="470.04 59.13 472.04 67.14 474.04 75.15 470.04 75.15 466.04 75.15 468.04 67.14 470.04 59.13"/><ellipse class="cls-2" cx="102.78" cy="92.49" rx="5.38" ry="5.4"/><ellipse class="cls-2" cx="106.01" cy="88.71" rx="5.38" ry="5.4"/><ellipse class="cls-2" cx="270.85" cy="112.77" rx="5.38" ry="5.4"/><ellipse class="cls-2" cx="277.84" cy="115.78" rx="5.38" ry="5.4"/><ellipse class="cls-2" cx="351.77" cy="84.7" rx="5.38" ry="5.4"/><ellipse class="cls-2" cx="437.69" cy="57.64" rx="5.38" ry="5.4"/><ellipse class="cls-2" cx="433.69" cy="54.63" rx="5.38" ry="5.4"/><ellipse class="cls-2" cx="359.76" cy="83.7" rx="5.38" ry="5.4"/><ellipse class="cls-2" cx="346.78" cy="89.71" rx="5.38" ry="5.4"/><ellipse class="cls-2" cx="113" cy="89.79" rx="5.38" ry="5.4"/><path class="cls-3" d="M-1,113a113.12,113.12,0,0,1,31.88-2c4.12.37,22.77,2.36,47.82,18,19.14,12,19.41,17.78,31.87,26,22.41,14.79,49.11,12.73,101.6,8,43.92-3.95,49.43-9.34,71.72-5,30.3,5.89,30.61,17.88,51.8,19,34.85,1.84,47.86-29.86,90.65-46,18.44-7,46.25-12.47,85.66-4V256L1,255C1.33,207.67-1.33,160.33-1,113Z"/><polygon class="cls-3" points="224.09 146.5 229.06 160.36 234.03 169 224.09 169 214.15 169 219.12 160.36 224.09 146.5"/><polygon class="cls-3" points="213.61 147.67 219.16 160.07 224.13 168.71 214.19 168.71 204.25 168.71 209.22 160.07 213.61 147.67"/><polygon class="cls-3" points="450.74 112.5 459.24 136.21 467.75 151 450.74 151 433.73 151 442.23 136.21 450.74 112.5"/><polygon class="cls-3" points="437.79 115 447.29 136.21 455.79 151 438.78 151 421.77 151 430.28 136.21 437.79 115"/><rect class="cls-3" x="145.45" y="160.65" width="2.41" height="21.85"/><polygon class="cls-3" points="146.43 140 149.42 152.01 152.41 164.01 146.43 164.01 140.44 164.01 143.44 152.01 146.43 140"/><rect class="cls-3" x="367.58" y="158.65" width="2.41" height="21.85"/><polygon class="cls-3" points="368.56 138 371.55 150.01 374.54 162.01 368.56 162.01 362.57 162.01 365.56 150.01 368.56 138"/><rect class="cls-3" x="379.54" y="151.65" width="2.41" height="21.85"/><polygon class="cls-3" points="380.51 131 383.5 143.01 386.5 155.01 380.51 155.01 374.53 155.01 377.52 143.01 380.51 131"/><ellipse class="cls-3" cx="14.44" cy="112.5" rx="8.47" ry="8.5"/><ellipse class="cls-3" cx="20.42" cy="105.5" rx="8.47" ry="8.5"/><ellipse class="cls-3" cx="29.38" cy="111.5" rx="8.47" ry="8.5"/><ellipse class="cls-3" cx="81.68" cy="138" rx="8.96" ry="9"/><ellipse class="cls-3" cx="177.31" cy="168" rx="8.96" ry="9"/><ellipse class="cls-3" cx="188.26" cy="166" rx="8.96" ry="9"/><ellipse class="cls-3" cx="309.79" cy="166" rx="8.96" ry="9"/><ellipse class="cls-3" cx="318.75" cy="175" rx="8.96" ry="9"/><path class="cls-4" d="M0,150c1.45,5.24,3.73,14.53,7,23.68,5.69,15.91,8.53,23.87,13,29.11,11.24,13.18,33.52,11.26,49,10,8.27-.65,114.28-8.77,167-1a212.05,212.05,0,0,1,37,9c16.85,5.92,22.44,10.51,33,15.06,26.21,11.29,50.84,8.42,80,5,30.58-3.56,45.88-5.35,59-17.07,13.83-12.35,12.43-23.45,28-42.16a117.11,117.11,0,0,1,39-30.12V256H-1C-1,221.2,0,184.8,0,150Z"/><rect class="cls-4" x="104" y="190.24" width="5.5" height="43.67"/><rect class="cls-4" x="245.46" y="190.24" width="5.04" height="45.68"/><rect class="cls-4" x="341.51" y="218.35" width="3.98" height="32.63"/><polygon class="cls-4" points="46 192.17 54.54 207.02 63.08 221.87 46 221.87 28.93 221.87 37.46 207.02 46 192.17"/><polygon class="cls-4" points="71 188.74 79.54 207.02 88.08 221.87 71 221.87 53.92 221.87 62.46 207.02 71 188.74"/><polygon class="cls-4" points="210 186.73 218.54 210.53 227.07 225.38 210 225.38 192.93 225.38 201.46 210.53 210 186.73"/><polygon class="cls-4" points="192 188.74 201.54 210.03 210.07 224.88 193 224.88 175.93 224.88 184.46 210.03 192 188.74"/><polygon class="cls-4" points="278 205.8 286.54 227.1 295.07 241.94 278 241.94 260.93 241.94 269.46 227.1 278 205.8"/><polygon class="cls-4" points="387 224.3 395.54 239.15 404.07 253.99 387 253.99 369.93 253.99 378.46 239.15 387 224.3"/><polygon class="cls-4" points="440 217.27 448.54 232.12 457.07 246.96 440 246.96 422.93 246.96 431.46 232.12 440 217.27"/><polygon class="cls-4" points="106.5 129 113.91 162.63 121.32 196.26 106.5 196.26 91.68 196.26 99.09 162.63 106.5 129"/><polygon class="cls-4" points="247.5 147.07 253.75 172.17 260.01 197.27 247.5 197.27 234.99 197.27 241.25 172.17 247.5 147.07"/><polygon class="cls-4" points="343.5 177.13 348.85 201.76 354.19 226.38 343.5 226.38 332.81 226.38 338.15 201.76 343.5 177.13"/><ellipse class="cls-4" cx="147" cy="208.81" rx="9.5" ry="9.54"/><ellipse class="cls-4" cx="137" cy="213.83" rx="9.5" ry="9.54"/><ellipse class="cls-4" cx="159" cy="213.83" rx="9.5" ry="9.54"/><ellipse class="cls-4" cx="305" cy="235.92" rx="9.5" ry="9.54"/><ellipse class="cls-4" cx="312" cy="240.94" rx="9.5" ry="9.54"/><ellipse class="cls-4" cx="320" cy="241.94" rx="9.5" ry="9.54"/><ellipse class="cls-4" cx="415" cy="241.94" rx="9.5" ry="9.54"/></svg>