<svg xmlns="http://www.w3.org/2000/svg" xmlns:xlink="http://www.w3.org/1999/xlink" viewBox="0 0 515.03 256"><defs><style>.cls-1{fill:none;}.cls-2{clip-path:url(#clip-path);}.cls-3{fill:#f6f7eb;}.cls-4{fill:#e90037;}.cls-5{fill:#c70f00;}.cls-6{fill:#951b00;}</style><clipPath id="clip-path" transform="translate(76.03 18)"><circle class="cls-1" cx="118" cy="118" r="118"/></clipPath></defs><g id="Layer_2" data-name="Layer 2"><g id="Layer_1-2" data-name="Layer 1"><g class="cls-2"><polygon class="cls-3" points="1.03 0 0.03 256 514.03 256 513.53 0 1.03 0"/><path class="cls-4" d="M-43.53,100.17c42.12,7.62,76.07-44.39,111.39-36.59,32,7.06,27.59,14.79,59.94,24.06,11,3.15,67.83,19.42,120.88-4,12.42-5.49,25.44-13.5,41-23.06,33.66-20.72,39.84-29.11,54.95-29.07,11.17,0,16,4.65,44,20,20.64,11.38,37.82,19.8,48.95,25.06,0,53.8,1.5,107.59,1.5,161.39H-74c0-57.81.5-79,.5-136.83" transform="translate(76.03 18)"/><rect class="cls-4" x="78.84" y="102" width="1.51" height="13.66"/><polygon class="cls-4" points="79.45 89.1 81.32 96.6 83.19 104.1 79.45 104.1 75.71 104.1 77.58 96.6 79.45 89.1"/><rect class="cls-4" x="140.78" y="83.96" width="1.51" height="13.66"/><polygon class="cls-4" points="141.39 71.05 143.26 78.56 145.13 86.06 141.39 86.06 137.65 86.06 139.52 78.56 141.39 71.05"/><rect class="cls-4" x="145.78" y="87.97" width="1.51" height="13.66"/><polygon class="cls-4" points="146.39 75.06 148.26 82.57 150.13 90.07 146.39 90.07 142.64 90.07 144.51 82.57 146.39 75.06"/><rect class="cls-4" x="175.66" y="87.91" width="1.73" height="15.72"/><polygon class="cls-4" points="176.36 73.06 178.51 81.69 180.66 90.33 176.36 90.33 172.05 90.33 174.2 81.69 176.36 73.06"/><rect class="cls-4" x="214.67" y="101.98" width="1.61" height="14.58"/><polygon class="cls-4" points="215.32 88.2 217.32 96.21 219.31 104.22 215.32 104.22 211.32 104.22 213.32 96.21 215.32 88.2"/><rect class="cls-4" x="306.58" y="99.97" width="1.61" height="14.58"/><polygon class="cls-4" points="307.23 86.19 309.23 94.2 311.23 102.22 307.23 102.22 303.23 102.22 305.23 94.2 307.23 86.19"/><rect class="cls-4" x="369.52" y="68.9" width="1.61" height="14.58"/><polygon class="cls-4" points="370.17 55.12 372.17 63.13 374.16 71.14 370.17 71.14 366.17 71.14 368.17 63.13 370.17 55.12"/><rect class="cls-4" x="465.42" y="70.9" width="1.61" height="14.58"/><polygon class="cls-4" points="466.07 57.12 468.07 65.13 470.07 73.15 466.07 73.15 462.08 73.15 464.08 65.13 466.07 57.12"/><rect class="cls-4" x="470.42" y="72.91" width="1.61" height="14.58"/><polygon class="cls-4" points="471.07 59.13 473.07 67.14 475.06 75.15 471.07 75.15 467.07 75.15 469.07 67.14 471.07 59.13"/><ellipse class="cls-4" cx="103.81" cy="92.49" rx="5.38" ry="5.4"/><ellipse class="cls-4" cx="107.04" cy="88.71" rx="5.38" ry="5.4"/><ellipse class="cls-4" cx="271.88" cy="112.77" rx="5.38" ry="5.4"/><ellipse class="cls-4" cx="278.87" cy="115.78" rx="5.38" ry="5.4"/><ellipse class="cls-4" cx="352.8" cy="84.7" rx="5.38" ry="5.4"/><ellipse class="cls-4" cx="438.72" cy="57.64" rx="5.38" ry="5.4"/><ellipse class="cls-4" cx="434.72" cy="54.63" rx="5.38" ry="5.4"/><ellipse class="cls-4" cx="360.79" cy="83.7" rx="5.38" ry="5.4"/><ellipse class="cls-4" cx="347.81" cy="89.71" rx="5.38" ry="5.4"/><ellipse class="cls-4" cx="114.03" cy="89.79" rx="5.38" ry="5.4"/><path class="cls-5" d="M-76,95a113.12,113.12,0,0,1,31.88-2c4.12.37,22.77,2.36,47.82,18,19.14,12,19.41,17.78,31.87,26,22.41,14.79,49.11,12.73,101.6,8,43.92-3.95,49.43-9.34,71.72-5,30.3,5.89,30.61,17.88,51.8,19,34.85,1.84,47.86-29.86,90.65-46,18.44-7,46.25-12.47,85.66-4V238l-511-1C-73.67,189.67-76.33,142.33-76,95Z" transform="translate(76.03 18)"/><polygon class="cls-5" points="225.12 146.5 230.09 160.36 235.06 169 225.12 169 215.18 169 220.15 160.36 225.12 146.5"/><polygon class="cls-5" points="214.64 147.67 220.19 160.07 225.16 168.71 215.22 168.71 205.28 168.71 210.25 160.07 214.64 147.67"/><polygon class="cls-5" points="451.76 112.5 460.27 136.21 468.77 151 451.76 151 434.76 151 443.26 136.21 451.76 112.5"/><polygon class="cls-5" points="438.81 115 448.32 136.21 456.82 151 439.81 151 422.8 151 431.31 136.21 438.81 115"/><rect class="cls-5" x="146.48" y="160.65" width="2.41" height="21.85"/><polygon class="cls-5" points="147.46 140 150.45 152.01 153.44 164.01 147.46 164.01 141.47 164.01 144.46 152.01 147.46 140"/><rect class="cls-5" x="368.61" y="158.65" width="2.41" height="21.85"/><polygon class="cls-5" points="369.59 138 372.58 150.01 375.57 162.01 369.59 162.01 363.6 162.01 366.59 150.01 369.59 138"/><rect class="cls-5" x="380.56" y="151.65" width="2.41" height="21.85"/><polygon class="cls-5" points="381.54 131 384.53 143.01 387.52 155.01 381.54 155.01 375.56 155.01 378.55 143.01 381.54 131"/><ellipse class="cls-5" cx="15.47" cy="112.5" rx="8.47" ry="8.5"/><ellipse class="cls-5" cx="21.45" cy="105.5" rx="8.47" ry="8.5"/><ellipse class="cls-5" cx="30.41" cy="111.5" rx="8.47" ry="8.5"/><ellipse class="cls-5" cx="82.71" cy="138" rx="8.96" ry="9"/><ellipse class="cls-5" cx="178.33" cy="168" rx="8.96" ry="9"/><ellipse class="cls-5" cx="189.29" cy="166" rx="8.96" ry="9"/><ellipse class="cls-5" cx="310.82" cy="166" rx="8.96" ry="9"/><ellipse class="cls-5" cx="319.78" cy="175" rx="8.96" ry="9"/><path class="cls-6" d="M-75,132c1.45,5.24,3.73,14.53,7,23.68,5.69,15.91,8.53,23.87,13,29.11,11.24,13.18,33.52,11.26,49,10,8.27-.65,114.28-8.77,167-1a212.05,212.05,0,0,1,37,9c16.85,5.92,22.44,10.51,33,15.06,26.21,11.29,50.84,8.42,80,5,30.58-3.56,45.88-5.35,59-17.07,13.83-12.35,12.43-23.45,28-42.16a117.11,117.11,0,0,1,39-30.12V238H-76C-76,203.2-75,166.8-75,132Z" transform="translate(76.03 18)"/><rect class="cls-6" x="105.03" y="190.24" width="5.5" height="43.67"/><rect class="cls-6" x="246.49" y="190.24" width="5.04" height="45.68"/><rect class="cls-6" x="342.54" y="218.35" width="3.98" height="32.63"/><polygon class="cls-6" points="47.03 192.17 55.57 207.02 64.1 221.87 47.03 221.87 29.95 221.87 38.49 207.02 47.03 192.17"/><polygon class="cls-6" points="72.03 188.74 80.57 207.02 89.1 221.87 72.03 221.87 54.95 221.87 63.49 207.02 72.03 188.74"/><polygon class="cls-6" points="211.03 186.73 219.57 210.53 228.1 225.38 211.03 225.38 193.95 225.38 202.49 210.53 211.03 186.73"/><polygon class="cls-6" points="193.03 188.74 202.57 210.03 211.1 224.88 194.03 224.88 176.95 224.88 185.49 210.03 193.03 188.74"/><polygon class="cls-6" points="279.03 205.8 287.57 227.1 296.1 241.94 279.03 241.94 261.95 241.94 270.49 227.1 279.03 205.8"/><polygon class="cls-6" points="388.03 224.3 396.57 239.15 405.1 253.99 388.03 253.99 370.95 253.99 379.49 239.15 388.03 224.3"/><polygon class="cls-6" points="441.03 217.27 449.57 232.12 458.1 246.96 441.03 246.96 423.95 246.96 432.49 232.12 441.03 217.27"/><polygon class="cls-6" points="107.53 129 114.94 162.63 122.35 196.26 107.53 196.26 92.71 196.26 100.12 162.63 107.53 129"/><polygon class="cls-6" points="248.53 147.07 254.78 172.17 261.04 197.27 248.53 197.27 236.02 197.27 242.27 172.17 248.53 147.07"/><polygon class="cls-6" points="344.53 177.13 349.87 201.76 355.22 226.38 344.53 226.38 333.84 226.38 339.18 201.76 344.53 177.13"/><ellipse class="cls-6" cx="148.03" cy="208.81" rx="9.5" ry="9.54"/><ellipse class="cls-6" cx="138.03" cy="213.83" rx="9.5" ry="9.54"/><ellipse class="cls-6" cx="160.03" cy="213.83" rx="9.5" ry="9.54"/><ellipse class="cls-6" cx="306.03" cy="235.92" rx="9.5" ry="9.54"/><ellipse class="cls-6" cx="313.03" cy="240.94" rx="9.5" ry="9.54"/><ellipse class="cls-6" cx="321.03" cy="241.94" rx="9.5" ry="9.54"/><ellipse class="cls-6" cx="416.03" cy="241.94" rx="9.5" ry="9.54"/></g></g></g></svg>