<svg xmlns="http://www.w3.org/2000/svg" viewBox="0 0 1346.55 359"><defs><style>.cls-1{fill:none;stroke:#ff5964;stroke-miterlimit:10;stroke-width:10px}</style></defs><g id="Layer_2" data-name="Layer 2"><g id="Layer_1-2" data-name="Layer 1"><path class="cls-1" d="M156.9 179.5H56.15L5.77 266.75 56.15 354H156.9L207.27 266.75 156.9 179.5z" /><path class="cls-1" d="M246.05 92.25H145.3L94.93 179.5 145.3 266.75H246.05L296.43 179.5 246.05 92.25z" /><path class="cls-1" d="M156.9 5H56.15L5.77 92.25 56.15 179.5H156.9L207.27 92.25 156.9 5z" /><path class="cls-1" d="M417.98 179.5H317.24L266.86 266.75 317.24 354H417.98L468.36 266.75 417.98 179.5z" /><path class="cls-1" d="M507.14 92.25H406.39L356.01 179.5 406.39 266.75H507.14L557.51 179.5 507.14 92.25z" /><path class="cls-1" d="M417.98 5H317.24L266.86 92.25 317.24 179.5H417.98L468.36 92.25 417.98 5z" /><path class="cls-1" d="M679.07 179.5H578.32L527.95 266.75 578.32 354H679.07L729.45 266.75 679.07 179.5z" /><path class="cls-1" d="M768.23 92.25H667.48L617.1 179.5 667.48 266.75H768.23L818.6 179.5 768.23 92.25z" /><path class="cls-1" d="M679.07 5H578.32L527.95 92.25 578.32 179.5H679.07L729.45 92.25 679.07 5z" /><path class="cls-1" d="M940.16 179.5H839.41L789.03 266.75 839.41 354H940.16L990.53 266.75 940.16 179.5z" /><path class="cls-1" d="M1029.31 92.25H928.56L878.19 179.5 928.56 266.75h100.75L1079.69 179.5 1029.31 92.25z" /><path class="cls-1" d="M940.16 5H839.41L789.03 92.25 839.41 179.5H940.16L990.53 92.25 940.16 5z" /><path class="cls-1" d="M1201.24 179.5H1100.5L1050.12 266.75 1100.5 354H1201.24L1251.62 266.75 1201.24 179.5z" /><path class="cls-1" d="M1290.4 92.25H1189.65L1139.28 179.5 1189.65 266.75H1290.4L1340.77 179.5 1290.4 92.25z" /><path class="cls-1" d="M1201.24 5H1100.5L1050.12 92.25 1100.5 179.5H1201.24L1251.62 92.25 1201.24 5z" /></g></g></svg>