<svg id="Layer_1" data-name="Layer 1" xmlns="http://www.w3.org/2000/svg" viewBox="0 0 512 512">
    <defs>
        <style>
            .cls-1 {
                fill: #fff;
            }

            .cls-2 {
                fill: #0071bc;
            }

            .cls-3 {
                fill: #ffcce0;
            }

            .cls-4 {
                fill: #910051;
            }

            .cls-5 {
                fill: #6a0038;
            }

            .cls-6 {
                fill: #aa000d;
            }

            .cls-7 {
                fill: #ffb2b4;
            }
        </style>
    </defs>
    <rect class="cls-1" width="512" height="512" />
    <rect class="cls-2" x="0.02" width="512" height="512" />
    <polygon class="cls-3" points="-0.27 0.15 512.02 0.15 512.02 512 -0.01 512 -0.27 0.15" />
    <path class="cls-4"
        d="M286.94,410.06c13.71,6.71,31.81,18.17,43.2,37.46,5.61,9.48,5.92,14.64,10.67,23.23,6.82,12.32,20.81,28.14,52.8,41.25H0V346.52l146.14-84.87,59.74,20.86Z" />
    <path class="cls-5"
        d="M62.5.15C53.18,28,46.29,67.72,69,104c24.79,39.59,62.16,38.82,84.68,77.76,23.55,40.71,12.7,93.39-18.95,131.82C87.88,370.47,10.24,378.11-.27,379V.15Z" />
    <ellipse class="cls-5" cx="217.32" cy="224.96" rx="82.84" ry="73.64" />
    <ellipse class="cls-4" cx="259.21" cy="322.55" rx="51.2" ry="45.52" />
    <ellipse class="cls-4" cx="252.21" cy="386.55" rx="51.2" ry="45.52" />
    <path class="cls-4"
        d="M296.54,389.88c0,17.54,2.18,27.41-35.73,28.45-34.67.95-35.74-10.91-35.74-28.45s16-31.77,35.74-31.77S296.54,372.33,296.54,389.88Z" />
    <path class="cls-4"
        d="M156.94,276.16c3.44.24,6.9.27,10.59.46a68,68,0,0,1,11.69,1.48,62.67,62.67,0,0,1,11.81,4,97.78,97.78,0,0,1,10.75,5.69,110.3,110.3,0,0,1,34.48,34.92c9,14.38,14.93,30.76,18.11,47.42a171.84,171.84,0,0,1,2.89,25.34c.16,4.27.18,8.56,0,12.92-.08,2.18-.2,4.38-.39,6.64-.09,1.13-.2,2.27-.34,3.46s-.28,2.36-.54,3.84l-65.08-18.41a7.31,7.31,0,0,0,.78-1.25c.28-.52.57-1.09.85-1.67.56-1.17,1.11-2.41,1.63-3.68,1.06-2.55,2-5.21,2.89-7.92a115.33,115.33,0,0,0,4-16.69,92.6,92.6,0,0,0-.49-34.17,78.35,78.35,0,0,0-5.53-16.62,84.36,84.36,0,0,0-9.55-15.65c-3.75-5.15-7.65-9.7-12.51-13.22a52.68,52.68,0,0,0-8.37-4.81c-3.11-1.49-6.51-3-9.82-4.61Z" />
    <path class="cls-4"
        d="M253.65,377.26l-.69.35-.36.19-.21.09-.14.06-.09,0-.23.07c-3.62,5.38-4.9-11.14-2.64-7.77l.24-.11.16-.08.22-.11.36-.19.7-.37,2.71-1.42,5.44-2.76c3.64-1.81,7.32-3.58,11.06-5.28s7.55-3.35,11.55-4.88c2-.76,4.07-1.49,6.3-2.16,1.12-.32,2.28-.64,3.56-.91a26.9,26.9,0,0,1,4.44-.61,17.65,17.65,0,0,1,3.28.13,14.75,14.75,0,0,1,2.45.55,15.89,15.89,0,0,1,1.6.61q.5.22,1,.48a15.38,15.38,0,0,1,2.19,1.5c.19.16.37.31.57.5l.6.61c.2.21.38.41.57.64s.39.5.57.75a12.85,12.85,0,0,1,1,1.66,12.45,12.45,0,0,1,.77,1.81,14.43,14.43,0,0,1,.49,1.84c.05.3.1.61.14.91s.06.55.08.82a13.66,13.66,0,0,1,0,1.56,13,13,0,0,1-.12,1.36c-.06.4-.12.79-.21,1.18a16.7,16.7,0,0,1-.51,1.83,19.42,19.42,0,0,1-1.09,2.55,25.91,25.91,0,0,1-1.83,3c-.27.39-.54.76-.79,1.1l-.36.48-.17.28c-.47.74-.94,1.47-1.39,2.22A85.69,85.69,0,0,0,300,389a92.79,92.79,0,0,0-6.23,19.34,121.08,121.08,0,0,0-1,40.39,155.59,155.59,0,0,0,4,20c.88,3.27,1.87,6.49,2.94,9.62.54,1.55,1.1,3.09,1.68,4.56.29.73.58,1.45.88,2.12a16.12,16.12,0,0,0,.85,1.75l-65.79,15.71c-.2-1.53-.31-2.77-.42-4.06s-.18-2.49-.24-3.7c-.14-2.43-.21-4.8-.24-7.16-.07-4.72,0-9.36.27-14A212.79,212.79,0,0,1,240,446.09c3.37-18.1,9.24-36,18.5-52.16a126.65,126.65,0,0,1,16.23-22.42,114.23,114.23,0,0,1,9.77-9.55c.85-.75,1.73-1.46,2.59-2.19l.32-.27a.37.37,0,0,1,.15-.06.25.25,0,0,1,.18,0c.08,0,.08.13-.11.62-.12.28-.23.57-.44,1.21a9.36,9.36,0,0,0-.29,1.12,7.76,7.76,0,0,0-.13.82c0,.24-.08.67-.09,1s0,.76,0,1.19c0,.21,0,.42.07.63s.07.49.11.73a14.36,14.36,0,0,0,.4,1.48,13.54,13.54,0,0,0,.63,1.47,10.48,10.48,0,0,0,3.48,3.92c.24.16.55.33.74.44s.42.21.64.3a6.57,6.57,0,0,0,.91.33,3.79,3.79,0,0,0,1,.16c.38,0,.41-.11.33-.19a3.84,3.84,0,0,0-1.5-.42c-.69-.1-1.5-.16-2.34-.2-1.68-.07-3.51-.05-5.37,0-3.74.14-7.61.47-11.5.87s-7.81.89-11.73,1.44l-5.87.86-2.92.46-.71.12-.33.06h-.14s0,0,0,0l.15-.07c2.23,3.38.92-13.12-2.65-7.75l-.14,0h.18l.35-.05.71-.11Z" />
    <path class="cls-6"
        d="M200.42,207.12a16,16,0,0,0-2.31-2.53,19,19,0,0,0-24.63,0,15.45,15.45,0,0,0-4,5.42,14.23,14.23,0,0,1,2.31-19.37,19,19,0,0,1,24.63,0A14.28,14.28,0,0,1,200.42,207.12Z" />
    <path class="cls-6"
        d="M221.52,231.34a7,7,0,0,0-.9-1,7.39,7.39,0,0,0-9.6,0,5.94,5.94,0,0,0-1.54,2.11,5.53,5.53,0,0,1,.9-7.54,7.39,7.39,0,0,1,9.6,0A5.56,5.56,0,0,1,221.52,231.34Z" />
    <path class="cls-6"
        d="M206.92,248.11a5.17,5.17,0,0,0-.78-.85,6.42,6.42,0,0,0-8.32,0,5.18,5.18,0,0,0-1.34,1.83,4.8,4.8,0,0,1,.78-6.54,6.42,6.42,0,0,1,8.32,0A4.82,4.82,0,0,1,206.92,248.11Z" />
    <path class="cls-6"
        d="M250.53,202.29a16.69,16.69,0,0,0-2.42-2.66,20,20,0,0,0-25.92,0,16.12,16.12,0,0,0-4.16,5.7A15,15,0,0,1,220.46,185a20,20,0,0,1,25.91,0A15,15,0,0,1,250.53,202.29Z" />
    <path class="cls-6"
        d="M281,232.77a11.83,11.83,0,0,0-1.56-1.71,12.84,12.84,0,0,0-16.64,0,10.41,10.41,0,0,0-2.67,3.66,9.59,9.59,0,0,1,1.56-13.07,12.8,12.8,0,0,1,16.63,0A9.62,9.62,0,0,1,281,232.77Z" />
    <path class="cls-6"
        d="M185.31,248.44a18.76,18.76,0,0,0-2.64-2.89,21.7,21.7,0,0,0-28.15,0,17.5,17.5,0,0,0-4.52,6.19c-5-6.85-4.13-16.12,2.63-22.13a21.7,21.7,0,0,1,28.15,0A16.3,16.3,0,0,1,185.31,248.44Z" />
    <path class="cls-6"
        d="M236.35,263.7a10.78,10.78,0,0,0-1.52-1.67,12.57,12.57,0,0,0-16.32,0,10.06,10.06,0,0,0-2.62,3.59,9.43,9.43,0,0,1,1.53-12.83,12.56,12.56,0,0,1,16.31,0A9.43,9.43,0,0,1,236.35,263.7Z" />
    <path class="cls-6"
        d="M246.94,236.46a6.63,6.63,0,0,0-1.08-1.18,8.86,8.86,0,0,0-11.51,0,7.21,7.21,0,0,0-1.86,2.53,6.66,6.66,0,0,1,1.08-9.05,8.88,8.88,0,0,1,11.52,0A6.67,6.67,0,0,1,246.94,236.46Z" />
    <path class="cls-4"
        d="M196.46,212.54a19,19,0,0,1-24.63,0,15.2,15.2,0,0,1-2.31-2.53,15.45,15.45,0,0,1,4-5.42,19,19,0,0,1,24.63,0,16,16,0,0,1,2.31,2.53A15.36,15.36,0,0,1,196.46,212.54Z" />
    <path class="cls-4"
        d="M220,233.45a7.42,7.42,0,0,1-9.6,0,5.93,5.93,0,0,1-.9-1,5.94,5.94,0,0,1,1.54-2.11,7.39,7.39,0,0,1,9.6,0,7,7,0,0,1,.9,1A6.07,6.07,0,0,1,220,233.45Z" />
    <path class="cls-4"
        d="M205.58,249.94a6.4,6.4,0,0,1-8.32,0,5.17,5.17,0,0,1-.78-.85,5.18,5.18,0,0,1,1.34-1.83,6.42,6.42,0,0,1,8.32,0,5.17,5.17,0,0,1,.78.85A5.21,5.21,0,0,1,205.58,249.94Z" />
    <path class="cls-4"
        d="M246.37,208a20,20,0,0,1-25.91,0,16.81,16.81,0,0,1-2.43-2.66,16.12,16.12,0,0,1,4.16-5.7,20,20,0,0,1,25.92,0,16.69,16.69,0,0,1,2.42,2.66A16.12,16.12,0,0,1,246.37,208Z" />
    <path class="cls-4"
        d="M278.36,236.43a12.8,12.8,0,0,1-16.63,0,10.41,10.41,0,0,1-1.56-1.71,10.41,10.41,0,0,1,2.67-3.66,12.84,12.84,0,0,1,16.64,0,11.83,11.83,0,0,1,1.56,1.71A10.39,10.39,0,0,1,278.36,236.43Z" />
    <path class="cls-4"
        d="M180.78,254.64a21.7,21.7,0,0,1-28.15,0,17.83,17.83,0,0,1-2.63-2.9,17.5,17.5,0,0,1,4.52-6.19,21.7,21.7,0,0,1,28.15,0,18.76,18.76,0,0,1,2.64,2.89A17.57,17.57,0,0,1,180.78,254.64Z" />
    <path class="cls-4"
        d="M233.73,267.29a12.56,12.56,0,0,1-16.31,0,10.37,10.37,0,0,1-1.53-1.67,10.06,10.06,0,0,1,2.62-3.59,12.57,12.57,0,0,1,16.32,0,10.78,10.78,0,0,1,1.52,1.67A10.06,10.06,0,0,1,233.73,267.29Z" />
    <path class="cls-4"
        d="M245.09,239a8.88,8.88,0,0,1-11.52,0,7.48,7.48,0,0,1-1.08-1.18,7.21,7.21,0,0,1,1.86-2.53,8.86,8.86,0,0,1,11.51,0,6.63,6.63,0,0,1,1.08,1.18A7.18,7.18,0,0,1,245.09,239Z" />
    <ellipse class="cls-7" cx="131.47" cy="40.45" rx="34.13" ry="30.35" />
    <ellipse class="cls-7" cx="255.74" cy="37.61" rx="18.67" ry="16.6" />
    <ellipse class="cls-7" cx="263.7" cy="118.39" rx="18.67" ry="16.6" />
    <ellipse class="cls-7" cx="358.14" cy="331.58" rx="18.13" ry="16.12" />
    <ellipse class="cls-7" cx="341.08" cy="245.11" rx="18.13" ry="16.12" />
    <ellipse class="cls-7" cx="376.28" cy="436.85" rx="35.2" ry="31.29" />
    <ellipse class="cls-7" cx="461.08" cy="460.08" rx="21.33" ry="18.97" />
    <ellipse class="cls-7" cx="393.95" cy="295.1" rx="21.33" ry="18.97" />
    <ellipse class="cls-7" cx="434.41" cy="362.88" rx="5.87" ry="5.22" />
    <ellipse class="cls-7" cx="424.28" cy="228.22" rx="35.2" ry="31.29" />
    <ellipse class="cls-7" cx="459.48" cy="295.07" rx="22.93" ry="20.39" />
    <ellipse class="cls-7" cx="393.88" cy="97.83" rx="32.53" ry="28.92" />
    <ellipse class="cls-7" cx="446.68" cy="21.01" rx="14.4" ry="12.8" />
    <ellipse class="cls-7" cx="318.11" cy="158.68" rx="14.4" ry="12.8" />
    <ellipse class="cls-7" cx="475.13" cy="192.82" rx="14.4" ry="12.8" />
    <ellipse class="cls-7" cx="471.75" cy="118.22" rx="33.07" ry="29.4" />
    <ellipse class="cls-7" cx="318.68" cy="26.7" rx="15.47" ry="13.75" />
    <ellipse class="cls-7" cx="303.21" cy="70.8" rx="11.2" ry="9.96" />
    <ellipse class="cls-7" cx="195.12" cy="114.04" rx="11.2" ry="9.96" />
    <ellipse class="cls-7" cx="376.03" cy="158.41" rx="11.2" ry="9.96" />
    <ellipse class="cls-7" cx="122.93" cy="107.78" rx="16.53" ry="14.7" />
    <ellipse class="cls-7" cx="207.13" cy="61.13" rx="16.53" ry="14.7" />
</svg>