<svg id="Layer_1" data-name="Layer 1" xmlns="http://www.w3.org/2000/svg" viewBox="0 0 512 512"><defs><style>.cls-1{fill:#fff;}.cls-2{fill:#0071bc;}.cls-3{fill:#ffcce0;}.cls-4{fill:#910051;}.cls-5{fill:#6a0038;}.cls-6{fill:#aa000d;}.cls-7{fill:#ffb2b4;}</style></defs><rect class="cls-1" width="512" height="512"/><rect class="cls-2" x="31" y="31" width="450" height="450"/><polygon class="cls-3" points="30.75 31.13 481 31.13 481 481 30.98 481 30.75 31.13"/><path class="cls-4" d="M283.18,391.4c12.05,5.9,27.95,16,38,32.92,4.92,8.34,5.2,12.88,9.37,20.42,6,10.83,18.29,24.73,46.41,36.26H31V335.56L159.42,261l52.5,18.34Z"/><path class="cls-5" d="M85.92,31.13c-8.2,24.47-14.25,59.39,5.72,91.27,21.8,34.79,54.64,34.12,74.43,68.34,20.7,35.78,11.17,82.08-16.65,115.86-41.19,50-109.44,56.72-118.68,57.51v-333Z"/><ellipse class="cls-5" cx="221.99" cy="228.72" rx="72.8" ry="64.72"/><ellipse class="cls-4" cx="258.8" cy="314.49" rx="45" ry="40.01"/><path class="cls-4" d="M291.62,373.67c0,15.42,1.91,24.09-31.41,25-30.47.83-31.41-9.58-31.41-25s14.06-27.92,31.41-27.92S291.62,358.25,291.62,373.67Z"/><path class="cls-4" d="M169,273.27c3,.12,6.08.07,9.36.15a59.12,59.12,0,0,1,10.48,1.1,56,56,0,0,1,10.68,3.39,84.59,84.59,0,0,1,9.75,4.91,98.44,98.44,0,0,1,31.48,30.84,124.39,124.39,0,0,1,17,42.49,154,154,0,0,1,3,22.79c.21,3.84.29,7.71.2,11.66,0,2-.13,4-.27,6-.07,1-.15,2.07-.26,3.15s-.23,2.16-.46,3.53l-65.09-18.41a3.56,3.56,0,0,0,.71-.94c.25-.41.51-.88.77-1.36.51-1,1-2,1.51-3.05,1-2.13,1.89-4.37,2.72-6.66a97.91,97.91,0,0,0,4-14.15,79.31,79.31,0,0,0,.65-29.22,68,68,0,0,0-12.08-28.21,50.76,50.76,0,0,0-10.4-11.83,43.71,43.71,0,0,0-7.15-4.43c-2.7-1.39-5.68-2.75-8.58-4.3Z"/><path class="cls-4" d="M273,340.73c-.4.19-.76.37-1.26.57l-.14.05-.18,0c4,1-8.91.67-2.4-7.85l.49-.2.34-.16.61-.3,2.36-1.13,4.72-2.2q4.73-2.18,9.53-4.25c3.21-1.37,6.46-2.71,9.81-4a105,105,0,0,1,10.66-3.51c1-.25,2-.48,3.19-.68a23.44,23.44,0,0,1,4.19-.35,15.09,15.09,0,0,1,3.54.47,13.36,13.36,0,0,1,3.07,1.18,12.83,12.83,0,0,1,2.17,1.44A13.07,13.07,0,0,1,325,321a13.19,13.19,0,0,1,2.35,3.42,12.21,12.21,0,0,1,.8,2.13,13.53,13.53,0,0,1,.49,4.09,14.41,14.41,0,0,1-1.14,5.14,19.59,19.59,0,0,1-2.43,4.2c-.65.87-1.2,1.51-1.71,2.1l-.37.41-.16.23-.31.45c-.42.61-.84,1.21-1.23,1.83-.8,1.22-1.55,2.46-2.26,3.71a66.07,66.07,0,0,0-6.33,15.43,75.56,75.56,0,0,0-1.2,31.84,97.77,97.77,0,0,0,3.92,15.57c.87,2.52,1.82,5,2.87,7.35.52,1.18,1.06,2.32,1.62,3.39.28.54.56,1.05.83,1.52a4.25,4.25,0,0,0,.77,1.06l-65.08,18.41c-.26-1.5-.38-2.63-.51-3.83s-.21-2.31-.28-3.42c-.15-2.23-.23-4.4-.27-6.56-.08-4.3,0-8.52.31-12.72a153.34,153.34,0,0,1,3.69-24.88A131,131,0,0,1,267.41,368a110.25,110.25,0,0,1,12.84-21.56A99.41,99.41,0,0,1,297.38,329q2.36-1.87,4.78-3.57c.8-.58,1.63-1.11,2.45-1.65l.61-.41.31-.2c.05,0,.06,0,.09,0s.16.05.05.29a22.63,22.63,0,0,0-1,2.1,11.52,11.52,0,0,0-.38,7.39,10.71,10.71,0,0,0,.69,1.83,10.93,10.93,0,0,0,4.66,4.91,7.23,7.23,0,0,0,1.9.7c.79.15,1,.06,1.06,0s-.37-.31-.87-.43a13.93,13.93,0,0,0-1.86-.3,77.36,77.36,0,0,0-9.31-.28c-3.27.05-6.61.19-10,.39s-6.72.44-10.09.72l-5.06.46-2.5.25-.61.06-.26,0h0s0,0,.22-.1c6.46-8.5-6.43-8.78-2.38-7.84l-.1,0h0c.31,0,.77-.06,1.18-.09Z"/><path class="cls-6" d="M207.13,213a14,14,0,0,0-2-2.22,16.68,16.68,0,0,0-21.65,0,13.34,13.34,0,0,0-3.48,4.76,12.5,12.5,0,0,1,2-17,16.69,16.69,0,0,1,21.66,0A12.53,12.53,0,0,1,207.13,213Z"/><path class="cls-6" d="M225.68,234.32a6.34,6.34,0,0,0-.79-.86,6.51,6.51,0,0,0-8.44,0,5.28,5.28,0,0,0-1.35,1.85,4.87,4.87,0,0,1,.79-6.63,6.5,6.5,0,0,1,8.43,0A4.88,4.88,0,0,1,225.68,234.32Z"/><path class="cls-6" d="M212.84,249.07a4.35,4.35,0,0,0-.68-.75,5.62,5.62,0,0,0-7.31,0,4.65,4.65,0,0,0-1.18,1.61,4.22,4.22,0,0,1,.69-5.75,5.62,5.62,0,0,1,7.31,0A4.22,4.22,0,0,1,212.84,249.07Z"/><path class="cls-6" d="M251.18,208.8a14.61,14.61,0,0,0-2.13-2.35,17.57,17.57,0,0,0-22.78,0,14.49,14.49,0,0,0-3.66,5,13.15,13.15,0,0,1,2.13-17.9,17.57,17.57,0,0,1,22.78,0A13.19,13.19,0,0,1,251.18,208.8Z"/><path class="cls-6" d="M278,235.59a9.69,9.69,0,0,0-1.37-1.51,11.27,11.27,0,0,0-14.62,0,9.2,9.2,0,0,0-2.35,3.22A8.43,8.43,0,0,1,261,225.81a11.27,11.27,0,0,1,14.62,0A8.47,8.47,0,0,1,278,235.59Z"/><path class="cls-6" d="M193.85,249.36a15.72,15.72,0,0,0-2.31-2.55,19.1,19.1,0,0,0-24.75,0,15.37,15.37,0,0,0-4,5.45,14.29,14.29,0,0,1,2.31-19.46,19.1,19.1,0,0,1,24.75,0A14.34,14.34,0,0,1,193.85,249.36Z"/><path class="cls-6" d="M238.72,262.77a9.23,9.23,0,0,0-1.34-1.47,11.07,11.07,0,0,0-14.35,0,9,9,0,0,0-2.3,3.15,8.28,8.28,0,0,1,1.34-11.27,11.06,11.06,0,0,1,14.34,0A8.3,8.3,0,0,1,238.72,262.77Z"/><path class="cls-6" d="M248,238.83a6.17,6.17,0,0,0-1-1,7.79,7.79,0,0,0-10.12,0,6.22,6.22,0,0,0-1.62,2.22,5.84,5.84,0,0,1,.94-8,7.83,7.83,0,0,1,10.13,0A5.86,5.86,0,0,1,248,238.83Z"/><path class="cls-4" d="M203.66,217.81a16.72,16.72,0,0,1-21.66,0,14.5,14.5,0,0,1-2-2.23,13.34,13.34,0,0,1,3.48-4.76,16.68,16.68,0,0,1,21.65,0,14,14,0,0,1,2,2.22A13.47,13.47,0,0,1,203.66,217.81Z"/><path class="cls-4" d="M224.32,236.18a6.5,6.5,0,0,1-8.43,0,4.94,4.94,0,0,1-.79-.87,5.28,5.28,0,0,1,1.35-1.85,6.51,6.51,0,0,1,8.44,0,6.34,6.34,0,0,1,.79.86A5.22,5.22,0,0,1,224.32,236.18Z"/><path class="cls-4" d="M211.67,250.68a5.65,5.65,0,0,1-7.31,0,6,6,0,0,1-.69-.75,4.65,4.65,0,0,1,1.18-1.61,5.62,5.62,0,0,1,7.31,0,4.35,4.35,0,0,1,.68.75A4.5,4.5,0,0,1,211.67,250.68Z"/><path class="cls-4" d="M247.52,213.81a17.57,17.57,0,0,1-22.78,0,15.61,15.61,0,0,1-2.13-2.35,14.49,14.49,0,0,1,3.66-5,17.57,17.57,0,0,1,22.78,0,14.61,14.61,0,0,1,2.13,2.35A14.24,14.24,0,0,1,247.52,213.81Z"/><path class="cls-4" d="M275.64,238.8a11.27,11.27,0,0,1-14.62,0,9.16,9.16,0,0,1-1.37-1.5,9.2,9.2,0,0,1,2.35-3.22,11.27,11.27,0,0,1,14.62,0,9.69,9.69,0,0,1,1.37,1.51A9.2,9.2,0,0,1,275.64,238.8Z"/><path class="cls-4" d="M189.88,254.8a19.07,19.07,0,0,1-24.75,0,15.66,15.66,0,0,1-2.31-2.54,15.37,15.37,0,0,1,4-5.45,19.1,19.1,0,0,1,24.75,0,15.72,15.72,0,0,1,2.31,2.55A15.42,15.42,0,0,1,189.88,254.8Z"/><path class="cls-4" d="M236.41,265.93a11.06,11.06,0,0,1-14.34,0,9.75,9.75,0,0,1-1.34-1.48,9,9,0,0,1,2.3-3.15,11.07,11.07,0,0,1,14.35,0,9.23,9.23,0,0,1,1.34,1.47A9,9,0,0,1,236.41,265.93Z"/><path class="cls-4" d="M246.4,241.05a7.8,7.8,0,0,1-10.13,0,6.1,6.1,0,0,1-.94-1,6.22,6.22,0,0,1,1.62-2.22,7.79,7.79,0,0,1,10.12,0,6.17,6.17,0,0,1,1,1A6.35,6.35,0,0,1,246.4,241.05Z"/><ellipse class="cls-7" cx="146.53" cy="66.56" rx="30" ry="26.67"/><ellipse class="cls-7" cx="255.76" cy="64.05" rx="16.41" ry="14.59"/><ellipse class="cls-7" cx="262.76" cy="135.05" rx="16.41" ry="14.59"/><ellipse class="cls-7" cx="345.76" cy="322.43" rx="15.94" ry="14.17"/><ellipse class="cls-7" cx="330.76" cy="246.43" rx="15.94" ry="14.17"/><ellipse class="cls-7" cx="361.7" cy="414.95" rx="30.94" ry="27.5"/><ellipse class="cls-7" cx="436.23" cy="435.37" rx="18.75" ry="16.67"/><ellipse class="cls-7" cx="377.23" cy="290.37" rx="18.75" ry="16.67"/><ellipse class="cls-7" cx="412.79" cy="349.94" rx="5.16" ry="4.58"/><ellipse class="cls-7" cx="403.89" cy="231.58" rx="30.94" ry="27.5"/><ellipse class="cls-7" cx="434.83" cy="290.34" rx="20.16" ry="17.92"/><ellipse class="cls-7" cx="377.17" cy="116.98" rx="28.6" ry="25.42"/><ellipse class="cls-7" cx="423.58" cy="49.47" rx="12.66" ry="11.25"/><ellipse class="cls-7" cx="310.58" cy="170.47" rx="12.66" ry="11.25"/><ellipse class="cls-7" cx="448.58" cy="200.47" rx="12.66" ry="11.25"/><ellipse class="cls-7" cx="445.61" cy="134.9" rx="29.06" ry="25.84"/><ellipse class="cls-7" cx="311.07" cy="54.47" rx="13.59" ry="12.09"/><ellipse class="cls-7" cx="297.48" cy="93.23" rx="9.84" ry="8.75"/><ellipse class="cls-7" cx="202.48" cy="131.23" rx="9.84" ry="8.75"/><ellipse class="cls-7" cx="361.48" cy="170.23" rx="9.84" ry="8.75"/><ellipse class="cls-7" cx="139.03" cy="125.73" rx="14.53" ry="12.92"/><ellipse class="cls-7" cx="213.03" cy="84.73" rx="14.53" ry="12.92"/></svg>