<svg xmlns="http://www.w3.org/2000/svg" viewBox="0 0 227.04 281.05">
    <defs>
        <style>
            .cls-1 {
                fill: none;
                stroke: #ff5964;
                stroke-miterlimit: 10;
            }

            .cls-2 {
                fill: #ff5964;
            }
        </style>
    </defs>
    <g id="Layer_2" data-name="Layer 2">
        <g id="Layer_1-2" data-name="Layer 1">
            <path class="cls-1"
                d="M28.67,13c-.93,6.2,2,9.32-.17,13.62-2.34,4.57-6.64,2.82-10.89,7.49-5.15,5.64-1.78,11.4-6.13,19.57-1.57,2.95-4.56,7-10.83,10.6a.17.17,0,0,0,.08.32H36.1V.74a.23.23,0,0,0-.4-.17C32.15,4,29.41,8.08,28.67,13Z" />
            <path class="cls-1"
                d="M.68,73.54a.08.08,0,0,0,0,.15,8.07,8.07,0,0,1,4.18,3.6C7.5,81.72,4.32,85,6.38,89.54c1.86,4.1,5.1,2.7,7,6.3,3.25,6.25-5.28,12.84-2,20.94,1.26,3.14,3,3.25,3.24,5.62.56,5.18-7.07,10.27-14,13.89a.13.13,0,0,0,.07.25H36.1v-63Z" />
            <path class="cls-1"
                d="M.72,145.54a.22.22,0,0,0-.17.36c.6.74.37,2.14,1.74,4.24S5,152.26,6,153.89c1.57,2.35.29,4.49.17,8.51-.18,6,2.53,6.33,2.89,12.76.28,5-1.33,4.76-1.53,10.9-.24,7.22,1.95,8.93.85,13.1-.63,2.41-2.4,5.78-7.81,9.08a.16.16,0,0,0,.07.3H36.1v-63Z" />
            <path class="cls-1"
                d="M.62,217.54a.06.06,0,0,0,0,.12,7.41,7.41,0,0,1,3.9,3.46c1.26,2.29.58,4,2.05,5.11,1.25.89,2.29,0,3.23.85,1.43,1.29.47,4.61-.17,6.81-1.12,3.85-2,3.79-2.21,5.61-.37,4.2,4.52,5,5.44,9.87.64,3.34-1.51,3.93-3.91,12.6-1.34,4.83-.9,5.46-2,8.51a27,27,0,0,1-6.28,9.57.29.29,0,0,0,.2.5H36.1v-63Z" />
            <path class="cls-1"
                d="M196.53,13c.93,6.2-2,9.32.17,13.62,2.34,4.57,6.64,2.82,10.89,7.49,5.15,5.64,1.78,11.4,6.13,19.57,1.61,3,4.73,7.23,11.38,10.91h-36V.8a.27.27,0,0,1,.45-.19C193.08,4,195.79,8.1,196.53,13Z" />
            <path class="cls-1"
                d="M224.54,73.54a.08.08,0,0,1,0,.15,8,8,0,0,0-4.2,3.6c-2.66,4.43.52,7.75-1.54,12.25-1.86,4.1-5.1,2.7-7,6.3-3.25,6.25,5.28,12.84,2,20.94-1.26,3.14-3,3.25-3.24,5.62-.56,5.17,7,10.25,13.92,13.87a.14.14,0,0,1-.07.27H189.1v-63Z" />
            <path class="cls-1"
                d="M224.42,145.54a.25.25,0,0,1,.2.4c-.56.76-.37,2.14-1.71,4.2-1.45,2.23-2.66,2.12-3.75,3.75-1.56,2.35-.29,4.49-.17,8.51.18,6-2.53,6.33-2.89,12.76-.28,5,1.33,4.76,1.53,10.9.24,7.22-1.95,8.93-.85,13.1.63,2.41,2.39,5.76,7.78,9.06a.17.17,0,0,1-.08.32H189.1v-63Z" />
            <path class="cls-1"
                d="M224.55,217.54a.07.07,0,0,1,0,.13,7.44,7.44,0,0,0-3.87,3.45c-1.26,2.29-.58,4-2,5.11-1.25.89-2.28,0-3.23.85-1.43,1.29-.47,4.61.17,6.81,1.12,3.85,2,3.79,2.21,5.61.37,4.2-4.52,5-5.44,9.87-.64,3.34,1.51,3.93,3.91,12.6,1.34,4.83.9,5.46,2,8.51a26.9,26.9,0,0,0,6.24,9.53.31.31,0,0,1-.23.53H189.1v-63Z" />
            <path class="cls-2"
                d="M11.48,53.63c4.35-8.17,1-13.93,6.13-19.57,4.25-4.67,8.55-2.92,10.89-7.49,2.21-4.3-.76-7.42.17-13.62.77-5,3.69-9.27,7.43-12.77C-.21,18.72.1,64.54.1,64.54,6.75,60.86,9.87,56.67,11.48,53.63Z" />
            <path class="cls-2"
                d="M14.55,122.4c-.26-2.37-2-2.48-3.24-5.62-3.23-8.1,5.3-14.69,2-20.94-1.88-3.6-5.12-2.2-7-6.3C4.32,85,7.5,81.72,4.84,77.29A7.82,7.82,0,0,0,.1,73.54v63C7.11,132.91,15.12,127.7,14.55,122.4Z" />
            <path class="cls-2"
                d="M8.42,199.16c1.1-4.17-1.09-5.88-.85-13.1.2-6.14,1.81-5.94,1.53-10.9-.36-6.43-3.07-6.75-2.89-12.76.12-4,1.4-6.16-.17-8.51-1.08-1.63-2.3-1.52-3.75-3.75-1.63-2.5-1-4-2.19-4.6v63C5.91,205.14,7.77,201.64,8.42,199.16Z" />
            <path class="cls-2"
                d="M6.89,270.48c1.14-3.05.7-3.68,2-8.51,2.4-8.67,4.55-9.26,3.91-12.6-.92-4.83-5.81-5.67-5.44-9.87.16-1.82,1.09-1.76,2.21-5.61.64-2.2,1.6-5.52.17-6.81-.94-.86-2,0-3.23-.85-1.47-1.06-.79-2.82-2-5.11a7,7,0,0,0-4.4-3.58v63A27.06,27.06,0,0,0,6.89,270.48Z" />
            <path class="cls-2"
                d="M213.72,53.63c-4.35-8.17-1-13.93-6.13-19.57-4.25-4.67-8.55-2.92-10.89-7.49-2.21-4.3.76-7.42-.17-13.62-.77-5-3.69-9.27-7.43-12.77,36.31,18.54,36,64.36,36,64.36C218.45,60.86,215.33,56.67,213.72,53.63Z" />
            <path class="cls-2"
                d="M210.65,122.4c.26-2.37,2-2.48,3.24-5.62,3.23-8.1-5.3-14.69-2-20.94,1.88-3.6,5.12-2.2,7-6.3,2.06-4.5-1.12-7.82,1.54-12.25a7.82,7.82,0,0,1,4.74-3.75v63C218.09,132.91,210.08,127.7,210.65,122.4Z" />
            <path class="cls-2"
                d="M216.78,199.16c-1.1-4.17,1.09-5.88.85-13.1-.2-6.14-1.81-5.94-1.53-10.9.36-6.43,3.07-6.75,2.89-12.76-.12-4-1.39-6.16.17-8.51,1.09-1.63,2.3-1.52,3.75-3.75,1.63-2.5,1-4,2.19-4.6v63C219.29,205.14,217.43,201.64,216.78,199.16Z" />
            <path class="cls-2"
                d="M218.31,270.48c-1.14-3.05-.7-3.68-2-8.51-2.4-8.67-4.55-9.26-3.91-12.6.92-4.83,5.81-5.67,5.44-9.87-.16-1.82-1.09-1.76-2.21-5.61-.64-2.2-1.6-5.52-.17-6.81,1-.86,2,0,3.23-.85,1.47-1.06.79-2.82,2-5.11a7,7,0,0,1,4.4-3.58v63A27.06,27.06,0,0,1,218.31,270.48Z" />
            <path class="cls-1"
                d="M108.1,10.54v-9h-63v63H80.35c-1.24-5.38-2.27-10.65.75-18,3.36-8.19,7.83-9.41,9-18,1.26-9.21-3-14.46,0-18C91.81,8.5,96.07,6.87,108.1,10.54Z" />
            <path class="cls-1"
                d="M45.1,136.54H74.88c-6-9.74-13.67-16.08-11.78-27,2.22-12.79,14.06-11.33,18-27a28.34,28.34,0,0,0,.84-9H45.1Z" />
            <path class="cls-1"
                d="M45.1,208.54H68.67c.88-5.76,2.13-11.76,3.43-18,5-23.74,10.16-23.86,9-36a39.49,39.49,0,0,0-1.92-9H45.1Z" />
            <path class="cls-1"
                d="M45.1,280.54h63v-9l-.5-.15c-24.93-7.82-33.24-22.34-35.5-26.85-4.23-8.41-5.16-17.38-4.47-27H45.1Z" />
            <path class="cls-1" d="M108.1,73.54v-9H80.35a54.74,54.74,0,0,1,1.59,9Z" />
            <path class="cls-1" d="M108.1,145.54v-9H74.88a44.38,44.38,0,0,1,4.3,9Z" />
            <path class="cls-1" d="M108.1,217.54v-9H68.67c-.46,3.07-.83,6.07-1,9Z" />
            <path class="cls-1"
                d="M180.1,1.54h-63v9c12-3.67,16.29-2,18,0,3,3.54-1.26,8.79,0,18,1.17,8.59,5.64,9.81,9,18,3,7.35,2,12.62.75,18H180.1Z" />
            <path class="cls-1"
                d="M144.1,82.54c3.94,15.67,15.78,14.21,18,27,1.89,10.92-5.81,17.26-11.78,27H180.1v-63H143.26A28.34,28.34,0,0,0,144.1,82.54Z" />
            <path class="cls-1"
                d="M153.1,190.54c1.3,6.24,2.55,12.24,3.43,18H180.1v-63H146a39.49,39.49,0,0,0-1.92,9C142.94,166.68,148.15,166.8,153.1,190.54Z" />
            <path class="cls-1"
                d="M153.1,244.54c-2.26,4.51-10.57,19-35.5,26.85l-.5.15v9h63v-63H157.57C158.26,227.16,157.33,236.13,153.1,244.54Z" />
            <path class="cls-1" d="M117.1,217.54h40.47c-.21-2.93-.58-5.93-1-9H117.1Z" />
            <path class="cls-1" d="M117.1,64.54v9h26.16a54.74,54.74,0,0,1,1.59-9Z" />
            <path class="cls-1" d="M117.1,145.54H146a44.38,44.38,0,0,1,4.3-9H117.1Z" />
        </g>
    </g>
</svg>